<?xml version="1.0" encoding="UTF-8"?>
<svg xmlns="http://www.w3.org/2000/svg" version="1.1" viewBox="0 0 1920 1080">
  <defs>
    <style>
      .cls-1 {
        stroke-width: 4px;
      }

      .cls-1, .cls-2, .cls-3, .cls-4, .cls-5 {
        stroke-linecap: round;
      }

      .cls-1, .cls-2, .cls-3, .cls-4, .cls-5, .cls-6 {
        fill: #fff;
        stroke: #fff;
      }

      .cls-1, .cls-2, .cls-4, .cls-5, .cls-6 {
        stroke-linejoin: round;
      }

      .cls-2 {
        stroke-width: 5px;
      }

      .cls-3 {
        stroke-miterlimit: 10;
      }

      .cls-3, .cls-4, .cls-6 {
        stroke-width: 2px;
      }

      .cls-5 {
        stroke-width: 3.3px;
      }

      .cls-7 {
        fill: #f96;
      }
    </style>
  </defs>
  <!-- Generator: Adobe Illustrator 28.7.10, SVG Export Plug-In . SVG Version: 1.2.0 Build 236)  -->
  <g>
    <g id="_レイヤー_1" data-name="レイヤー_1">
      <g id="_レイヤー_1-2" data-name="_レイヤー_1">
        <g id="_x2A_bg">
          <rect class="cls-7" x="890.8" y="441.4" width="138.4" height="197.3"/>
        </g>
      </g>
      <g id="action">
        <g id="lvmax_x5F_003">
          <g>
            <path class="cls-5" d="M938.8,545.7c-1.1,1.4-2.4,2.3-1.4,4.3,0,.3.5.4.8.3,0,0,.2,0,.3-.2.4-.7.7-1.2.8-1.4.6-.9,1.5-1.6,2.1-2.6.4-.7.8-1.1,1-1.4,1.7-2,3.4-4,5-6s1.5-1.7,1.8-1.8c1.7-.8,2-.5,1,1.1-.9,1.3-2,2.7-3.3,4.1-1.5,1.7-3.8,4.7-6.9,8.9-.9,1.2-1.9,2.3-3.1,3.3-.2.2-.5.2-.7,0h0l-1.7-4v-.4c.2-.4.3-.6.3-.7v-.7c-1.4-4-2.3-6.7-2.5-8-.4-2.4-1-4.8-1.9-7.2,0-.2-.2-.2-.4-.2l-.2.2c-.4.7-.9,1.3-1.7,1.9-.2.2-.5,0-.7,0v-.2c0-.5,0-.9.3-1.2s0-.3,0-.5c-.3-.3-.4-.7-.3-1.1,0-.2,0-.3.3-.5,1.2-.9,2-1.2,1.7-2.8,0-.2-.2-.3-.4-.2s-.4.2-.7.2-.5,0-.6-.2c0,0-.2-.3,0-.6,0-.2.2-.3.3-.4.7-.3,1.1-1,1.3-1.9v-.5l-.2-.2v-.3c-1-3.8-1.5-7.8-1.4-12.1,0-.8.4-1.1,1.2-.9,0,0,.2.3.4.9,1.2,4.9,2.1,8.6,2.6,11.2,0,.2.2.3.3.2h0c4.9-4.3,9.5-8.7,13.9-13.4.2-.3.7-.8,1.3-1.5.2-.2,0-.3,0-.4h-.6c-.2-.2-.3-.3-.4-.5-1.2-4-1.9-8.4-2.1-13.1,0-2.2.2-3.8.4-5.7,0-.3.3-.5.6-.5s.3,0,.4.2c.5.5.7,1.1.8,1.7.3,5.2,1,10.7,2.1,16.4.2,1,.5,1.1,1,.2.4-.8,1.3-1.2,2.6-1,.2,0,.3.2.3.4v.2c-.9,1-1.8,2.3-2.8,3.1-1.4,1.1-2.2,2.5-3.6,3.6-1.8,1.4-3.4,3.2-5,5.3v.2h0c1.3-1.6,2.8-3.1,4.4-4.3,2-1.5,3.5-3.4,5.5-4.7.5-.3.7-.2.6.4v.7c-.2.5-.5,1-.9,1.3-1.4,1-2.3,1.7-2.8,2.2-3.2,3.2-6.5,6.4-9.8,9.5-1.8,1.7-3.3,3.6-4.9,5.3-.2.2-.2.4-.2.7l3.6,15.2s0,.2.2,0h0c.7-.7,1.3-1.4,1.7-2,2.4-3.2,4.8-6,7.4-8.5,1.3-1.2,3-2.1,4.2-3.5.3-.3.8-.4,1.1-.2.2,0,.3.3.3.5s0,.5-.5,1-1.1.9-1.6,1.7c-1.3,2.1-3.1,3.9-4.2,5.7-1.1,1.8-2.6,2.8-3.4,4.6-.2.5-.7,1.3-1.4,2.2-.2.3-.5.4-.8.5-.3,0-.6-.2-.6-.5v-.2l.2-1c0-.3,0-.4-.2,0v-.2h-.2,0ZM932.2,526s.3,0,.4-.2h0c.2-.2.3-.4.2-.4h0s-.3,0-.4.2h0c-.2.2-.3.4-.2.4h0ZM940.6,543.1c-.8.9-1.2,1.4-1.1,1.5,0,0,.5-.4,1.3-1.3s1.2-1.4,1.1-1.5c0,0-.5.4-1.3,1.3Z"/>
            <path class="cls-5" d="M952.2,494.8s0,.1.2.1h.2v-.2c0-.7,0-1.1.3-1.4,0-.2.4-.2.5,0v.2c.6,4.7.9,9.1.8,13.5,0,3.2.3,5.9.4,9v.2h-.2c-.6-2.7-.9-4.5-1-5.6,0-.6-.3-1.3-.6-2-.4-.8-.6-1.5-.7-2-1-5.2-1.6-10.3-1.7-15.5,0-.4.2-.5.5-.3l.3.2c.2.2.4.4.4.7l.4,3.2h.2,0Z"/>
            <path class="cls-5" d="M962.1,539.2s0-.2-.2,0c-3.4,2.5-6.3,5.3-8.8,8.5-.2.3-.3.6-.2,1,1.4,5.3,2.5,10.6,3.1,15.9h0c-.2-.8-.7-1.4-1.6-1.9-.4-.2-.6-.5-.6-1v-.9c0-.2,0-.4-.3-.5s-.2-.3-.2-.6v-.6c-.8-3.8-1-5.6-2.1-8.4-.3-.9-.5-2-.4-3.3,0-.2,0-.3-.3-.3-1.2.2-1.8.8-1.3,2.2,1.3,3.7,2.3,7.8,3.2,12.1,0,.4,0,.7-.4,1h-.3c-.3,0-.5,0-.5-.3-1.2-4.8-2.4-9.3-3.7-13.5v-1.4c0-.2.2-.4.3-.5,1.9-1.2,2.8-3.3,4.5-4.6,2.3-1.6,5.7-4.9,9.1-6.9.9-.5,1.6-.3,2.1.6,0,0,.4.3,1,.9,0,0,.2.3,0,.4-.5.8-.6,1.9-.4,3.4.4,3.2.3,8.5.7,12.3.2,2.1.4,5.3.6,9.6.2,4.2.7,8,1.4,13.3.2,1.6.2,3.2,0,5,0,.2-.2.3-.4.3h-.2c-1.1-.6-1.1-1.3-1.2-2.5-.5-4.4-.9-7.6-1-9.5-.9-12-1.5-22-1.9-30h0v.2h0ZM961.2,537.3s-.6.2-1.3.6c-.7.4-1.2.8-1.1.9,0,0,.6-.2,1.3-.6s1.2-.8,1.1-.9ZM952,546.3s.6-.2,1.1-.8c.5-.5.8-1.1.6-1.2,0,0-.6.2-1.1.8-.5.5-.8,1.1-.6,1.2Z"/>
            <path class="cls-5" d="M989.9,577.5c-.8,2.9-1.5,5.8-2.3,8.8-.4,1.6-1.1,3.1-1.9,4.5,0,.2-.3.2-.5.2l-.2-.2c-.3-.9-.2-2,0-3.2.9-3.5,1.8-7,2.7-10.5s1.9-7,2.8-10.5c.3-1.2.8-2.2,1.5-2.8h.3c.2,0,.3.2.3.4,0,1.6-.2,3.2-.6,4.9-.8,2.9-1.6,5.8-2.3,8.7l.2-.2h0Z"/>
            <path class="cls-5" d="M985.5,575.3c-.4.7-1,1.4-2,2.1h-.4c-.3-.6-.7-.7-.9-1.5-.7-3.3-1.2-6-1.4-7.9,0-.5,0-1.2.2-2.1,0-.2.2-.3.4-.4.3,0,.6,0,.9.3h.5c.3-.2.5-.2.6-.2.2,0,.3,0,.4.3,0,1.3.9,3,1.1,4.6.2,2,.7,3.6,1.3,4.9,0,0,0,.2-.2,0h-.5,0Z"/>
            <path class="cls-5" d="M977.5,576l-1.4,1.3c-.2.2-.4,0-.6,0v-.2c-.8-3.2-1.1-6-1.1-8.6s.2-.7.5-1,.3-.2.4,0c0,.4.5,1,1.1,1.9,1.1,1.6.7,3.2,1.3,5,.2.5.3,1,.6,1.6,0,.2,0,.3-.2.2h-.5v-.2h0Z"/>
          </g>
          <g>
            <path d="M938.8,545.7c-1.1,1.4-2.4,2.3-1.4,4.3,0,.3.5.4.8.3,0,0,.2,0,.3-.2.4-.7.7-1.2.8-1.4.6-.9,1.5-1.6,2.1-2.6.4-.7.8-1.1,1-1.4,1.7-2,3.4-4,5-6s1.5-1.7,1.8-1.8c1.7-.8,2-.5,1,1.1-.9,1.3-2,2.7-3.3,4.1-1.5,1.7-3.8,4.7-6.9,8.9-.9,1.2-1.9,2.3-3.1,3.3-.2.2-.5.2-.7,0h0l-1.7-4v-.4c.2-.4.3-.6.3-.7v-.7c-1.4-4-2.3-6.7-2.5-8-.4-2.4-1-4.8-1.9-7.2,0-.2-.2-.2-.4-.2l-.2.2c-.4.7-.9,1.3-1.7,1.9-.2.2-.5,0-.7,0v-.2c0-.5,0-.9.3-1.2s0-.3,0-.5c-.3-.3-.4-.7-.3-1.1,0-.2,0-.3.3-.5,1.2-.9,2-1.2,1.7-2.8,0-.2-.2-.3-.4-.2s-.4.2-.7.2-.5,0-.6-.2c0,0-.2-.3,0-.6,0-.2.2-.3.3-.4.7-.3,1.1-1,1.3-1.9v-.5l-.2-.2v-.3c-1-3.8-1.5-7.8-1.4-12.1,0-.8.4-1.1,1.2-.9,0,0,.2.3.4.9,1.2,4.9,2.1,8.6,2.6,11.2,0,.2.2.3.3.2h0c4.9-4.3,9.5-8.7,13.9-13.4.2-.3.7-.8,1.3-1.5.2-.2,0-.3,0-.4h-.6c-.2-.2-.3-.3-.4-.5-1.2-4-1.9-8.4-2.1-13.1,0-2.2.2-3.8.4-5.7,0-.3.3-.5.6-.5s.3,0,.4.2c.5.5.7,1.1.8,1.7.3,5.2,1,10.7,2.1,16.4.2,1,.5,1.1,1,.2.4-.8,1.3-1.2,2.6-1,.2,0,.3.2.3.4v.2c-.9,1-1.8,2.3-2.8,3.1-1.4,1.1-2.2,2.5-3.6,3.6-1.8,1.4-3.4,3.2-5,5.3v.2h0c1.3-1.6,2.8-3.1,4.4-4.3,2-1.5,3.5-3.4,5.5-4.7.5-.3.7-.2.6.4v.7c-.2.5-.5,1-.9,1.3-1.4,1-2.3,1.7-2.8,2.2-3.2,3.2-6.5,6.4-9.8,9.5-1.8,1.7-3.3,3.6-4.9,5.3-.2.2-.2.4-.2.7l3.6,15.2s0,.2.2,0h0c.7-.7,1.3-1.4,1.7-2,2.4-3.2,4.8-6,7.4-8.5,1.3-1.2,3-2.1,4.2-3.5.3-.3.8-.4,1.1-.2.2,0,.3.3.3.5s0,.5-.5,1-1.1.9-1.6,1.7c-1.3,2.1-3.1,3.9-4.2,5.7-1.1,1.8-2.6,2.8-3.4,4.6-.2.5-.7,1.3-1.4,2.2-.2.3-.5.4-.8.5-.3,0-.6-.2-.6-.5v-.2l.2-1c0-.3,0-.4-.2,0v-.2h-.2,0ZM932.2,526s.3,0,.4-.2h0c.2-.2.3-.4.2-.4h0s-.3,0-.4.2h0c-.2.2-.3.4-.2.4h0ZM940.6,543.1c-.8.9-1.2,1.4-1.1,1.5,0,0,.5-.4,1.3-1.3s1.2-1.4,1.1-1.5c0,0-.5.4-1.3,1.3Z"/>
            <path d="M952.2,494.8s0,.1.2.1h.2v-.2c0-.7,0-1.1.3-1.4,0-.2.4-.2.5,0v.2c.6,4.7.9,9.1.8,13.5,0,3.2.3,5.9.4,9v.2h-.2c-.6-2.7-.9-4.5-1-5.6,0-.6-.3-1.3-.6-2-.4-.8-.6-1.5-.7-2-1-5.2-1.6-10.3-1.7-15.5,0-.4.2-.5.5-.3l.3.2c.2.2.4.4.4.7l.4,3.2h.2,0Z"/>
            <path d="M962.1,539.2s0-.2-.2,0c-3.4,2.5-6.3,5.3-8.8,8.5-.2.3-.3.6-.2,1,1.4,5.3,2.5,10.6,3.1,15.9h0c-.2-.8-.7-1.4-1.6-1.9-.4-.2-.6-.5-.6-1v-.9c0-.2,0-.4-.3-.5s-.2-.3-.2-.6v-.6c-.8-3.8-1-5.6-2.1-8.4-.3-.9-.5-2-.4-3.3,0-.2,0-.3-.3-.3-1.2.2-1.8.8-1.3,2.2,1.3,3.7,2.3,7.8,3.2,12.1,0,.4,0,.7-.4,1h-.3c-.3,0-.5,0-.5-.3-1.2-4.8-2.4-9.3-3.7-13.5v-1.4c0-.2.2-.4.3-.5,1.9-1.2,2.8-3.3,4.5-4.6,2.3-1.6,5.7-4.9,9.1-6.9.9-.5,1.6-.3,2.1.6,0,0,.4.3,1,.9,0,0,.2.3,0,.4-.5.8-.6,1.9-.4,3.4.4,3.2.3,8.5.7,12.3.2,2.1.4,5.3.6,9.6.2,4.2.7,8,1.4,13.3.2,1.6.2,3.2,0,5,0,.2-.2.3-.4.3h-.2c-1.1-.6-1.1-1.3-1.2-2.5-.5-4.4-.9-7.6-1-9.5-.9-12-1.5-22-1.9-30h0v.2h0ZM961.2,537.3s-.6.2-1.3.6c-.7.4-1.2.8-1.1.9,0,0,.6-.2,1.3-.6s1.2-.8,1.1-.9ZM952,546.3s.6-.2,1.1-.8c.5-.5.8-1.1.6-1.2,0,0-.6.2-1.1.8-.5.5-.8,1.1-.6,1.2Z"/>
            <path d="M989.9,577.5c-.8,2.9-1.5,5.8-2.3,8.8-.4,1.6-1.1,3.1-1.9,4.5,0,.2-.3.2-.5.2l-.2-.2c-.3-.9-.2-2,0-3.2.9-3.5,1.8-7,2.7-10.5s1.9-7,2.8-10.5c.3-1.2.8-2.2,1.5-2.8h.3c.2,0,.3.2.3.4,0,1.6-.2,3.2-.6,4.9-.8,2.9-1.6,5.8-2.3,8.7l.2-.2h0Z"/>
            <path d="M985.5,575.3c-.4.7-1,1.4-2,2.1h-.4c-.3-.6-.7-.7-.9-1.5-.7-3.3-1.2-6-1.4-7.9,0-.5,0-1.2.2-2.1,0-.2.2-.3.4-.4.3,0,.6,0,.9.3h.5c.3-.2.5-.2.6-.2.2,0,.3,0,.4.3,0,1.3.9,3,1.1,4.6.2,2,.7,3.6,1.3,4.9,0,0,0,.2-.2,0h-.5,0Z"/>
            <path d="M977.5,576l-1.4,1.3c-.2.2-.4,0-.6,0v-.2c-.8-3.2-1.1-6-1.1-8.6s.2-.7.5-1,.3-.2.4,0c0,.4.5,1,1.1,1.9,1.1,1.6.7,3.2,1.3,5,.2.5.3,1,.6,1.6,0,.2,0,.3-.2.2h-.5v-.2h0Z"/>
          </g>
        </g>
        <g id="lvmax_x5F_002">
          <g>
            <path class="cls-1" d="M944.5,531.9c-1.6.5-3,.7-3.2,2.7,0,.3.2.6.5.6h.3c.7-.4,1.2-.6,1.3-.7.9-.5,2-.6,2.9-1,.7-.3,1.2-.5,1.5-.7,2.3-.8,4.6-1.5,7-2.4,1.2-.4,2-.6,2.4-.6,1.8.2,1.9.6.2,1.4-1.3.6-2.9,1.2-4.7,1.7-2,.6-5.3,1.9-9.8,3.8-1.3.5-2.6.9-4.1,1.2-.3,0-.5,0-.5-.4h0l.5-4.1s0-.2.2-.3c.3-.2.5-.4.6-.5,0-.2.2-.4.3-.6.8-3.9,1.4-6.5,1.9-7.6.9-2.1,1.5-4.4,1.9-6.7,0-.2,0-.3-.2-.3h-.2c-.6.4-1.4.6-2.3.7-.3,0-.5-.2-.5-.4v-.2c.2-.4.4-.7.8-.8.2,0,.2-.2.2-.4,0-.4,0-.7.3-1s.3-.2.5-.2c1.4,0,2.2,0,2.7-1.4,0-.2,0-.3-.2-.3h-.6c-.2,0-.4-.3-.4-.5s0-.3.2-.5.3-.2.5-.2c.7,0,1.4-.2,2-.9,0-.1.2-.3.2-.5v-.6c1-3.5,2.6-6.9,4.7-10.3.4-.7.9-.7,1.4-.1v.9c-1.4,4.5-2.5,7.9-3.3,10.2,0,.1,0,.3.2.3h0c6-1.1,11.8-2.4,17.6-4,.3,0,.9-.3,1.7-.6.2,0,.2-.2,0-.4l-.4-.4c0-.1-.2-.3,0-.5,1-3.8,2.6-7.6,4.7-11.5,1-1.9,2.1-3,3.1-4.4.2-.2.5-.3.7-.1,0,0,.2.2.2.3,0,.7,0,1.2-.2,1.8-2.3,4.3-4.4,9-6.2,14.2-.3.9,0,1.1.7.6.7-.4,1.6-.3,2.6.4,0,.1.2.3,0,.5h-.2c-1.2.5-2.6,1.1-3.7,1.2-1.6.2-3,.9-4.6,1.1-2.1.3-4.3.9-6.5,1.8h0v.2c1.9-.7,3.7-1.1,5.6-1.3,2.3-.3,4.4-1,6.7-1s.7.2.3.6l-.4.5c-.3.4-.8.6-1.3.7-1.6.1-2.7.2-3.3.4-4.1,1-8.3,1.9-12.4,2.9-2.2.5-4.3,1.3-6.5,1.9-.2,0-.4.2-.5.4l-4.5,13.9v.2h0c.9-.2,1.7-.5,2.4-.8,3.4-1.4,6.8-2.5,10.1-3.2,1.6-.4,3.5-.2,5-.8.4,0,.8,0,1,.4v.5c0,.2-.4.4-.8.5-.6.2-1.4.2-2.1.6-2,1-4.4,1.6-6.2,2.5s-3.4,1-5,2c-.4.3-1.2.7-2.2,1.1h-.8c-.3,0-.4-.4-.2-.7h0l.7-.8c.2-.2.2-.3,0-.2l-.2.3h-.1ZM948.8,512.9h.5c.2,0,.4-.2.4-.2h-.5c-.2,0-.4.2-.4.2h0ZM947.2,530.7c-1.1.4-1.6.6-1.6.7,0,0,.6,0,1.7-.4s1.6-.6,1.6-.7c0,0-.6,0-1.7.4Z"/>
            <path class="cls-1" d="M979.9,497.5v.2h.3c.3-.6.6-.9.9-1,.2,0,.4,0,.4.2v.2c-1.7,4-3.7,7.8-5.9,11.2-1.6,2.5-2.6,4.9-4,7.4h0v-.2c.8-2.4,1.5-4.1,1.9-5,.2-.5.4-1.2.5-1.8,0-.8.2-1.5.4-1.9,1.7-4.6,3.7-9,6.2-13.3.2-.4.4-.3.5,0v.3c.2.2.2.5,0,.8l-1.2,2.8h0Z"/>
            <path class="cls-1" d="M966.3,537.9v-.2c-3.9.3-7.6,1.2-11.2,2.6-.3,0-.5.4-.6.7-1.4,4.9-3.2,9.7-5.2,14.2h0c.2-.8,0-1.5-.3-2.3-.2-.3-.2-.7,0-1l.4-.8v-1s.2-.3.3-.4c1.1-3.4,1.9-5,2.4-7.7,0-.9.6-1.8,1.3-2.9v-.4c-1.1-.4-1.8-.2-2.1,1.1-.8,3.6-1.9,7.4-3.3,11.3,0,.3-.4.5-.8.6h-.3c-.3,0-.4-.2-.3-.5,1.4-4.4,2.6-8.6,3.6-12.6,0-.4.3-.8.7-1.1,0,0,.3-.2.5-.2,2.1,0,3.8-1.3,5.8-1.5,2.6-.2,6.9-1.2,10.6-1.2s1.4.5,1.4,1.5c0,0,0,.5.4,1.2,0,.2,0,.3-.2.4-.8.4-1.4,1.2-2,2.5-1.3,2.8-3.8,7-5.4,10.2-.9,1.8-2.3,4.5-4.2,7.9-1.9,3.5-3.3,6.7-5.4,11.4-.6,1.4-1.4,2.7-2.3,4,0,0-.3.2-.5,0h0c-.6-1.1-.2-1.7.2-2.7,1.7-3.8,3-6.5,3.8-8.1,5.1-10,9.4-18.3,13-24.9h-.3ZM966.5,536s-.6-.2-1.3-.2h-1.3s.6.2,1.3.2h1.3ZM954.8,538.7h1.2c.6-.2,1.1-.5,1.1-.6s-.6,0-1.2,0c-.6.2-1.1.5-1.1.6Z"/>
            <path class="cls-1" d="M970,582c-2,2-4,3.9-6.1,5.9-1.1,1.1-2.4,2-3.7,2.7h-.5v-.3c.2-.8.8-1.7,1.6-2.5,2.4-2.4,4.8-4.7,7.3-7.1,2.4-2.4,4.9-4.7,7.3-7,.9-.8,1.7-1.3,2.6-1.5h.3s.2.3,0,.5c-.8,1.3-1.7,2.5-2.8,3.6-2,2-4.1,3.9-6.1,5.9h0v-.2h.1Z"/>
            <path class="cls-1" d="M967.5,578.2c-.6.4-1.5.6-2.6.7-.2,0-.3,0-.3-.3,0-.6-.2-.9,0-1.7,1.1-3,2-5.3,2.7-7.1.2-.5.6-1,1.1-1.6,0,0,.3-.2.5,0,.2,0,.4.3.6.7,0,.2.2.2.4.2h.6c.2,0,.2.3,0,.5-.5,1.1-.7,2.8-1.4,4.2-.8,1.7-1.2,3.2-1.3,4.6,0,0,0,.2-.2,0h-.2v-.2h.1Z"/>
            <path class="cls-1" d="M960.8,574.8l-1.8.3c-.2,0-.4,0-.5-.3v-.2c.9-2.9,2-5.4,3.3-7.4.2-.3.5-.5.9-.6.3,0,.4,0,.3.3v2c0,1.8-1,2.9-1.4,4.6,0,.4-.2,1-.3,1.6q0,.2-.2,0v-.2s0-.2-.3,0h0Z"/>
          </g>
          <g>
            <path d="M944.5,531.9c-1.6.5-3,.7-3.2,2.7,0,.3.2.6.5.6h.3c.7-.4,1.2-.6,1.3-.7.9-.5,2-.6,2.9-1,.7-.3,1.2-.5,1.5-.7,2.3-.8,4.6-1.5,7-2.4,1.2-.4,2-.6,2.4-.6,1.8.2,1.9.6.2,1.4-1.3.6-2.9,1.2-4.7,1.7-2,.6-5.3,1.9-9.8,3.8-1.3.5-2.6.9-4.1,1.2-.3,0-.5,0-.5-.4h0l.5-4.1s0-.2.2-.3c.3-.2.5-.4.6-.5,0-.2.2-.4.3-.6.8-3.9,1.4-6.5,1.9-7.6.9-2.1,1.5-4.4,1.9-6.7,0-.2,0-.3-.2-.3h-.2c-.6.4-1.4.6-2.3.7-.3,0-.5-.2-.5-.4v-.2c.2-.4.4-.7.8-.8.2,0,.2-.2.2-.4,0-.4,0-.7.3-1s.3-.2.5-.2c1.4,0,2.2,0,2.7-1.4,0-.2,0-.3-.2-.3h-.6c-.2,0-.4-.3-.4-.5s0-.3.2-.5.3-.2.5-.2c.7,0,1.4-.2,2-.9,0-.1.2-.3.2-.5v-.6c1-3.5,2.6-6.9,4.7-10.3.4-.7.9-.7,1.4-.1v.9c-1.4,4.5-2.5,7.9-3.3,10.2,0,.1,0,.3.2.3h0c6-1.1,11.8-2.4,17.6-4,.3,0,.9-.3,1.7-.6.2,0,.2-.2,0-.4l-.4-.4c0-.1-.2-.3,0-.5,1-3.8,2.6-7.6,4.7-11.5,1-1.9,2.1-3,3.1-4.4.2-.2.5-.3.7-.1,0,0,.2.2.2.3,0,.7,0,1.2-.2,1.8-2.3,4.3-4.4,9-6.2,14.2-.3.9,0,1.1.7.6.7-.4,1.6-.3,2.6.4,0,.1.2.3,0,.5h-.2c-1.2.5-2.6,1.1-3.7,1.2-1.6.2-3,.9-4.6,1.1-2.1.3-4.3.9-6.5,1.8h0v.2c1.9-.7,3.7-1.1,5.6-1.3,2.3-.3,4.4-1,6.7-1s.7.2.3.6l-.4.5c-.3.4-.8.6-1.3.7-1.6.1-2.7.2-3.3.4-4.1,1-8.3,1.9-12.4,2.9-2.2.5-4.3,1.3-6.5,1.9-.2,0-.4.2-.5.4l-4.5,13.9v.2h0c.9-.2,1.7-.5,2.4-.8,3.4-1.4,6.8-2.5,10.1-3.2,1.6-.4,3.5-.2,5-.8.4,0,.8,0,1,.4v.5c0,.2-.4.4-.8.5-.6.2-1.4.2-2.1.6-2,1-4.4,1.6-6.2,2.5s-3.4,1-5,2c-.4.3-1.2.7-2.2,1.1h-.8c-.3,0-.4-.4-.2-.7h0l.7-.8c.2-.2.2-.3,0-.2l-.2.3h-.1ZM948.8,512.9h.5c.2,0,.4-.2.4-.2h-.5c-.2,0-.4.2-.4.2h0ZM947.2,530.7c-1.1.4-1.6.6-1.6.7,0,0,.6,0,1.7-.4s1.6-.6,1.6-.7c0,0-.6,0-1.7.4Z"/>
            <path d="M979.9,497.5v.2h.3c.3-.6.6-.9.9-1,.2,0,.4,0,.4.2v.2c-1.7,4-3.7,7.8-5.9,11.2-1.6,2.5-2.6,4.9-4,7.4h0v-.2c.8-2.4,1.5-4.1,1.9-5,.2-.5.4-1.2.5-1.8,0-.8.2-1.5.4-1.9,1.7-4.6,3.7-9,6.2-13.3.2-.4.4-.3.5,0v.3c.2.2.2.5,0,.8l-1.2,2.8h0Z"/>
            <path d="M966.3,537.9v-.2c-3.9.3-7.6,1.2-11.2,2.6-.3,0-.5.4-.6.7-1.4,4.9-3.2,9.7-5.2,14.2h0c.2-.8,0-1.5-.3-2.3-.2-.3-.2-.7,0-1l.4-.8v-1s.2-.3.3-.4c1.1-3.4,1.9-5,2.4-7.7,0-.9.6-1.8,1.3-2.9v-.4c-1.1-.4-1.8-.2-2.1,1.1-.8,3.6-1.9,7.4-3.3,11.3,0,.3-.4.5-.8.6h-.3c-.3,0-.4-.2-.3-.5,1.4-4.4,2.6-8.6,3.6-12.6,0-.4.3-.8.7-1.1,0,0,.3-.2.5-.2,2.1,0,3.8-1.3,5.8-1.5,2.6-.2,6.9-1.2,10.6-1.2s1.4.5,1.4,1.5c0,0,0,.5.4,1.2,0,.2,0,.3-.2.4-.8.4-1.4,1.2-2,2.5-1.3,2.8-3.8,7-5.4,10.2-.9,1.8-2.3,4.5-4.2,7.9-1.9,3.5-3.3,6.7-5.4,11.4-.6,1.4-1.4,2.7-2.3,4,0,0-.3.2-.5,0h0c-.6-1.1-.2-1.7.2-2.7,1.7-3.8,3-6.5,3.8-8.1,5.1-10,9.4-18.3,13-24.9h-.3ZM966.5,536s-.6-.2-1.3-.2h-1.3s.6.2,1.3.2h1.3ZM954.8,538.7h1.2c.6-.2,1.1-.5,1.1-.6s-.6,0-1.2,0c-.6.2-1.1.5-1.1.6Z"/>
            <path d="M970,582c-2,2-4,3.9-6.1,5.9-1.1,1.1-2.4,2-3.7,2.7h-.5v-.3c.2-.8.8-1.7,1.6-2.5,2.4-2.4,4.8-4.7,7.3-7.1,2.4-2.4,4.9-4.7,7.3-7,.9-.8,1.7-1.3,2.6-1.5h.3s.2.3,0,.5c-.8,1.3-1.7,2.5-2.8,3.6-2,2-4.1,3.9-6.1,5.9h0v-.2h.1Z"/>
            <path d="M967.5,578.2c-.6.4-1.5.6-2.6.7-.2,0-.3,0-.3-.3,0-.6-.2-.9,0-1.7,1.1-3,2-5.3,2.7-7.1.2-.5.6-1,1.1-1.6,0,0,.3-.2.5,0,.2,0,.4.3.6.7,0,.2.2.2.4.2h.6c.2,0,.2.3,0,.5-.5,1.1-.7,2.8-1.4,4.2-.8,1.7-1.2,3.2-1.3,4.6,0,0,0,.2-.2,0h-.2v-.2h.1Z"/>
            <path d="M960.8,574.8l-1.8.3c-.2,0-.4,0-.5-.3v-.2c.9-2.9,2-5.4,3.3-7.4.2-.3.5-.5.9-.6.3,0,.4,0,.3.3v2c0,1.8-1,2.9-1.4,4.6,0,.4-.2,1-.3,1.6q0,.2-.2,0v-.2s0-.2-.3,0h0Z"/>
          </g>
        </g>
        <g id="lvmax_x5F_001">
          <g>
            <path class="cls-2" d="M940.9,540.3c-1.3,1.1-2.7,1.6-2.1,3.7,0,.3.4.5.7.4,0,0,.2,0,.3-.2.6-.6.9-1,1-1.1.7-.7,1.7-1.2,2.5-2s.9-.9,1.2-1.1c2-1.5,3.9-3.1,5.9-4.6,1-.8,1.7-1.3,2.1-1.4,1.8-.4,2,0,.7,1.2-1.1,1-2.4,2.1-3.9,3.2-1.7,1.3-4.5,3.6-8.2,7-1,1-2.2,1.8-3.5,2.5-.2,0-.5,0-.6-.2h0l-.8-4.1v-.3c.2-.3.4-.5.4-.6v-.7c-.6-4-.8-6.7-.8-7.9,0-2.4,0-4.7-.4-7.1,0-.2-.2-.3-.3-.2h-.2c-.5.6-1.1,1.1-2,1.5-.2,0-.5,0-.6-.2v-.2c0-.5.2-.8.5-1.1s.2-.3,0-.4c-.2-.3-.2-.7,0-1.1,0-.2.2-.3.4-.4,1.3-.6,2.1-.8,2.1-2.3s0-.3-.3-.2h-.7c-.3,0-.4,0-.5-.3v-.5c0-.2.2-.3.4-.3.7-.2,1.3-.7,1.6-1.5v-1c-.2-3.7,0-7.5,1-11.5.2-.8.6-1,1.3-.6,0,0,.2.4.2.9.2,4.8.3,8.4.3,10.9s0,.3.3.3h0c5.3-3.1,10.5-6.3,15.5-9.8.3-.2.8-.6,1.5-1.2.2-.2.2-.3,0-.4l-.5-.2c-.2,0-.3-.2-.3-.4-.3-4,0-8.2.6-12.7.3-2.1,1-3.5,1.5-5.3,0-.3.4-.4.7-.4s.2.1.3.2c.3.6.5,1.2.4,1.8-.7,4.9-1.1,10.1-1.2,15.7,0,1,.3,1.1.9.4.6-.7,1.4-.8,2.6-.5.2,0,.3.2.2.4v.2c-1,.8-2.1,1.8-3.2,2.4-1.5.7-2.5,1.9-4.1,2.6-1.9,1-3.8,2.3-5.6,3.9v.2h0c1.6-1.3,3.2-2.3,4.9-3.2,2.1-1,3.9-2.5,6.1-3.3.5-.2.7,0,.5.5l-.2.6c-.2.5-.6.9-1,1.1-1.5.6-2.5,1.1-3,1.5-3.6,2.3-7.3,4.7-10.9,7-2,1.2-3.7,2.7-5.6,4-.2,0-.3.3-.3.6l.4,14.8s0,.2.2.2h0c.8-.5,1.5-1.1,2-1.5,2.8-2.5,5.7-4.7,8.6-6.5,1.5-.9,3.2-1.4,4.6-2.5.3-.3.8-.2,1.1,0,0,0,.2.3.2.5s-.2.5-.6.8c-.5.4-1.2.7-1.8,1.3-1.6,1.7-3.6,3-5,4.5-1.4,1.4-3,2.1-4.1,3.7-.3.4-.9,1-1.8,1.8-.2.2-.5.3-.8.3s-.5-.3-.5-.6h0l.4-1q0-.2-.2,0h-.6,0ZM938.6,520.6h.5c.2,0,.3-.3.3-.4h-.5c-.2,0-.3.3-.3.4h0ZM943.1,538.2c-.9.7-1.4,1.1-1.3,1.2,0,0,.5-.3,1.5-1s1.4-1.1,1.3-1.2c0,0-.5.3-1.5,1Z"/>
            <path class="cls-2" d="M963.2,495.3h0c0,.1.2.1.2.1h0c0-.7.3-1.1.6-1.4.2-.1.4,0,.5,0v.2c-.3,4.5-.9,8.7-1.8,12.7-.7,2.9-.9,5.5-1.4,8.4h0v-5.4c0-.6,0-1.3-.2-1.9-.2-.8-.3-1.5-.3-2,0-5,.5-9.9,1.4-14.8,0-.4.3-.5.5-.1l.2.2c.2.2.3.5.2.7l-.2,3.1.2.2h0Z"/>
            <path class="cls-2" d="M963.9,538.7s0-.2-.2,0c-3.6,1.6-6.9,3.7-9.8,6.2-.2.2-.4.5-.4.9.3,5.2.3,10.4,0,15.4h0c0-.7-.4-1.4-1.1-2-.3-.3-.4-.6-.4-1v-.9c.2-.2,0-.4,0-.5,0-.2-.2-.4,0-.6v-.5c0-3.7,0-5.5-.3-8.2,0-.9,0-1.9.3-3.2,0-.2,0-.3-.3-.3-1.2,0-1.8.4-1.7,1.8.5,3.7.7,7.7.7,11.9s-.2.6-.6.9h-.3c-.3,0-.4,0-.4-.4-.2-4.7-.5-9.2-.9-13.3,0-.4,0-.8.3-1.3,0-.2.2-.3.4-.4,2-.8,3.2-2.6,5.1-3.4,2.5-1.1,6.2-3.5,9.8-4.7,1-.3,1.6,0,1.8,1,0,0,.3.4.8,1v.4c-.6.6-.9,1.7-1.1,3.1-.3,3.1-1.3,8-1.7,11.6-.2,2-.7,5-1.3,9s-.9,7.6-1.3,12.7c0,1.5-.4,3.1-.8,4.6,0,.2-.2.3-.4.2h0c-.9-.8-.8-1.5-.7-2.5.4-4.2.7-7.2.9-9.1,1.5-11.4,2.8-20.8,4-28.3h-.4,0ZM963.4,536.8s-.6,0-1.3.3c-.7.2-1.2.5-1.2.6,0,0,.6,0,1.3-.3s1.2-.5,1.2-.6ZM953.1,543.4s.6,0,1.2-.5c.5-.4.9-.9.8-1,0,0-.6,0-1.2.5-.5.4-.9.9-.8,1Z"/>
            <path class="cls-2" d="M982.4,579.7c-1.3,2.6-2.5,5.1-3.8,7.7-.7,1.4-1.6,2.7-2.6,3.8,0,0-.3.2-.5,0v-.3c0-.9.2-1.9.7-3,1.5-3.1,3-6.2,4.6-9.3,1.5-3.1,3.1-6.2,4.6-9.2.6-1.1,1.2-1.9,2-2.4h.3c.2,0,.3.2.2.4-.3,1.5-.8,3-1.5,4.4-1.3,2.6-2.6,5.2-3.8,7.7l-.2.2h0Z"/>
            <path class="cls-2" d="M978.7,576.9c-.5.6-1.2,1.1-2.3,1.5-.2,0-.3,0-.4-.2-.2-.6-.5-.8-.5-1.6,0-3.2,0-5.8.2-7.7,0-.5.2-1.2.5-1.9,0-.2.2-.3.4-.3s.5.2.8.4h1.1c.2,0,.3.2.3.4,0,1.3.3,3,0,4.5-.2,1.9,0,3.5.3,4.8,0,0,0,.2-.2,0h-.3v.2h.1Z"/>
            <path class="cls-2" d="M971.1,575.9l-1.6.9h-.5v-.2c0-3.1,0-5.9.6-8.2,0-.3.3-.6.6-.9.2,0,.4,0,.4.2,0,.4.3,1,.7,1.9.7,1.7,0,3.1.2,4.9,0,.5,0,1,.2,1.6,0,.1,0,.1-.2,0h0s-.2-.2-.3,0h0v-.2h-.1Z"/>
          </g>
          <g>
            <path d="M940.9,540.3c-1.3,1.1-2.7,1.6-2.1,3.7,0,.3.4.5.7.4,0,0,.2,0,.3-.2.6-.6.9-1,1-1.1.7-.7,1.7-1.2,2.5-2s.9-.9,1.2-1.1c2-1.5,3.9-3.1,5.9-4.6,1-.8,1.7-1.3,2.1-1.4,1.8-.4,2,0,.7,1.2-1.1,1-2.4,2.1-3.9,3.2-1.7,1.3-4.5,3.6-8.2,7-1,1-2.2,1.8-3.5,2.5-.2,0-.5,0-.6-.2h0l-.8-4.1v-.3c.2-.3.4-.5.4-.6v-.7c-.6-4-.8-6.7-.8-7.9,0-2.4,0-4.7-.4-7.1,0-.2-.2-.3-.3-.2h-.2c-.5.6-1.1,1.1-2,1.5-.2,0-.5,0-.6-.2v-.2c0-.5.2-.8.5-1.1s.2-.3,0-.4c-.2-.3-.2-.7,0-1.1,0-.2.2-.3.4-.4,1.3-.6,2.1-.8,2.1-2.3s0-.3-.3-.2h-.7c-.3,0-.4,0-.5-.3v-.5c0-.2.2-.3.4-.3.7-.2,1.3-.7,1.6-1.5v-1c-.2-3.7,0-7.5,1-11.5.2-.8.6-1,1.3-.6,0,0,.2.4.2.9.2,4.8.3,8.4.3,10.9s0,.3.3.3h0c5.3-3.1,10.5-6.3,15.5-9.8.3-.2.8-.6,1.5-1.2.2-.2.2-.3,0-.4l-.5-.2c-.2,0-.3-.2-.3-.4-.3-4,0-8.2.6-12.7.3-2.1,1-3.5,1.5-5.3,0-.3.4-.4.7-.4s.2.1.3.2c.3.6.5,1.2.4,1.8-.7,4.9-1.1,10.1-1.2,15.7,0,1,.3,1.1.9.4.6-.7,1.4-.8,2.6-.5.2,0,.3.2.2.4v.2c-1,.8-2.1,1.8-3.2,2.4-1.5.7-2.5,1.9-4.1,2.6-1.9,1-3.8,2.3-5.6,3.9v.2h0c1.6-1.3,3.2-2.3,4.9-3.2,2.1-1,3.9-2.5,6.1-3.3.5-.2.7,0,.5.5l-.2.6c-.2.5-.6.9-1,1.1-1.5.6-2.5,1.1-3,1.5-3.6,2.3-7.3,4.7-10.9,7-2,1.2-3.7,2.7-5.6,4-.2,0-.3.3-.3.6l.4,14.8s0,.2.2.2h0c.8-.5,1.5-1.1,2-1.5,2.8-2.5,5.7-4.7,8.6-6.5,1.5-.9,3.2-1.4,4.6-2.5.3-.3.8-.2,1.1,0,0,0,.2.3.2.5s-.2.5-.6.8c-.5.4-1.2.7-1.8,1.3-1.6,1.7-3.6,3-5,4.5-1.4,1.4-3,2.1-4.1,3.7-.3.4-.9,1-1.8,1.8-.2.2-.5.3-.8.3s-.5-.3-.5-.6h0l.4-1q0-.2-.2,0h-.6,0ZM938.6,520.6h.5c.2,0,.3-.3.3-.4h-.5c-.2,0-.3.3-.3.4h0ZM943.1,538.2c-.9.7-1.4,1.1-1.3,1.2,0,0,.5-.3,1.5-1s1.4-1.1,1.3-1.2c0,0-.5.3-1.5,1Z"/>
            <path d="M963.2,495.3h0c0,.1.2.1.2.1h0c0-.7.3-1.1.6-1.4.2-.1.4,0,.5,0v.2c-.3,4.5-.9,8.7-1.8,12.7-.7,2.9-.9,5.5-1.4,8.4h0v-5.4c0-.6,0-1.3-.2-1.9-.2-.8-.3-1.5-.3-2,0-5,.5-9.9,1.4-14.8,0-.4.3-.5.5-.1l.2.2c.2.2.3.5.2.7l-.2,3.1.2.2h0Z"/>
            <path d="M963.9,538.7s0-.2-.2,0c-3.6,1.6-6.9,3.7-9.8,6.2-.2.2-.4.5-.4.9.3,5.2.3,10.4,0,15.4h0c0-.7-.4-1.4-1.1-2-.3-.3-.4-.6-.4-1v-.9c.2-.2,0-.4,0-.5,0-.2-.2-.4,0-.6v-.5c0-3.7,0-5.5-.3-8.2,0-.9,0-1.9.3-3.2,0-.2,0-.3-.3-.3-1.2,0-1.8.4-1.7,1.8.5,3.7.7,7.7.7,11.9s-.2.6-.6.9h-.3c-.3,0-.4,0-.4-.4-.2-4.7-.5-9.2-.9-13.3,0-.4,0-.8.3-1.3,0-.2.2-.3.4-.4,2-.8,3.2-2.6,5.1-3.4,2.5-1.1,6.2-3.5,9.8-4.7,1-.3,1.6,0,1.8,1,0,0,.3.4.8,1v.4c-.6.6-.9,1.7-1.1,3.1-.3,3.1-1.3,8-1.7,11.6-.2,2-.7,5-1.3,9s-.9,7.6-1.3,12.7c0,1.5-.4,3.1-.8,4.6,0,.2-.2.3-.4.2h0c-.9-.8-.8-1.5-.7-2.5.4-4.2.7-7.2.9-9.1,1.5-11.4,2.8-20.8,4-28.3h-.4,0ZM963.4,536.8s-.6,0-1.3.3c-.7.2-1.2.5-1.2.6,0,0,.6,0,1.3-.3s1.2-.5,1.2-.6ZM953.1,543.4s.6,0,1.2-.5c.5-.4.9-.9.8-1,0,0-.6,0-1.2.5-.5.4-.9.9-.8,1Z"/>
            <path d="M982.4,579.7c-1.3,2.6-2.5,5.1-3.8,7.7-.7,1.4-1.6,2.7-2.6,3.8,0,0-.3.2-.5,0v-.3c0-.9.2-1.9.7-3,1.5-3.1,3-6.2,4.6-9.3,1.5-3.1,3.1-6.2,4.6-9.2.6-1.1,1.2-1.9,2-2.4h.3c.2,0,.3.2.2.4-.3,1.5-.8,3-1.5,4.4-1.3,2.6-2.6,5.2-3.8,7.7l-.2.2h0Z"/>
            <path d="M978.7,576.9c-.5.6-1.2,1.1-2.3,1.5-.2,0-.3,0-.4-.2-.2-.6-.5-.8-.5-1.6,0-3.2,0-5.8.2-7.7,0-.5.2-1.2.5-1.9,0-.2.2-.3.4-.3s.5.2.8.4h1.1c.2,0,.3.2.3.4,0,1.3.3,3,0,4.5-.2,1.9,0,3.5.3,4.8,0,0,0,.2-.2,0h-.3v.2h.1Z"/>
            <path d="M971.1,575.9l-1.6.9h-.5v-.2c0-3.1,0-5.9.6-8.2,0-.3.3-.6.6-.9.2,0,.4,0,.4.2,0,.4.3,1,.7,1.9.7,1.7,0,3.1.2,4.9,0,.5,0,1,.2,1.6,0,.1,0,.1-.2,0h0s-.2-.2-.3,0h0v-.2h-.1Z"/>
          </g>
        </g>
        <g id="lv2_x5F_004">
          <g>
            <path class="cls-3" d="M972,506.1c.3,1.9.6,4.2,1,6.8.2,1.6-.4,2.7-1.8,3.5h-.3c-1.6.5-2.4,0-2.7-1.6-.9-6.2-1.4-11.5-.5-17.1.2-1.2.8-2,1.9-2.6h.3c1-.6,1.6-.3,1.6.8,0,4.5.2,7.8.6,9.9v.2h0Z"/>
            <path class="cls-3" d="M978.9,507c.4,3.3.6,5.2.7,5.7.2,1.1,0,2.1-.2,3.1-.3.7-1,1-1.7.8-1.1-.4-1.3-3.1-1.4-4.3-.2-4-.2-7.2,0-9.4,0-1.6.3-3,.6-4.2.2-.6.5-1.2,1.1-1.5h.2c.6-.5.8-.4.8.3-.2,4.6-.2,7.7,0,9.4h0Z"/>
            <path class="cls-3" d="M958.1,525.6c.2.9.6,1,1.2.3,3.2-3.9,9.5-12.4,13.9-3.9v.4c-1,.9-2.2.7-3.3,0-1-.6-2-1.6-3.5-1.5-.2,0-.3,0-.4.2-.5.6-1.3,1.3-1.8,1.8-1.4,1.8-2.9,3.4-4.5,4.8-1,.9-2.2,1.2-3.4.9-.2,0-.3,0-.4-.3-.3-.6-.5-1.2-.6-1.7-.3-2.4-.2-5.4,0-8.5.2-2.6.5-4.8-.5-7.2,0-.2-.2-.3-.4-.3-.6-.1-1.2,0-1.8.3-3.3,1.7-6.1,3.6-8.4,5.7-.9.8-1.9,1.1-3,1-.7,0-.9-.5-.8-1.1.4-1.4,1.5-2.3,2.9-3.6,3.9-3.5,8-5.8,12.4-6.8,1.6-.4,2.7.2,3.5,1.8.3.6.3,1.6.2,3.2-.5,4-1.4,8.5-1.4,12.7s0,1.6.2,2.1v-.3h-.1Z"/>
            <path class="cls-3" d="M955.2,545.6c-.2.3,0,.6.2.7h0l5.5,2c.7.3,1.2.9,1.2,1.6h0c-.2.8-.6,1.2-1.3,1.1-1.1,0-2.4-.4-3.7-.9-2.2-.8-3.6-1.2-5.6-1.4-.7,0-.9-.5-.6-1.1,1.5-3.2,3.3-6.3,5.3-9.3,1.6-2.3,3.3-4.9,6-5.8.3,0,.7,0,.8.4h0c0,.5,0,.9-.3,1.2-2.7,3.7-5.2,7.6-7.5,11.5h0Z"/>
            <path class="cls-3" d="M965.9,556.8c-1.9,0-4.1.7-6.7,1.6-.5.2-.7,0-.6-.5v-.3c.2-.5.5-1,.9-1.2,2.5-1.4,5.2-2.1,8.1-2.3,1.4,0,2.2.6,2,2-.3,1.5-1.8,5.3-3.8,4.9-.4,0-.6-.4-.5-.8h0l1-2.8c0-.2,0-.5-.2-.5h-.2Z"/>
            <path class="cls-3" d="M962.9,567.6s.4-.3,1.1-.8c1.9-1.4,4-1.8,6.3-1.3,3.8.8,2.9,5.5,1.7,8-1.5,3.1-2.9,5.5-5.6,7.7-.3.3-.7.4-1.1.4,0,0-.2,0-.2-.2h0c2.5-2.7,4.3-5.6,5.5-9,.6-1.7,0-4.7-2.1-5.2-2.4-.6-4.4.7-6.3,2.4-1,.9-2.3-.2-3.2-.9-2.5-2-6.5-2.2-7.2,1.8-.2,1.2,0,3.1.6,4.4,1.8,4.2,5.9,7.1,10.3,8.2,1,.2,1.9.3,2.9.2,0,0,.2,0,.3.2h0c-.3.6-.8,1-1.4,1.1-6.6,1.8-14.1-3.8-15.7-10.2-.5-2.1,0-4,1.1-5.8,1.6-2.2,4-3.6,6.7-3.5,2.3,0,4.2.9,5.6,2.4h.7Z"/>
          </g>
          <g>
            <path d="M972,506.1c.3,1.9.6,4.2,1,6.8.2,1.6-.4,2.7-1.8,3.5h-.3c-1.6.5-2.4,0-2.7-1.6-.9-6.2-1.4-11.5-.5-17.1.2-1.2.8-2,1.9-2.6h.3c1-.6,1.6-.3,1.6.8,0,4.5.2,7.8.6,9.9v.2h0Z"/>
            <path d="M978.9,507c.4,3.3.6,5.2.7,5.7.2,1.1,0,2.1-.2,3.1-.3.7-1,1-1.7.8-1.1-.4-1.3-3.1-1.4-4.3-.2-4-.2-7.2,0-9.4,0-1.6.3-3,.6-4.2.2-.6.5-1.2,1.1-1.5h.2c.6-.5.8-.4.8.3-.2,4.6-.2,7.7,0,9.4h0Z"/>
            <path d="M958.1,525.6c.2.9.6,1,1.2.3,3.2-3.9,9.5-12.4,13.9-3.9v.4c-1,.9-2.2.7-3.3,0-1-.6-2-1.6-3.5-1.5-.2,0-.3,0-.4.2-.5.6-1.3,1.3-1.8,1.8-1.4,1.8-2.9,3.4-4.5,4.8-1,.9-2.2,1.2-3.4.9-.2,0-.3,0-.4-.3-.3-.6-.5-1.2-.6-1.7-.3-2.4-.2-5.4,0-8.5.2-2.6.5-4.8-.5-7.2,0-.2-.2-.3-.4-.3-.6-.1-1.2,0-1.8.3-3.3,1.7-6.1,3.6-8.4,5.7-.9.8-1.9,1.1-3,1-.7,0-.9-.5-.8-1.1.4-1.4,1.5-2.3,2.9-3.6,3.9-3.5,8-5.8,12.4-6.8,1.6-.4,2.7.2,3.5,1.8.3.6.3,1.6.2,3.2-.5,4-1.4,8.5-1.4,12.7s0,1.6.2,2.1v-.3h-.1Z"/>
            <path d="M955.2,545.6c-.2.3,0,.6.2.7h0l5.5,2c.7.3,1.2.9,1.2,1.6h0c-.2.8-.6,1.2-1.3,1.1-1.1,0-2.4-.4-3.7-.9-2.2-.8-3.6-1.2-5.6-1.4-.7,0-.9-.5-.6-1.1,1.5-3.2,3.3-6.3,5.3-9.3,1.6-2.3,3.3-4.9,6-5.8.3,0,.7,0,.8.4h0c0,.5,0,.9-.3,1.2-2.7,3.7-5.2,7.6-7.5,11.5h0Z"/>
            <path d="M965.9,556.8c-1.9,0-4.1.7-6.7,1.6-.5.2-.7,0-.6-.5v-.3c.2-.5.5-1,.9-1.2,2.5-1.4,5.2-2.1,8.1-2.3,1.4,0,2.2.6,2,2-.3,1.5-1.8,5.3-3.8,4.9-.4,0-.6-.4-.5-.8h0l1-2.8c0-.2,0-.5-.2-.5h-.2Z"/>
            <path d="M962.9,567.6s.4-.3,1.1-.8c1.9-1.4,4-1.8,6.3-1.3,3.8.8,2.9,5.5,1.7,8-1.5,3.1-2.9,5.5-5.6,7.7-.3.3-.7.4-1.1.4,0,0-.2,0-.2-.2h0c2.5-2.7,4.3-5.6,5.5-9,.6-1.7,0-4.7-2.1-5.2-2.4-.6-4.4.7-6.3,2.4-1,.9-2.3-.2-3.2-.9-2.5-2-6.5-2.2-7.2,1.8-.2,1.2,0,3.1.6,4.4,1.8,4.2,5.9,7.1,10.3,8.2,1,.2,1.9.3,2.9.2,0,0,.2,0,.3.2h0c-.3.6-.8,1-1.4,1.1-6.6,1.8-14.1-3.8-15.7-10.2-.5-2.1,0-4,1.1-5.8,1.6-2.2,4-3.6,6.7-3.5,2.3,0,4.2.9,5.6,2.4h.7Z"/>
          </g>
        </g>
        <g id="lv2_x5F_003">
          <g>
            <path class="cls-4" d="M964.6,514.5c-.4-2.7-6.8,9.1-9.2,9.2-9.1,1.7-3.9-12.1-3.2-16.5,0-.8.4-1.9-.4-2.1-1.9.1-3.1.3-3.5.6-1.5.7-7.2,4.3-7.2.8.7-3.4,7.8-3.3,10-4.4,4.3-1,5.5,2.5,4.7,6.1,0,.9-3.5,11.3-.7,10.8,2.4-2.6,4.9-5.6,7.6-8.9.2-.3,1.2-.7,2.9-1.3.2,0,.3-.2.2-.4-.4-3.1-.6-9,1.4-12.4,1.6-1.1,1.6,1.9,1.4,2.8-.6,3.9-.4,7.8.7,11.5.2.5-.7.5-.9.6-.7.9.5,2.7.8,4,.8,4.6-4.7,3.3-4.6-.5h0Z"/>
            <path class="cls-4" d="M971.4,511.8c-.3,0-.6-.3-.6-.6l.5-9.2c.5-3.7,0-5.9,2.1-5.4,1.4,1.1,0,12.3.2,14.8,0,.9-1.7.4-2.2.5h0Z"/>
            <path class="cls-4" d="M960.2,529.9c15.9,4.6,6.5,7-2,3.4-7.1-4.5,3.2-8.7,6.1-10.5,1.8-1.2,7.9-4,7.7-.8-1.2,1.2-3,2-4.8,2.8s-5.9,3.3-7.2,4.3-.3.7,0,.8h.2Z"/>
            <path class="cls-4" d="M977,548.2c0,.6-.8.5-1.2.5-2.5-.4-1.1-7.8-1.3-9.7,0-1.9.8-3.5,1.7-3.4.4,0,1.2,0,1.2.5l-.4,12.1h0Z"/>
            <path class="cls-4" d="M972,537.1c.2,4.3.3,6.5,1.4,9.6,0,.2,0,.5-.3.6-4.9-.7-4.2-4.7-4.1-10,0-1.9,2.9-2,2.9-.2h0Z"/>
            <path class="cls-4" d="M957.8,556.1c2.8-.5,5.3-3.2,6.7-5,1.1-1.8,1.7-2.9,3.8-2.7,1.9,0,2.1,2.5,3,3.6,1.7,0,.9,2.7.3,3-3.4,2.5-3.7-2.7-5-1.8-2.7,3.3-6.9,9.2-11.5,6.3-1.2-1.3-2-2.1-1.7-3.8.9-4,2.4-7.4,4.7-10.4.2-.2,0-.5,0-.7h-.3l-9.3-.4c-1,0-1.6-.6-1.7-1.6-.4-3.1,10.1-.3,11.9-.4,7.2,1.7-2.5,10.2-.9,14h0Z"/>
            <path class="cls-4" d="M957.6,569.9c-2.3,1.6,7.8,2.4,7.4,2.8,1.3.4,2.2,1,1.4,2.5-2.8,1.4-10.3-.9-11-.6-3.5-.6-3.4-5.6-.5-6.9,2.1-1.2,18-11.4,15-5.3-4.3,2.5-8.6,4.1-12.3,7.4h0Z"/>
            <path class="cls-4" d="M974.3,579.4c.2-2.6-7.1-.8-6.5-3.7.2-.9.7-1.4,1.6-1.4,4.4,0,8.8,1.9,8,6.4-1.6,3.8-5.3,2.9-3.1-1.3Z"/>
          </g>
          <g>
            <path d="M964.6,514.5c-.4-2.7-6.8,9.1-9.2,9.2-9.1,1.7-3.9-12.1-3.2-16.5,0-.8.4-1.9-.4-2.1-1.9.1-3.1.3-3.5.6-1.5.7-7.2,4.3-7.2.8.7-3.4,7.8-3.3,10-4.4,4.3-1,5.5,2.5,4.7,6.1,0,.9-3.5,11.3-.7,10.8,2.4-2.6,4.9-5.6,7.6-8.9.2-.3,1.2-.7,2.9-1.3.2,0,.3-.2.2-.4-.4-3.1-.6-9,1.4-12.4,1.6-1.1,1.6,1.9,1.4,2.8-.6,3.9-.4,7.8.7,11.5.2.5-.7.5-.9.6-.7.9.5,2.7.8,4,.8,4.6-4.7,3.3-4.6-.5h0Z"/>
            <path d="M971.4,511.8c-.3,0-.6-.3-.6-.6l.5-9.2c.5-3.7,0-5.9,2.1-5.4,1.4,1.1,0,12.3.2,14.8,0,.9-1.7.4-2.2.5h0Z"/>
            <path d="M960.2,529.9c15.9,4.6,6.5,7-2,3.4-7.1-4.5,3.2-8.7,6.1-10.5,1.8-1.2,7.9-4,7.7-.8-1.2,1.2-3,2-4.8,2.8s-5.9,3.3-7.2,4.3-.3.7,0,.8h.2Z"/>
            <path d="M977,548.2c0,.6-.8.5-1.2.5-2.5-.4-1.1-7.8-1.3-9.7,0-1.9.8-3.5,1.7-3.4.4,0,1.2,0,1.2.5l-.4,12.1h0Z"/>
            <path d="M972,537.1c.2,4.3.3,6.5,1.4,9.6,0,.2,0,.5-.3.6-4.9-.7-4.2-4.7-4.1-10,0-1.9,2.9-2,2.9-.2h0Z"/>
            <path d="M957.8,556.1c2.8-.5,5.3-3.2,6.7-5,1.1-1.8,1.7-2.9,3.8-2.7,1.9,0,2.1,2.5,3,3.6,1.7,0,.9,2.7.3,3-3.4,2.5-3.7-2.7-5-1.8-2.7,3.3-6.9,9.2-11.5,6.3-1.2-1.3-2-2.1-1.7-3.8.9-4,2.4-7.4,4.7-10.4.2-.2,0-.5,0-.7h-.3l-9.3-.4c-1,0-1.6-.6-1.7-1.6-.4-3.1,10.1-.3,11.9-.4,7.2,1.7-2.5,10.2-.9,14h0Z"/>
            <path d="M957.6,569.9c-2.3,1.6,7.8,2.4,7.4,2.8,1.3.4,2.2,1,1.4,2.5-2.8,1.4-10.3-.9-11-.6-3.5-.6-3.4-5.6-.5-6.9,2.1-1.2,18-11.4,15-5.3-4.3,2.5-8.6,4.1-12.3,7.4h0Z"/>
            <path d="M974.3,579.4c.2-2.6-7.1-.8-6.5-3.7.2-.9.7-1.4,1.6-1.4,4.4,0,8.8,1.9,8,6.4-1.6,3.8-5.3,2.9-3.1-1.3Z"/>
          </g>
        </g>
        <g id="lv2_x5F_002">
          <g>
            <path class="cls-4" d="M979.3,501.7c-.2.7-.2,1.7-.2,2.8s-.2.6-.6.6h-.2c-.3,0-.5-.3-.6-.6-.4-5.1-.5-9.9,1.4-14.5.2-.5.8-.8,1.4-.6,0,0,.2.1.3.2.3.3.4.7.3,1.2-.5,3.5-1.1,7.2-1.9,10.8h0Z"/>
            <path class="cls-4" d="M971.7,503.6h.2c.2.2.3.3.3.5,0,.8-.3,1.2-1,1-.2,0-.3-.1-.4-.2-1-1.1-1.7-2.3-2-3.7-.6-2.8-.6-5.5-.2-8,0-.4.4-.7.8-.7.7,0,1.1.3,1.2.9.3,2.5,0,6.4.9,9.8,0,.2,0,.3.3.4h0Z"/>
            <path class="cls-4" d="M956.6,510.8h0c-2.2-.4-7.8-1.4-8.7-3.6v-.5c.3-1.2,1-2.1,2.2-2.7,2.3-1.1,5-2.3,7.8-3.5.8-.4,1.6-.9,2.4-1.6v-.3h0c-6.7-1.7-12.7-1.4-20.4-1.1-.8,0-1.1-.4-1.1-1.3h0c0-.9.7-1.4,1.6-1.4,7.4-.7,14.4-.3,21.1,1.1.9.2,1.5.7,2,1.4,1.9,3.2-2,5.4-4.3,6.4-1.7.7-3.4,1.5-5.3,2.4-.2,0-.2.2,0,.3,0,.2.4.3.6.3,1.6.4,5,1.2,5.8,2.7,1.6,2.8-2.7,5.7-5,7.7-.4.3-.3.6.2.7l11,2c.2,0,.4.3.3.5h0c0,.5-.4.8-1,.8-1.5,0-2.6,0-3.8.4-2.9.6-7.5.9-10-1.2-3.6-2.9,2.8-7.5,4.6-9.2v-.3h0Z"/>
            <path class="cls-4" d="M963.3,525.4v.3h0c1.8.8,6.8,2.9,7.1,5.6,0,.3-.2.6-.5.6h-.3c-.7-.3-1-.7-1.8-.9-2.1-.5-4.1-1.3-6-2.5-1.6-1-2.9-3-1-4.6s4.6-2.4,7.3-3.5c2.4-.9,4.8-1.3,7.4-1.2.3,0,.5.2.5.5h0c0,.5-.2.8-.6.8-2.3.3-3.8.6-4.5.9-2.5,1-4.8,2.2-7.1,3.5-.2,0-.4.3-.6.4h0Z"/>
            <path class="cls-4" d="M953.2,542.2s.5.2,1.1.4c.5,0,1,.5,1.5,1.1,2,2.3-.2,4.3-1.9,6.4-.2.2-.2.6,0,.8h0c2.5,1.1,5,1.8,7.7,2,.2,0,.3,0,.3.3,0,.5,0,.8-.6.9-2.1.4-3.4.7-4.1.8-.8.2-1.9,0-3.4-.4-1.2-.4-2.1-1-2.6-1.9-1.8-2.9.3-4.7,2-6.8v-.2h0c-1.1-.3-2-.6-2.6-.9-2.1-.8-2.4-3.1-.5-4.4,1.2-.8,1.9-1.2,2.2-1.3,3.3-1.3,5.8-2.4,7.4-3.3.4-.2.4-.4,0-.6-4.8-1.8-9.7-2.8-14.9-2.8s-.9-.4-.9-1h0v-.2c0-.6.3-1,.9-1,1.8-.2,3.6,0,5.4,0,5.2.7,8.7,1.2,12.2,3.4,2,1.3.7,3.2-.8,4-2,1.2-4.5,2.3-7.3,3.4-.3,0-.7.4-1.2.8-.2,0,0,.2,0,.3h0v.2h0Z"/>
            <path class="cls-4" d="M971.2,539.6v2.6c0,.2,0,.3-.3.3s-.7,0-.9-.6c-.5-1.3-1.1-2.9-1-4.3,0-1.2,0-2.8,1.4-2.6.2,0,.4.2.5.4.4,1.4.5,2.7.3,4.1h0Z"/>
            <path class="cls-4" d="M966.6,537c0,3.2,0,5.3.8,6.6.2.3,0,.7-.2.9h-.2c-.2,0-.5,0-.7-.3-1.7-1.9-2.4-4.3-2-7.4,0-.7.5-1.1,1.2-1.1h0c.7,0,1.1.4,1.1,1.1v.2h0Z"/>
            <path class="cls-4" d="M962.2,558.3v.3h0c1.4.5,2.9,1,4.5,1.6,1.1.4,2.8,1.4,2.4,2.8,0,.4-.5.7-.9.6-2.8-.5-5.4-1.1-7.9-2-1.3-.5-3-1.3-2.6-3,.2-.6.6-1.2,1.3-1.6,0,0,2.5-1.5,7.2-4.5,1.9-1.2,3.5-1.8,5.5-2.1.2,0,.5,0,.5.4s0,.7-.4.9c-2.6,1.3-4.8,3.2-9.7,6.5h.1Z"/>
            <path class="cls-4" d="M969.9,573.3c1.1-1.7.2-2.4-1.3-3-1.6-.6-3.2-.6-4.7,0-.6.2-.9,0-.9-.7v-.4c0-.7.4-1.1,1.1-1.2,2.6-.3,4.6,0,6,.7,2.4,1.2,3,3.1,1.7,5.7-.8,1.5-2.1,2.6-4.2,3.4h-.8c-.2-.2-.3-.4-.4-.7,0-.2,0-.3.2-.4,1.2-.8,2.3-1.9,3.2-3.3h.1Z"/>
            <path class="cls-4" d="M959.4,576.8c1.7-.5,3.5-.6,5.2-.5.2,0,.3,0,.4.3.5.9.7,1.7.5,2.5-.5,3-2,5.8-4.1,8.2-.8.9-1.6,1.9-2.2,2.8-.3.5-1,.7-1.6.3h0c-.4-.4-.6-.6-1.1-.9-3.6-1.9-5.8-4.9-6.7-9.1-.4-2.1-.6-3.6-.6-4.7,0-1.7,1.4-3.9,3.3-4,2,0,4.3,3.2,5.5,4.6.4.4,1,.6,1.5.5h-.1ZM957.7,579c-.8-.3-1.3-.5-1.6-.9-1-1.3-2.1-2.5-3.3-3.4h-.5c-.4,1-.5,2.1-.3,3.3.6,3.5,2.4,7.7,5.6,9.3h.5c3.1-2.3,5.1-5.3,6.1-8.8,0-.4,0-.8-.5-1h-.4c-.9.2-1.9.5-3,1-.8.4-1.8.6-2.5.4h0Z"/>
          </g>
          <g>
            <path d="M979.3,501.7c-.2.7-.2,1.7-.2,2.8s-.2.6-.6.6h-.2c-.3,0-.5-.3-.6-.6-.4-5.1-.5-9.9,1.4-14.5.2-.5.8-.8,1.4-.6,0,0,.2.1.3.2.3.3.4.7.3,1.2-.5,3.5-1.1,7.2-1.9,10.8h0Z"/>
            <path d="M971.7,503.6h.2c.2.2.3.3.3.5,0,.8-.3,1.2-1,1-.2,0-.3-.1-.4-.2-1-1.1-1.7-2.3-2-3.7-.6-2.8-.6-5.5-.2-8,0-.4.4-.7.8-.7.7,0,1.1.3,1.2.9.3,2.5,0,6.4.9,9.8,0,.2,0,.3.3.4h0Z"/>
            <path d="M956.6,510.8h0c-2.2-.4-7.8-1.4-8.7-3.6v-.5c.3-1.2,1-2.1,2.2-2.7,2.3-1.1,5-2.3,7.8-3.5.8-.4,1.6-.9,2.4-1.6v-.3h0c-6.7-1.7-12.7-1.4-20.4-1.1-.8,0-1.1-.4-1.1-1.3h0c0-.9.7-1.4,1.6-1.4,7.4-.7,14.4-.3,21.1,1.1.9.2,1.5.7,2,1.4,1.9,3.2-2,5.4-4.3,6.4-1.7.7-3.4,1.5-5.3,2.4-.2,0-.2.2,0,.3,0,.2.4.3.6.3,1.6.4,5,1.2,5.8,2.7,1.6,2.8-2.7,5.7-5,7.7-.4.3-.3.6.2.7l11,2c.2,0,.4.3.3.5h0c0,.5-.4.8-1,.8-1.5,0-2.6,0-3.8.4-2.9.6-7.5.9-10-1.2-3.6-2.9,2.8-7.5,4.6-9.2v-.3h0Z"/>
            <path d="M963.3,525.4v.3h0c1.8.8,6.8,2.9,7.1,5.6,0,.3-.2.6-.5.6h-.3c-.7-.3-1-.7-1.8-.9-2.1-.5-4.1-1.3-6-2.5-1.6-1-2.9-3-1-4.6s4.6-2.4,7.3-3.5c2.4-.9,4.8-1.3,7.4-1.2.3,0,.5.2.5.5h0c0,.5-.2.8-.6.8-2.3.3-3.8.6-4.5.9-2.5,1-4.8,2.2-7.1,3.5-.2,0-.4.3-.6.4h0Z"/>
            <path d="M953.2,542.2s.5.2,1.1.4c.5,0,1,.5,1.5,1.1,2,2.3-.2,4.3-1.9,6.4-.2.2-.2.6,0,.8h0c2.5,1.1,5,1.8,7.7,2,.2,0,.3,0,.3.3,0,.5,0,.8-.6.9-2.1.4-3.4.7-4.1.8-.8.2-1.9,0-3.4-.4-1.2-.4-2.1-1-2.6-1.9-1.8-2.9.3-4.7,2-6.8v-.2h0c-1.1-.3-2-.6-2.6-.9-2.1-.8-2.4-3.1-.5-4.4,1.2-.8,1.9-1.2,2.2-1.3,3.3-1.3,5.8-2.4,7.4-3.3.4-.2.4-.4,0-.6-4.8-1.8-9.7-2.8-14.9-2.8s-.9-.4-.9-1h0v-.2c0-.6.3-1,.9-1,1.8-.2,3.6,0,5.4,0,5.2.7,8.7,1.2,12.2,3.4,2,1.3.7,3.2-.8,4-2,1.2-4.5,2.3-7.3,3.4-.3,0-.7.4-1.2.8-.2,0,0,.2,0,.3h0v.2h0Z"/>
            <path d="M971.2,539.6v2.6c0,.2,0,.3-.3.3s-.7,0-.9-.6c-.5-1.3-1.1-2.9-1-4.3,0-1.2,0-2.8,1.4-2.6.2,0,.4.2.5.4.4,1.4.5,2.7.3,4.1h0Z"/>
            <path d="M966.6,537c0,3.2,0,5.3.8,6.6.2.3,0,.7-.2.9h-.2c-.2,0-.5,0-.7-.3-1.7-1.9-2.4-4.3-2-7.4,0-.7.5-1.1,1.2-1.1h0c.7,0,1.1.4,1.1,1.1v.2h0Z"/>
            <path d="M962.2,558.3v.3h0c1.4.5,2.9,1,4.5,1.6,1.1.4,2.8,1.4,2.4,2.8,0,.4-.5.7-.9.6-2.8-.5-5.4-1.1-7.9-2-1.3-.5-3-1.3-2.6-3,.2-.6.6-1.2,1.3-1.6,0,0,2.5-1.5,7.2-4.5,1.9-1.2,3.5-1.8,5.5-2.1.2,0,.5,0,.5.4s0,.7-.4.9c-2.6,1.3-4.8,3.2-9.7,6.5h.1Z"/>
            <path d="M969.9,573.3c1.1-1.7.2-2.4-1.3-3-1.6-.6-3.2-.6-4.7,0-.6.2-.9,0-.9-.7v-.4c0-.7.4-1.1,1.1-1.2,2.6-.3,4.6,0,6,.7,2.4,1.2,3,3.1,1.7,5.7-.8,1.5-2.1,2.6-4.2,3.4h-.8c-.2-.2-.3-.4-.4-.7,0-.2,0-.3.2-.4,1.2-.8,2.3-1.9,3.2-3.3h.1Z"/>
            <path d="M959.4,576.8c1.7-.5,3.5-.6,5.2-.5.2,0,.3,0,.4.3.5.9.7,1.7.5,2.5-.5,3-2,5.8-4.1,8.2-.8.9-1.6,1.9-2.2,2.8-.3.5-1,.7-1.6.3h0c-.4-.4-.6-.6-1.1-.9-3.6-1.9-5.8-4.9-6.7-9.1-.4-2.1-.6-3.6-.6-4.7,0-1.7,1.4-3.9,3.3-4,2,0,4.3,3.2,5.5,4.6.4.4,1,.6,1.5.5h-.1ZM957.7,579c-.8-.3-1.3-.5-1.6-.9-1-1.3-2.1-2.5-3.3-3.4h-.5c-.4,1-.5,2.1-.3,3.3.6,3.5,2.4,7.7,5.6,9.3h.5c3.1-2.3,5.1-5.3,6.1-8.8,0-.4,0-.8-.5-1h-.4c-.9.2-1.9.5-3,1-.8.4-1.8.6-2.5.4h0Z"/>
          </g>
        </g>
        <g id="lv2_x5F_001">
          <g>
            <path class="cls-4" d="M971.5,523c0,.8.2,1.4.2,2.1s0,.4-.4.4h0c-1.7,0-2.7-1.8-2.6-3.3,0-1.4,0-3.3.2-4.7.2-2,.4-3.6.5-5,0-.6.4-.9,1.1-.8h0c.6.2,1,.7,1,1.3-.2,3.3-.2,6.7-.2,10h.2Z"/>
            <path class="cls-4" d="M967.2,525.4c.2,0,.3,0,.4.2.4.2.5.8,0,1.1h-.3c-1.4-.2-2.4-1-3-2.2-.6-1.3-.9-2.8-.9-4.2s-.2-6.8,1.5-7c.5,0,.7.2.8.6.4,1.6,0,3.2,0,4.8s.5,4.4,1,6.5c0,0,0,.2.2.2h.3Z"/>
            <path class="cls-4" d="M950.2,518c.2-.6,0-.8-.7-.7-1.8.4-3.6.9-5.4,1.6-1.6.6-5.1,2-10.6,4.4-.7.3-1.1,0-1.4-.6h0c-.3-.8,0-1.3.8-1.7,5.4-2.5,10.2-4.4,14.6-5.6,1.7-.5,3-.7,4-.6,4,0,.8,7.2-.3,9.8-1.1,2.7-1.9,5.6-2.2,8.5-.2,1.8,0,3.4.7,5,0,.2.2.3.4.2,2-.4,3.7-1.4,5-3.1,1.9-2.3,3.3-4.2,4.2-6.8.4-1.1.8-1.8,1.1-2.1,1.1-.9,2.6-.5,3.5.5,1.5,1.6,2.5,3.4,3,5.6,0,.4,0,.7-.4.9-2.2.9-3.8-.7-4.5-2.5,0-.2-.2-.2-.3,0-1.3,1.9-2.5,4.4-3.9,6-1.8,2.1-4.9,5.3-7.6,5.3s-3.9-2.3-4.2-5c-.4-3.3-.2-6.2.6-8.9.5-1.7,1.5-4.5,3-8.1.3-.8.5-1.5.7-2.1h0Z"/>
            <path class="cls-4" d="M958.3,547.2v.2h0c2.3.3,4.6.6,7.1.8.6,0,1.3.3,1.8.6.4.2.5.7.3,1.1l-.3.3c-.5.3-1.1.5-1.8.5-3.1.2-4.9.3-5.2.4-1.9.2-3.9.4-5.3-.8-3.2-2.5,1.3-5.8,3-7.1.7-.5,3.3-2.6,8-6.1,2.1-1.6,4.1,1.2,1.9,2.6-.3.2-1.5.9-3.6,2.3-2.3,1.5-4.2,3.1-5.7,4.8,0,.2-.2.3-.3.4h0Z"/>
            <path class="cls-4" d="M953.8,562.3c0,.4,0,.5.3.2,1.9-1.7,5.3-4,7.5-2l2.4,2.4c.3.3.7.4,1.1.2,1.7-.8,3-1.3,3.9-1.6,1.2-.4,1.5,0,1.2,1.2l-.2.6c-.3,1.2-1,2-2.1,2.6-1.3.7-2.2,1.1-2.8,1.2-1.7.4-2.9-.9-4.4-2.3-.6-.5-.8-1.4-1.3-1.8h-.4c-1.3.6-2.8,1.7-4.4,3.3-1.8,1.8-4.3,1.4-4.9-1.2,0-.3,0-.8.2-1.4.9-2.8,1.7-5.2,2.5-7.3,0-.2.3-.6.7-1.1.5-.7,1.2-1,1.9-.5,0,0,.2.2.2.3v1.5c-.8,2.3-1.3,4.2-1.6,5.7h.2,0Z"/>
            <path class="cls-4" d="M977.3,563.2s-.2-.3-.5-.4c-1.4-.8-2.8-1.1-4.2-1.1s-.9,0-1.2-.4c0,0-.2-.2-.2-.3,0-.7.3-1.1,1.1-1.3,1.8-.5,4.3.2,6,1.3.8.6,1.4,1.3,1.7,2.2.7,2.2.4,4.1-1.1,5.8-.7.7-1.5.9-2.4.6,0,0-.2,0-.3-.3-.6-1.5.6-2.3.9-3.6.2-.7.4-1.7.2-2.4h0Z"/>
          </g>
          <g>
            <path d="M971.5,523c0,.8.2,1.4.2,2.1s0,.4-.4.4h0c-1.7,0-2.7-1.8-2.6-3.3,0-1.4,0-3.3.2-4.7.2-2,.4-3.6.5-5,0-.6.4-.9,1.1-.8h0c.6.2,1,.7,1,1.3-.2,3.3-.2,6.7-.2,10h.2Z"/>
            <path d="M967.2,525.4c.2,0,.3,0,.4.2.4.2.5.8,0,1.1h-.3c-1.4-.2-2.4-1-3-2.2-.6-1.3-.9-2.8-.9-4.2s-.2-6.8,1.5-7c.5,0,.7.2.8.6.4,1.6,0,3.2,0,4.8s.5,4.4,1,6.5c0,0,0,.2.2.2h.3Z"/>
            <path d="M950.2,518c.2-.6,0-.8-.7-.7-1.8.4-3.6.9-5.4,1.6-1.6.6-5.1,2-10.6,4.4-.7.3-1.1,0-1.4-.6h0c-.3-.8,0-1.3.8-1.7,5.4-2.5,10.2-4.4,14.6-5.6,1.7-.5,3-.7,4-.6,4,0,.8,7.2-.3,9.8-1.1,2.7-1.9,5.6-2.2,8.5-.2,1.8,0,3.4.7,5,0,.2.2.3.4.2,2-.4,3.7-1.4,5-3.1,1.9-2.3,3.3-4.2,4.2-6.8.4-1.1.8-1.8,1.1-2.1,1.1-.9,2.6-.5,3.5.5,1.5,1.6,2.5,3.4,3,5.6,0,.4,0,.7-.4.9-2.2.9-3.8-.7-4.5-2.5,0-.2-.2-.2-.3,0-1.3,1.9-2.5,4.4-3.9,6-1.8,2.1-4.9,5.3-7.6,5.3s-3.9-2.3-4.2-5c-.4-3.3-.2-6.2.6-8.9.5-1.7,1.5-4.5,3-8.1.3-.8.5-1.5.7-2.1h0Z"/>
            <path d="M958.3,547.2v.2h0c2.3.3,4.6.6,7.1.8.6,0,1.3.3,1.8.6.4.2.5.7.3,1.1l-.3.3c-.5.3-1.1.5-1.8.5-3.1.2-4.9.3-5.2.4-1.9.2-3.9.4-5.3-.8-3.2-2.5,1.3-5.8,3-7.1.7-.5,3.3-2.6,8-6.1,2.1-1.6,4.1,1.2,1.9,2.6-.3.2-1.5.9-3.6,2.3-2.3,1.5-4.2,3.1-5.7,4.8,0,.2-.2.3-.3.4h0Z"/>
            <path d="M953.8,562.3c0,.4,0,.5.3.2,1.9-1.7,5.3-4,7.5-2l2.4,2.4c.3.3.7.4,1.1.2,1.7-.8,3-1.3,3.9-1.6,1.2-.4,1.5,0,1.2,1.2l-.2.6c-.3,1.2-1,2-2.1,2.6-1.3.7-2.2,1.1-2.8,1.2-1.7.4-2.9-.9-4.4-2.3-.6-.5-.8-1.4-1.3-1.8h-.4c-1.3.6-2.8,1.7-4.4,3.3-1.8,1.8-4.3,1.4-4.9-1.2,0-.3,0-.8.2-1.4.9-2.8,1.7-5.2,2.5-7.3,0-.2.3-.6.7-1.1.5-.7,1.2-1,1.9-.5,0,0,.2.2.2.3v1.5c-.8,2.3-1.3,4.2-1.6,5.7h.2,0Z"/>
            <path d="M977.3,563.2s-.2-.3-.5-.4c-1.4-.8-2.8-1.1-4.2-1.1s-.9,0-1.2-.4c0,0-.2-.2-.2-.3,0-.7.3-1.1,1.1-1.3,1.8-.5,4.3.2,6,1.3.8.6,1.4,1.3,1.7,2.2.7,2.2.4,4.1-1.1,5.8-.7.7-1.5.9-2.4.6,0,0-.2,0-.3-.3-.6-1.5.6-2.3.9-3.6.2-.7.4-1.7.2-2.4h0Z"/>
          </g>
        </g>
        <g id="lv1_x5F_003">
          <g>
            <path class="cls-4" d="M959.1,529.2c.3-.3.3-.4,0-.4-2.7,0-5.4,0-8.1.2-1.3,0-2.8,0-3.1-1.3-.3-1.4.6-3.2,2-4.2.3-.2.3-.4,0-.7-4.2-5.1-7-10.6-6.9-12.1,0-.4.3-.9.8-1.4,0-.1.3-.2.4-.2.9,0,1.4.5,1.6,1.4,1.4,4.9,5.4,9,6.3,10.3.2.2.5.3.7,0h0c.6-.5,1-1.2,1.6-1.7,2.3-1.9,4.6-3.7,6.8-5.3,1-.7,3.2-1.8,4.3-1.3.5.2.7.8.4,1.3h0c-.5.7-1,1.2-1.7,1.6-2.9,1.7-5.7,3.9-8.5,6.6-.8.7-1.1,1.6-2.1,2.2-1,.5-.9.8.2.9,1.8,0,4.5.2,8,.3,1.5,0,2.8.7,2.7,2.4,0,1.2-.6,2-1.3,2.5-2.7,1.9-4.8,3.3-6.4,4.4,0,0-.2.2-.2.3,0,.3,0,.5.3.5,3.4.8,6,0,8.5,1.2.3.2.5.5.4.8-.4,2.5-8.8,1.8-10.6,1.7-1.2,0-2.5-1.2-2.8-2.4-.3-1.4,0-2.5,1.4-3.6,3.2-2.5,4.9-3.9,5.3-4.2v.2h0Z"/>
            <path class="cls-4" d="M968,527.4c-.2-.5-.8-1-.8-1.5-.3-2.3-.8-5.4-.2-7.6,0-.3.3-.6.7-.7.9-.2,1.4.2,1.5,1.3.4,4.3.4,6.4,1.7,9.4,0,.2,0,.5-.2.6h-.2c-1.1,0-1.9-.6-2.4-1.7v.2h0Z"/>
            <path class="cls-4" d="M974.2,515.8c.4,0,.8,0,.9.5l1.9,8.3c.4,1.8,0,3.4-.9,3.7h0c-.9.2-2-1.1-2.4-2.9l-1.9-8.3c0-.4.2-.8.6-.9l1.8-.4h0Z"/>
            <path class="cls-4" d="M952.6,552.4c-.4.3-.4.9,0,1.3h0c.4.4.8.6,1.3.8,2.7,1.2,4.5,2,5.5,2.5.5.2.7.6.8,1.2,0,1-1.2,1.3-2,1.2-2.3-.2-5.1-1.7-6.9-2.5-2.5-1.1-3.6-2.1-2.3-4.9.7-1.5,8.3-6.7,8.7-6.9.5-.3,2-1.5,3.2-1.6.5,0,.8,0,1,.3.4.6.3,1.1-.3,1.5-1.4.9-3.7,3-5.3,3.9-1.4.8-2.3,1.8-3.7,3.2h0Z"/>
            <path class="cls-4" d="M964.4,567.8c-.9-3.2-13,1.1-9.3-2.8,4.9-2.1,16.7-1.7,11,5.5-.8,1.2-3.3,1.9-2.8.2,0-.4,1.5-2.6,1.2-3h-.1Z"/>
          </g>
          <g>
            <path d="M959.1,529.2c.3-.3.3-.4,0-.4-2.7,0-5.4,0-8.1.2-1.3,0-2.8,0-3.1-1.3-.3-1.4.6-3.2,2-4.2.3-.2.3-.4,0-.7-4.2-5.1-7-10.6-6.9-12.1,0-.4.3-.9.8-1.4,0-.1.3-.2.4-.2.9,0,1.4.5,1.6,1.4,1.4,4.9,5.4,9,6.3,10.3.2.2.5.3.7,0h0c.6-.5,1-1.2,1.6-1.7,2.3-1.9,4.6-3.7,6.8-5.3,1-.7,3.2-1.8,4.3-1.3.5.2.7.8.4,1.3h0c-.5.7-1,1.2-1.7,1.6-2.9,1.7-5.7,3.9-8.5,6.6-.8.7-1.1,1.6-2.1,2.2-1,.5-.9.8.2.9,1.8,0,4.5.2,8,.3,1.5,0,2.8.7,2.7,2.4,0,1.2-.6,2-1.3,2.5-2.7,1.9-4.8,3.3-6.4,4.4,0,0-.2.2-.2.3,0,.3,0,.5.3.5,3.4.8,6,0,8.5,1.2.3.2.5.5.4.8-.4,2.5-8.8,1.8-10.6,1.7-1.2,0-2.5-1.2-2.8-2.4-.3-1.4,0-2.5,1.4-3.6,3.2-2.5,4.9-3.9,5.3-4.2v.2h0Z"/>
            <path d="M968,527.4c-.2-.5-.8-1-.8-1.5-.3-2.3-.8-5.4-.2-7.6,0-.3.3-.6.7-.7.9-.2,1.4.2,1.5,1.3.4,4.3.4,6.4,1.7,9.4,0,.2,0,.5-.2.6h-.2c-1.1,0-1.9-.6-2.4-1.7v.2h0Z"/>
            <path d="M974.2,515.8c.4,0,.8,0,.9.5l1.9,8.3c.4,1.8,0,3.4-.9,3.7h0c-.9.2-2-1.1-2.4-2.9l-1.9-8.3c0-.4.2-.8.6-.9l1.8-.4h0Z"/>
            <path d="M952.6,552.4c-.4.3-.4.9,0,1.3h0c.4.4.8.6,1.3.8,2.7,1.2,4.5,2,5.5,2.5.5.2.7.6.8,1.2,0,1-1.2,1.3-2,1.2-2.3-.2-5.1-1.7-6.9-2.5-2.5-1.1-3.6-2.1-2.3-4.9.7-1.5,8.3-6.7,8.7-6.9.5-.3,2-1.5,3.2-1.6.5,0,.8,0,1,.3.4.6.3,1.1-.3,1.5-1.4.9-3.7,3-5.3,3.9-1.4.8-2.3,1.8-3.7,3.2h0Z"/>
            <path d="M964.4,567.8c-.9-3.2-13,1.1-9.3-2.8,4.9-2.1,16.7-1.7,11,5.5-.8,1.2-3.3,1.9-2.8.2,0-.4,1.5-2.6,1.2-3h-.1Z"/>
          </g>
        </g>
        <g id="lv1_x5F_002">
          <g>
            <path class="cls-6" d="M970,525.8c-7.1-1.8-2.9-12,0-15.9s4.3-4.3,7.4-3.9c4.6.7,5.6,4.5,4.6,8.6s-6.8,11.7-11.8,11.2h-.2ZM976.7,509.3c-4.6-1.8-9.9,10.4-6.2,12,5,.8,13.5-10.9,6.2-12Z"/>
            <path class="cls-6" d="M949.1,531.1c-11.4-3,1.8-17.9-2.9-20.8-3.3.3-6.4.9-6.6.9-1.2,0-1.3.6-1.8-.9,3.1-3,9.5-4.4,12.5-1.5,2.4,5.2-3.7,12.6-1.4,17.5,1.8,2.1,6.4-1.6,7-2.8,5.7-7.8,6.1-2.8,9.3,1.9,0,2.1-1.3,2.4-2.8,2.2-.8-.2-1.5-1.5-1.9-2.3-2.1-2.5-6.7,7.3-11.4,5.8h0Z"/>
            <path class="cls-6" d="M959.2,550.4c-4.2-1.1-10.1-4.3-10.7-4.5-3.9-2.4.7-6.1,3.7-6.9,7.4-1.9,11.8-2.1,17.5-1.8,1.6,1.6-2.8,2-3.4,2-1.7.3-11.7.8-14,3s-.5,1,.6,1.9c2.4.9,5.1,2.2,7.1,3.6.9.7,1.8,1.9,1.1,2.4s-1.5.3-2,.2h.1Z"/>
            <path class="cls-6" d="M956.2,564c-.3,0-.5-.2-.7-.3-.5-.5-.4-1.4.2-1.9.3-.3.8-.5,1.3-.4s.5.2.7.3c.5.5.4,1.4-.2,1.9-.3.3-.8.5-1.3.4Z"/>
            <path class="cls-6" d="M956,574.1c-.5,0-.9-.3-.9-.6s0-.4.3-.7.7-.6,1.3-.7h1c.5,0,.9.3.9.6s0,.4-.3.7-.7.6-1.3.7h-1Z"/>
          </g>
          <g>
            <path d="M970,525.8c-7.1-1.8-2.9-12,0-15.9s4.3-4.3,7.4-3.9c4.6.7,5.6,4.5,4.6,8.6s-6.8,11.7-11.8,11.2h-.2ZM976.7,509.3c-4.6-1.8-9.9,10.4-6.2,12,5,.8,13.5-10.9,6.2-12Z"/>
            <path d="M949.1,531.1c-11.4-3,1.8-17.9-2.9-20.8-3.3.3-6.4.9-6.6.9-1.2,0-1.3.6-1.8-.9,3.1-3,9.5-4.4,12.5-1.5,2.4,5.2-3.7,12.6-1.4,17.5,1.8,2.1,6.4-1.6,7-2.8,5.7-7.8,6.1-2.8,9.3,1.9,0,2.1-1.3,2.4-2.8,2.2-.8-.2-1.5-1.5-1.9-2.3-2.1-2.5-6.7,7.3-11.4,5.8h0Z"/>
            <path d="M959.2,550.4c-4.2-1.1-10.1-4.3-10.7-4.5-3.9-2.4.7-6.1,3.7-6.9,7.4-1.9,11.8-2.1,17.5-1.8,1.6,1.6-2.8,2-3.4,2-1.7.3-11.7.8-14,3s-.5,1,.6,1.9c2.4.9,5.1,2.2,7.1,3.6.9.7,1.8,1.9,1.1,2.4s-1.5.3-2,.2h.1Z"/>
            <path d="M956.2,564c-.3,0-.5-.2-.7-.3-.5-.5-.4-1.4.2-1.9.3-.3.8-.5,1.3-.4s.5.2.7.3c.5.5.4,1.4-.2,1.9-.3.3-.8.5-1.3.4Z"/>
            <path d="M956,574.1c-.5,0-.9-.3-.9-.6s0-.4.3-.7.7-.6,1.3-.7h1c.5,0,.9.3.9.6s0,.4-.3.7-.7.6-1.3.7h-1Z"/>
          </g>
        </g>
        <g id="lv1_x5F_001">
          <g>
            <path class="cls-4" d="M971.5,523c0,.8.2,1.4.2,2.1s0,.4-.4.4h0c-1.7,0-2.7-1.8-2.6-3.3,0-1.4,0-3.3.2-4.7.2-2,.4-3.6.5-5,0-.6.4-.9,1.1-.8h0c.6.2,1,.7,1,1.3-.2,3.3-.2,6.7-.2,10h.2Z"/>
            <path class="cls-4" d="M967.2,525.4c.2,0,.3,0,.4.2.4.2.5.8,0,1.1h-.3c-1.4-.2-2.4-1-3-2.2-.6-1.3-.9-2.8-.9-4.2s-.2-6.8,1.5-7c.5,0,.7.2.8.6.4,1.6,0,3.2,0,4.8s.5,4.4,1,6.5c0,0,0,.2.2.2h.3Z"/>
            <path class="cls-4" d="M950.2,518c.2-.6,0-.8-.7-.7-1.8.4-3.6.9-5.4,1.6-1.6.6-5.1,2-10.6,4.4-.7.3-1.1,0-1.4-.6h0c-.3-.8,0-1.3.8-1.7,5.4-2.5,10.2-4.4,14.6-5.6,1.7-.5,3-.7,4-.6,4,0,.8,7.2-.3,9.8-1.1,2.7-1.9,5.6-2.2,8.5-.2,1.8,0,3.4.7,5,0,.2.2.3.4.2,2-.4,3.7-1.4,5-3.1,1.9-2.3,3.3-4.2,4.2-6.8.4-1.1.8-1.8,1.1-2.1,1.1-.9,2.6-.5,3.5.5,1.5,1.6,2.5,3.4,3,5.6,0,.4,0,.7-.4.9-2.2.9-3.8-.7-4.5-2.5,0-.2-.2-.2-.3,0-1.3,1.9-2.5,4.4-3.9,6-1.8,2.1-4.9,5.3-7.6,5.3s-3.9-2.3-4.2-5c-.4-3.3-.2-6.2.6-8.9.5-1.7,1.5-4.5,3-8.1.3-.8.5-1.5.7-2.1h0Z"/>
            <path class="cls-4" d="M958.3,547.2v.2h0c2.3.3,4.6.6,7.1.8.6,0,1.3.3,1.8.6.4.2.5.7.3,1.1l-.3.3c-.5.3-1.1.5-1.8.5-3.1.2-4.9.3-5.2.4-1.9.2-3.9.4-5.3-.8-3.2-2.5,1.3-5.8,3-7.1.7-.5,3.3-2.6,8-6.1,2.1-1.6,4.1,1.2,1.9,2.6-.3.2-1.5.9-3.6,2.3-2.3,1.5-4.2,3.1-5.7,4.8,0,.2-.2.3-.3.4h0Z"/>
            <path class="cls-4" d="M953.8,562.3c0,.4,0,.5.3.2,1.9-1.7,5.3-4,7.5-2l2.4,2.4c.3.3.7.4,1.1.2,1.7-.8,3-1.3,3.9-1.6,1.2-.4,1.5,0,1.2,1.2l-.2.6c-.3,1.2-1,2-2.1,2.6-1.3.7-2.2,1.1-2.8,1.2-1.7.4-2.9-.9-4.4-2.3-.6-.5-.8-1.4-1.3-1.8h-.4c-1.3.6-2.8,1.7-4.4,3.3-1.8,1.8-4.3,1.4-4.9-1.2,0-.3,0-.8.2-1.4.9-2.8,1.7-5.2,2.5-7.3,0-.2.3-.6.7-1.1.5-.7,1.2-1,1.9-.5,0,0,.2.2.2.3v1.5c-.8,2.3-1.3,4.2-1.6,5.7h.2,0Z"/>
            <path class="cls-4" d="M977.3,563.2s-.2-.3-.5-.4c-1.4-.8-2.8-1.1-4.2-1.1s-.9,0-1.2-.4c0,0-.2-.2-.2-.3,0-.7.3-1.1,1.1-1.3,1.8-.5,4.3.2,6,1.3.8.6,1.4,1.3,1.7,2.2.7,2.2.4,4.1-1.1,5.8-.7.7-1.5.9-2.4.6,0,0-.2,0-.3-.3-.6-1.5.6-2.3.9-3.6.2-.7.4-1.7.2-2.4h0Z"/>
          </g>
          <g>
            <path d="M971.5,523c0,.8.2,1.4.2,2.1s0,.4-.4.4h0c-1.7,0-2.7-1.8-2.6-3.3,0-1.4,0-3.3.2-4.7.2-2,.4-3.6.5-5,0-.6.4-.9,1.1-.8h0c.6.2,1,.7,1,1.3-.2,3.3-.2,6.7-.2,10h.2Z"/>
            <path d="M967.2,525.4c.2,0,.3,0,.4.2.4.2.5.8,0,1.1h-.3c-1.4-.2-2.4-1-3-2.2-.6-1.3-.9-2.8-.9-4.2s-.2-6.8,1.5-7c.5,0,.7.2.8.6.4,1.6,0,3.2,0,4.8s.5,4.4,1,6.5c0,0,0,.2.2.2h.3Z"/>
            <path d="M950.2,518c.2-.6,0-.8-.7-.7-1.8.4-3.6.9-5.4,1.6-1.6.6-5.1,2-10.6,4.4-.7.3-1.1,0-1.4-.6h0c-.3-.8,0-1.3.8-1.7,5.4-2.5,10.2-4.4,14.6-5.6,1.7-.5,3-.7,4-.6,4,0,.8,7.2-.3,9.8-1.1,2.7-1.9,5.6-2.2,8.5-.2,1.8,0,3.4.7,5,0,.2.2.3.4.2,2-.4,3.7-1.4,5-3.1,1.9-2.3,3.3-4.2,4.2-6.8.4-1.1.8-1.8,1.1-2.1,1.1-.9,2.6-.5,3.5.5,1.5,1.6,2.5,3.4,3,5.6,0,.4,0,.7-.4.9-2.2.9-3.8-.7-4.5-2.5,0-.2-.2-.2-.3,0-1.3,1.9-2.5,4.4-3.9,6-1.8,2.1-4.9,5.3-7.6,5.3s-3.9-2.3-4.2-5c-.4-3.3-.2-6.2.6-8.9.5-1.7,1.5-4.5,3-8.1.3-.8.5-1.5.7-2.1h0Z"/>
            <path d="M958.3,547.2v.2h0c2.3.3,4.6.6,7.1.8.6,0,1.3.3,1.8.6.4.2.5.7.3,1.1l-.3.3c-.5.3-1.1.5-1.8.5-3.1.2-4.9.3-5.2.4-1.9.2-3.9.4-5.3-.8-3.2-2.5,1.3-5.8,3-7.1.7-.5,3.3-2.6,8-6.1,2.1-1.6,4.1,1.2,1.9,2.6-.3.2-1.5.9-3.6,2.3-2.3,1.5-4.2,3.1-5.7,4.8,0,.2-.2.3-.3.4h0Z"/>
            <path d="M953.8,562.3c0,.4,0,.5.3.2,1.9-1.7,5.3-4,7.5-2l2.4,2.4c.3.3.7.4,1.1.2,1.7-.8,3-1.3,3.9-1.6,1.2-.4,1.5,0,1.2,1.2l-.2.6c-.3,1.2-1,2-2.1,2.6-1.3.7-2.2,1.1-2.8,1.2-1.7.4-2.9-.9-4.4-2.3-.6-.5-.8-1.4-1.3-1.8h-.4c-1.3.6-2.8,1.7-4.4,3.3-1.8,1.8-4.3,1.4-4.9-1.2,0-.3,0-.8.2-1.4.9-2.8,1.7-5.2,2.5-7.3,0-.2.3-.6.7-1.1.5-.7,1.2-1,1.9-.5,0,0,.2.2.2.3v1.5c-.8,2.3-1.3,4.2-1.6,5.7h.2,0Z"/>
            <path d="M977.3,563.2s-.2-.3-.5-.4c-1.4-.8-2.8-1.1-4.2-1.1s-.9,0-1.2-.4c0,0-.2-.2-.2-.3,0-.7.3-1.1,1.1-1.3,1.8-.5,4.3.2,6,1.3.8.6,1.4,1.3,1.7,2.2.7,2.2.4,4.1-1.1,5.8-.7.7-1.5.9-2.4.6,0,0-.2,0-.3-.3-.6-1.5.6-2.3.9-3.6.2-.7.4-1.7.2-2.4h0Z"/>
          </g>
        </g>
      </g>
    </g>
  </g>
</svg>