<?xml version="1.0" encoding="UTF-8"?>
<svg xmlns="http://www.w3.org/2000/svg" version="1.1" viewBox="0 0 1920 1080">
  <defs>
    <style>
      .cls-1 {
        fill: #fff;
        stroke: #fff;
        stroke-linecap: round;
        stroke-linejoin: round;
        stroke-width: 4px;
      }

      .cls-2 {
        fill: #f96;
      }
    </style>
  </defs>
  <!-- Generator: Adobe Illustrator 28.7.10, SVG Export Plug-In . SVG Version: 1.2.0 Build 236)  -->
  <g>
    <g id="specific">
      <g id="_x2A_bg">
        <g id="_x2A_bg-2" data-name="_x2A_bg">
          <rect class="cls-2" x="890.8" y="441.4" width="138.4" height="197.3"/>
        </g>
      </g>
      <g id="paizuri_x5F_002">
        <g>
          <g>
            <path class="cls-1" d="M960.1,532.9c0-.2,0-.4-.2-.4-.1,0-.3,0-.3,0l-5.9,4.8c-.4.3-.7.8-.8,1.3-.2,1.1-.3,1.7-.4,1.9-.3.9-1.2,1.4-2.2,1.1,0,0-.1,0-.2,0-.9-.4-1.3-1.2-1-2.6.5-3.6,1-6.2,1.4-7.9,0-.2-.1-.5-.4-.6-.1,0-.2,0-.3,0l-4.9,2.8c-.7.4-1.6.3-2.3-.2h-.1c-.6-.9-.5-1.9.3-2.5,0,0,.2-.1.2-.2l8-4.4c.1,0,.2-.2.3-.4.8-3.1,1.3-5,1.5-5.7.5-1.6,1.4-2,2.9-1.3.4.2.7.6.7,1.1,0,1.4-.4,2.7-1,4,0,.1,0,.3.1.4,0,0,.2,0,.2,0,.7-.3,2.9-1.3,6.6-3,1.3-.6,3-.7,3.6,1,.3.8,0,1.5-.9,2.2-.2.1-.4.2-.6.2-1.1.2-1.8.3-2.1.4-2.1.8-4.6,1.8-7.5,3.1-.2.1-.4.3-.5.6l-.9,4.4c0,.2,0,.3.2.3,0,0,.2,0,.3,0,1.6-1.3,9.6-8,9.6-1.8,0,.2,0,.4-.1.6-2.6,4.5-4.9,9.4-7,14.8-.3.7-1,1-1.7.7,0,0-.1,0-.2,0h0c-.7-.4-.9-1.3-.6-2l6.2-12.8Z"/>
            <path class="cls-1" d="M966.2,543.7c0,.2,0,.4.2.4,0,0,.2,0,.3,0,1.3-.8,2.4-1.8,3.2-2.8,0,0,.1-.2.1-.3l.7-9.6c0-.6.5-1,1.1-1.1h.1c.6,0,1.1.5,1.1,1.1,0,0,0,0,0,.1l-.8,7c0,.2,0,.3.2.3,0,0,.1,0,.2,0,1.4-1,2.4-1.6,3.1-2,.7-.4,1.5-.2,1.8.3,0,0,0,.1,0,.2.3.9.3,1.6-.4,2.4-1.4,1.8-2.5,3.8-3.4,6,0,.2-.3.4-.6.4h-.9c-.2,0-.4.2-.4.4v5.5c0,.5-.4.9-.9.9h-.2c-.4,0-.8-.3-.9-.7-.3-1.8-.4-3.3-.3-4.3.2-1.3.3-2.2.4-2.6,0-.2-.1-.4-.3-.4-.1,0-.2,0-.3.1l-3,3c-.2.2-.3.6-.2.9.4.9,0,1.6-1,2.2-.7.4-1.6.3-2-.3-.4-.6-.7-1.2-.9-1.9,0-.2,0-.4,0-.6.4-2.3.6-4.9.6-7.7,0-.8.5-1.6,1.3-1.9.9-.4,2.1,0,2.4,1.1.3,1.2.2,2.5-.3,4ZM972.9,541.6c-.2-.1-.6.1-.8.5-.2.4-.3.9,0,1,0,0,0,0,0,0,.2.1.6-.1.8-.5.2-.4.3-.9,0-1,0,0,0,0,0,0Z"/>
            <path class="cls-1" d="M964.8,562.1l-5.4,3.7c-.2.1-.3.3-.3.4h0c-.2.7-.8.9-1.4.7-.3-.1-.5-.4-.6-.7-1.1-3.7,7.1-7.7,10.1-8.7.8-.3,1.5-.2,2.1.1.8.4,1.1,1.3.8,2.1,0,0,0,.1-.1.2-1.3,1.7-2.4,3.9-3.4,6.6-.2.7-1,1-1.7.8,0,0,0,0,0,0h0c-.7-.2-1.1-1-.8-1.7,0,0,0-.2,0-.2l1.5-2.7c.1-.2,0-.5-.2-.6-.2,0-.3,0-.5,0Z"/>
            <path class="cls-1" d="M959.2,578.7c.2.3.5.4.8.2,0,0,.1,0,.2-.1,1.9-2.3,7.2-5.8,8.9-1.6,1.1,2.7-.9,8.1-2.2,11.2-1.5,3.6-3.4,7.8-5.5,12.3,0,.1-.1.3-.1.4l-.5,2.1c0,0,0,.1,0,.2l-1.9,3.4c-.3.6-1.1.9-1.7.8h-.1c-.6-.1-1-.8-.9-1.4,0,0,0-.2,0-.3l.8-1.7c.1-.2,0-.5-.2-.6-5.8-3.5-7.9-12.9-7.9-19.3,0-3.3,1.5-7.4,5.1-8.2,2.4-.5,4.1.4,5.3,2.5ZM959.1,600.8s.1-.2.3-.6c1.3-2.8,2.9-6.5,4.8-10.9,1.4-3.5,3-7.6,2.4-11.1,0-.2-.2-.4-.5-.3,0,0,0,0,0,0-1.8.7-3.4,2-4.7,3.9-.1.2-.2.4-.2.6,0,.6,0,1.1,0,1.5,0,.7-.5,1.4-1.3,1.6-1.4.5-2.1-.8-2.5-2-.5-1.5-1.1-2.8-1.9-3.7-.2-.3-.6-.3-1-.2-1.7,1-2.4,2.1-2.6,4.2-.5,6.4,1.4,12.1,5.8,17,.3.4.9.4,1.3,0,0,0,0,0,0,0Z"/>
          </g>
          <g>
            <path d="M960.1,532.9c0-.2,0-.4-.2-.4-.1,0-.3,0-.3,0l-5.9,4.8c-.4.3-.7.8-.8,1.3-.2,1.1-.3,1.7-.4,1.9-.3.9-1.2,1.4-2.2,1.1,0,0-.1,0-.2,0-.9-.4-1.3-1.2-1-2.6.5-3.6,1-6.2,1.4-7.9,0-.2-.1-.5-.4-.6-.1,0-.2,0-.3,0l-4.9,2.8c-.7.4-1.6.3-2.3-.2h-.1c-.6-.9-.5-1.9.3-2.5,0,0,.2-.1.2-.2l8-4.4c.1,0,.2-.2.3-.4.8-3.1,1.3-5,1.5-5.7.5-1.6,1.4-2,2.9-1.3.4.2.7.6.7,1.1,0,1.4-.4,2.7-1,4,0,.1,0,.3.1.4,0,0,.2,0,.2,0,.7-.3,2.9-1.3,6.6-3,1.3-.6,3-.7,3.6,1,.3.8,0,1.5-.9,2.2-.2.1-.4.2-.6.2-1.1.2-1.8.3-2.1.4-2.1.8-4.6,1.8-7.5,3.1-.2.1-.4.3-.5.6l-.9,4.4c0,.2,0,.3.2.3,0,0,.2,0,.3,0,1.6-1.3,9.6-8,9.6-1.8,0,.2,0,.4-.1.6-2.6,4.5-4.9,9.4-7,14.8-.3.7-1,1-1.7.7,0,0-.1,0-.2,0h0c-.7-.4-.9-1.3-.6-2l6.2-12.8Z"/>
            <path d="M966.2,543.7c0,.2,0,.4.2.4,0,0,.2,0,.3,0,1.3-.8,2.4-1.8,3.2-2.8,0,0,.1-.2.1-.3l.7-9.6c0-.6.5-1,1.1-1.1h.1c.6,0,1.1.5,1.1,1.1,0,0,0,0,0,.1l-.8,7c0,.2,0,.3.2.3,0,0,.1,0,.2,0,1.4-1,2.4-1.6,3.1-2,.7-.4,1.5-.2,1.8.3,0,0,0,.1,0,.2.3.9.3,1.6-.4,2.4-1.4,1.8-2.5,3.8-3.4,6,0,.2-.3.4-.6.4h-.9c-.2,0-.4.2-.4.4v5.5c0,.5-.4.9-.9.9h-.2c-.4,0-.8-.3-.9-.7-.3-1.8-.4-3.3-.3-4.3.2-1.3.3-2.2.4-2.6,0-.2-.1-.4-.3-.4-.1,0-.2,0-.3.1l-3,3c-.2.2-.3.6-.2.9.4.9,0,1.6-1,2.2-.7.4-1.6.3-2-.3-.4-.6-.7-1.2-.9-1.9,0-.2,0-.4,0-.6.4-2.3.6-4.9.6-7.7,0-.8.5-1.6,1.3-1.9.9-.4,2.1,0,2.4,1.1.3,1.2.2,2.5-.3,4ZM972.9,541.6c-.2-.1-.6.1-.8.5-.2.4-.3.9,0,1,0,0,0,0,0,0,.2.1.6-.1.8-.5.2-.4.3-.9,0-1,0,0,0,0,0,0Z"/>
            <path d="M964.8,562.1l-5.4,3.7c-.2.1-.3.3-.3.4h0c-.2.7-.8.9-1.4.7-.3-.1-.5-.4-.6-.7-1.1-3.7,7.1-7.7,10.1-8.7.8-.3,1.5-.2,2.1.1.8.4,1.1,1.3.8,2.1,0,0,0,.1-.1.2-1.3,1.7-2.4,3.9-3.4,6.6-.2.7-1,1-1.7.8,0,0,0,0,0,0h0c-.7-.2-1.1-1-.8-1.7,0,0,0-.2,0-.2l1.5-2.7c.1-.2,0-.5-.2-.6-.2,0-.3,0-.5,0Z"/>
            <path d="M959.2,578.7c.2.3.5.4.8.2,0,0,.1,0,.2-.1,1.9-2.3,7.2-5.8,8.9-1.6,1.1,2.7-.9,8.1-2.2,11.2-1.5,3.6-3.4,7.8-5.5,12.3,0,.1-.1.3-.1.4l-.5,2.1c0,0,0,.1,0,.2l-1.9,3.4c-.3.6-1.1.9-1.7.8h-.1c-.6-.1-1-.8-.9-1.4,0,0,0-.2,0-.3l.8-1.7c.1-.2,0-.5-.2-.6-5.8-3.5-7.9-12.9-7.9-19.3,0-3.3,1.5-7.4,5.1-8.2,2.4-.5,4.1.4,5.3,2.5ZM959.1,600.8s.1-.2.3-.6c1.3-2.8,2.9-6.5,4.8-10.9,1.4-3.5,3-7.6,2.4-11.1,0-.2-.2-.4-.5-.3,0,0,0,0,0,0-1.8.7-3.4,2-4.7,3.9-.1.2-.2.4-.2.6,0,.6,0,1.1,0,1.5,0,.7-.5,1.4-1.3,1.6-1.4.5-2.1-.8-2.5-2-.5-1.5-1.1-2.8-1.9-3.7-.2-.3-.6-.3-1-.2-1.7,1-2.4,2.1-2.6,4.2-.5,6.4,1.4,12.1,5.8,17,.3.4.9.4,1.3,0,0,0,0,0,0,0Z"/>
          </g>
        </g>
        <g>
          <g>
            <path class="cls-1" d="M935.5,501.2c.7-.4,19.5-10.3,29.5-12s1.5-3.6-.5-3.5c-5.3.2-10.8,3.1-15.8,4.9s-10.3,4.1-15.2,6.8-.7,1.3,0,2,1.2,2.2,1.9,1.8Z"/>
            <path class="cls-1" d="M947.6,477.2c-.3,1.1,4.2,7.5,5.2,11.6s1.1,5.6,1,8.4c0,1.4-.2,2.8-.6,4.1,0,1.9-.7,2.3-2,1.3-4.2-1.3.7-5.4,2.5-1.6s.7,3.2.7,4.6c0,3.5-.8,7-2.6,9.8s0,1.4,1.5,1.1c6.6-1.5,5.2-12.2,3.1-16.6s-8.6-6.7-9.8,0,5.6,11.9,9.2,5-1-22.3-4.7-30-1.8.8-2.2,1.1-.9,0-1.2,1.1Z"/>
            <path class="cls-1" d="M963.2,471.8c-.2,4.2.4,8.4,1.3,12.6.8,3.6,2.3,13.6,3,14.4s2.7.7,2.9-1-3.7-26-3.7-26c0,0-3.3-1.9-3.4,0h0Z"/>
            <path class="cls-1" d="M970.9,488.6c.6,2.9,1.8,7.4,2.6,7.7s.7-.5,1.2-.6-2.1-12.3-3.2-18.8-2.7-1.7-2.4.4c0,0,1.1,7.7,1.9,11.3Z"/>
          </g>
          <g>
            <path d="M935.5,501.2c.7-.4,19.5-10.3,29.5-12s1.5-3.6-.5-3.5c-5.3.2-10.8,3.1-15.8,4.9s-10.3,4.1-15.2,6.8-.7,1.3,0,2,1.2,2.2,1.9,1.8Z"/>
            <path d="M947.6,477.2c-.3,1.1,4.2,7.5,5.2,11.6s1.1,5.6,1,8.4c0,1.4-.2,2.8-.6,4.1,0,1.9-.7,2.3-2,1.3-4.2-1.3.7-5.4,2.5-1.6s.7,3.2.7,4.6c0,3.5-.8,7-2.6,9.8s0,1.4,1.5,1.1c6.6-1.5,5.2-12.2,3.1-16.6s-8.6-6.7-9.8,0,5.6,11.9,9.2,5-1-22.3-4.7-30-1.8.8-2.2,1.1-.9,0-1.2,1.1Z"/>
            <path d="M963.2,471.8c-.2,4.2.4,8.4,1.3,12.6.8,3.6,2.3,13.6,3,14.4s2.7.7,2.9-1-3.7-26-3.7-26c0,0-3.3-1.9-3.4,0h0Z"/>
            <path d="M970.9,488.6c.6,2.9,1.8,7.4,2.6,7.7s.7-.5,1.2-.6-2.1-12.3-3.2-18.8-2.7-1.7-2.4.4c0,0,1.1,7.7,1.9,11.3Z"/>
          </g>
        </g>
      </g>
      <g id="paizuri_x5F_001">
        <g>
          <path class="cls-1" d="M964.6,495.2c0-.2-.2-.3-.4-.3,0,0-.2,0-.2.1-4.6,4.7-8.2,9.9-10.6,15.7,0,.1,0,.3.2.4,0,0,.1,0,.2,0l8.5-4c1-.4,2.1-.1,2.6.8v.2c.4.6.2,1.4-.5,1.8,0,0-.2,0-.3,0-4.1,1-8.2,2.9-12.5,5.6-.3.2-.6.3-.7.4-.5.1-1.1-.2-1.2-.8,0,0,0-.2,0-.3.1-1.3,0-2.2-.3-3-.1-.3-.1-.6,0-.8l2.7-5.5c0-.1,0-.2,0-.3-2.5-2.1-4.3-4.6-5.3-7.6-1.7-4.6-2.9-7.8-3.6-9.7-.2-.6-.4-1.4-.6-2.4-.1-.6.1-1.3.6-1.7l2.7-2.2c.3-.2.7-.2.9,0,0,0,.1.2.1.3,1.5,6.8,3.7,13.4,6.6,19.7.1.3.5.5.9.3.1,0,.2-.1.3-.3,2.7-4.4,5.8-8.2,9.4-11.3.2-.2.3-.4.3-.7-.1-5.7-.1-10.8,1.2-16.4.3-1,1.3-1.7,2.4-1.4,0,0,0,0,.1,0l.7.2c1,.3,1.6,1.3,1.6,2.3-.9,10.1-1.4,15.7-1.5,17.1-.2,3.7,0,6.9.4,9.8,0,.3,0,.6-.3.8-1.3,1.1-2.4.9-3.3-.7-.1-.2-.2-.4-.2-.6l-.8-5.7Z"/>
          <path class="cls-1" d="M971.4,502.4c-.3,0-.5-.3-.5-.6h0c1.2-13.2,2.4-23.8,2.8-23.7,0,0,0,0,0,0h1.7c.4.1-.3,10.7-1.4,23.8,0,0,0,0,0,.1h0c0,.4-.3.6-.6.6l-1.9-.2Z"/>
          <path class="cls-1" d="M960.1,532.9c0-.2,0-.4-.2-.4-.1,0-.3,0-.3,0l-5.9,4.8c-.4.3-.7.8-.8,1.3-.2,1.1-.3,1.7-.4,1.9-.3.9-1.2,1.4-2.2,1.1,0,0-.1,0-.2,0-.9-.4-1.3-1.2-1-2.6.5-3.6,1-6.2,1.4-7.9,0-.2-.1-.5-.4-.6-.1,0-.2,0-.3,0l-4.9,2.8c-.7.4-1.6.3-2.3-.2h-.1c-.6-.9-.5-1.9.3-2.5,0,0,.2-.1.2-.2l8-4.4c.1,0,.2-.2.3-.4.8-3.1,1.3-5,1.5-5.7.5-1.6,1.4-2,2.9-1.3.4.2.7.6.7,1.1,0,1.4-.4,2.7-1,4,0,.1,0,.3.1.4,0,0,.2,0,.2,0,.7-.3,2.9-1.3,6.6-3,1.3-.6,3-.7,3.6,1,.3.8,0,1.5-.9,2.2-.2.1-.4.2-.6.2-1.1.2-1.8.3-2.1.4-2.1.8-4.6,1.8-7.5,3.1-.2.1-.4.3-.5.6l-.9,4.4c0,.2,0,.3.2.3,0,0,.2,0,.3,0,1.6-1.3,9.6-8,9.6-1.8,0,.2,0,.4-.1.6-2.6,4.5-4.9,9.4-7,14.8-.3.7-1,1-1.7.7,0,0-.1,0-.2,0h0c-.7-.4-.9-1.3-.6-2l6.2-12.8Z"/>
          <path class="cls-1" d="M966.2,543.7c0,.2,0,.4.2.4,0,0,.2,0,.3,0,1.3-.8,2.4-1.8,3.2-2.8,0,0,.1-.2.1-.3l.7-9.6c0-.6.5-1,1.1-1.1h.1c.6,0,1.1.5,1.1,1.1,0,0,0,0,0,.1l-.8,7c0,.2,0,.3.2.3,0,0,.1,0,.2,0,1.4-1,2.4-1.6,3.1-2,.7-.4,1.5-.2,1.8.3,0,0,0,.1,0,.2.3.9.3,1.6-.4,2.4-1.4,1.8-2.5,3.8-3.4,6,0,.2-.3.4-.6.4h-.9c-.2,0-.4.2-.4.4v5.5c0,.5-.4.9-.9.9h-.2c-.4,0-.8-.3-.9-.7-.3-1.8-.4-3.3-.3-4.3.2-1.3.3-2.2.4-2.6,0-.2-.1-.4-.3-.4-.1,0-.2,0-.3.1l-3,3c-.2.2-.3.6-.2.9.4.9,0,1.6-1,2.2-.7.4-1.6.3-2-.3-.4-.6-.7-1.2-.9-1.9,0-.2,0-.4,0-.6.4-2.3.6-4.9.6-7.7,0-.8.5-1.6,1.3-1.9.9-.4,2.1,0,2.4,1.1.3,1.2.2,2.5-.3,4ZM972.9,541.6c-.2-.1-.6.1-.8.5-.2.4-.3.9,0,1,0,0,0,0,0,0,.2.1.6-.1.8-.5.2-.4.3-.9,0-1,0,0,0,0,0,0Z"/>
          <path class="cls-1" d="M964.8,562.1l-5.4,3.7c-.2.1-.3.3-.3.4h0c-.2.7-.8.9-1.4.7-.3-.1-.5-.4-.6-.7-1.1-3.7,7.1-7.7,10.1-8.7.8-.3,1.5-.2,2.1.1.8.4,1.1,1.3.8,2.1,0,0,0,.1-.1.2-1.3,1.7-2.4,3.9-3.4,6.6-.2.7-1,1-1.7.8,0,0,0,0,0,0h0c-.7-.2-1.1-1-.8-1.7,0,0,0-.2,0-.2l1.5-2.7c.1-.2,0-.5-.2-.6-.2,0-.3,0-.5,0Z"/>
          <path class="cls-1" d="M956.5,579.3c.1.3.5.4.8.3,0,0,.1,0,.2-.1,2-2.2,7.5-5.5,9-1.1,1,2.7-1.3,8.1-2.7,11.1-1.7,3.6-3.8,7.6-6.1,12,0,.1-.1.3-.2.4l-.6,2c0,0,0,.1,0,.2l-2.1,3.3c-.4.6-1.1.9-1.8.7h-.1c-.6-.2-1-.8-.8-1.4,0,0,0-.2,0-.3l.9-1.7c.1-.2,0-.5-.2-.6-5.6-3.8-7.3-13.2-6.9-19.6.2-3.3,1.8-7.3,5.5-7.9,2.4-.4,4.1.6,5.2,2.7ZM955.4,601.4s.1-.2.3-.6c1.5-2.8,3.3-6.3,5.4-10.6,1.6-3.4,3.4-7.5,3-11,0-.2-.2-.4-.4-.4,0,0,0,0,0,0-1.9.6-3.5,1.8-4.9,3.6-.1.2-.2.4-.2.6,0,.6,0,1.1,0,1.5,0,.7-.6,1.3-1.4,1.6-1.4.4-2.1-.9-2.4-2.1-.4-1.6-1-2.8-1.7-3.8-.2-.3-.6-.4-.9-.2-1.8.9-2.6,2-2.8,4.1-.8,6.4.8,12.1,4.9,17.3.3.4.9.5,1.3.1,0,0,0,0,0,0Z"/>
        </g>
        <g>
          <path d="M964.6,495.2c0-.2-.2-.3-.4-.3,0,0-.2,0-.2.1-4.6,4.7-8.2,9.9-10.6,15.7,0,.1,0,.3.2.4,0,0,.1,0,.2,0l8.5-4c1-.4,2.1-.1,2.6.8v.2c.4.6.2,1.4-.5,1.8,0,0-.2,0-.3,0-4.1,1-8.2,2.9-12.5,5.6-.3.2-.6.3-.7.4-.5.1-1.1-.2-1.2-.8,0,0,0-.2,0-.3.1-1.3,0-2.2-.3-3-.1-.3-.1-.6,0-.8l2.7-5.5c0-.1,0-.2,0-.3-2.5-2.1-4.3-4.6-5.3-7.6-1.7-4.6-2.9-7.8-3.6-9.7-.2-.6-.4-1.4-.6-2.4-.1-.6.1-1.3.6-1.7l2.7-2.2c.3-.2.7-.2.9,0,0,0,.1.2.1.3,1.5,6.8,3.7,13.4,6.6,19.7.1.3.5.5.9.3.1,0,.2-.1.3-.3,2.7-4.4,5.8-8.2,9.4-11.3.2-.2.3-.4.3-.7-.1-5.7-.1-10.8,1.2-16.4.3-1,1.3-1.7,2.4-1.4,0,0,0,0,.1,0l.7.2c1,.3,1.6,1.3,1.6,2.3-.9,10.1-1.4,15.7-1.5,17.1-.2,3.7,0,6.9.4,9.8,0,.3,0,.6-.3.8-1.3,1.1-2.4.9-3.3-.7-.1-.2-.2-.4-.2-.6l-.8-5.7Z"/>
          <path d="M971.4,502.4c-.3,0-.5-.3-.5-.6h0c1.2-13.2,2.4-23.8,2.8-23.7,0,0,0,0,0,0h1.7c.4.1-.3,10.7-1.4,23.8,0,0,0,0,0,.1h0c0,.4-.3.6-.6.6l-1.9-.2Z"/>
          <path d="M960.1,532.9c0-.2,0-.4-.2-.4-.1,0-.3,0-.3,0l-5.9,4.8c-.4.3-.7.8-.8,1.3-.2,1.1-.3,1.7-.4,1.9-.3.9-1.2,1.4-2.2,1.1,0,0-.1,0-.2,0-.9-.4-1.3-1.2-1-2.6.5-3.6,1-6.2,1.4-7.9,0-.2-.1-.5-.4-.6-.1,0-.2,0-.3,0l-4.9,2.8c-.7.4-1.6.3-2.3-.2h-.1c-.6-.9-.5-1.9.3-2.5,0,0,.2-.1.2-.2l8-4.4c.1,0,.2-.2.3-.4.8-3.1,1.3-5,1.5-5.7.5-1.6,1.4-2,2.9-1.3.4.2.7.6.7,1.1,0,1.4-.4,2.7-1,4,0,.1,0,.3.1.4,0,0,.2,0,.2,0,.7-.3,2.9-1.3,6.6-3,1.3-.6,3-.7,3.6,1,.3.8,0,1.5-.9,2.2-.2.1-.4.2-.6.2-1.1.2-1.8.3-2.1.4-2.1.8-4.6,1.8-7.5,3.1-.2.1-.4.3-.5.6l-.9,4.4c0,.2,0,.3.2.3,0,0,.2,0,.3,0,1.6-1.3,9.6-8,9.6-1.8,0,.2,0,.4-.1.6-2.6,4.5-4.9,9.4-7,14.8-.3.7-1,1-1.7.7,0,0-.1,0-.2,0h0c-.7-.4-.9-1.3-.6-2l6.2-12.8Z"/>
          <path d="M966.2,543.7c0,.2,0,.4.2.4,0,0,.2,0,.3,0,1.3-.8,2.4-1.8,3.2-2.8,0,0,.1-.2.1-.3l.7-9.6c0-.6.5-1,1.1-1.1h.1c.6,0,1.1.5,1.1,1.1,0,0,0,0,0,.1l-.8,7c0,.2,0,.3.2.3,0,0,.1,0,.2,0,1.4-1,2.4-1.6,3.1-2,.7-.4,1.5-.2,1.8.3,0,0,0,.1,0,.2.3.9.3,1.6-.4,2.4-1.4,1.8-2.5,3.8-3.4,6,0,.2-.3.4-.6.4h-.9c-.2,0-.4.2-.4.4v5.5c0,.5-.4.9-.9.9h-.2c-.4,0-.8-.3-.9-.7-.3-1.8-.4-3.3-.3-4.3.2-1.3.3-2.2.4-2.6,0-.2-.1-.4-.3-.4-.1,0-.2,0-.3.1l-3,3c-.2.2-.3.6-.2.9.4.9,0,1.6-1,2.2-.7.4-1.6.3-2-.3-.4-.6-.7-1.2-.9-1.9,0-.2,0-.4,0-.6.4-2.3.6-4.9.6-7.7,0-.8.5-1.6,1.3-1.9.9-.4,2.1,0,2.4,1.1.3,1.2.2,2.5-.3,4ZM972.9,541.6c-.2-.1-.6.1-.8.5-.2.4-.3.9,0,1,0,0,0,0,0,0,.2.1.6-.1.8-.5.2-.4.3-.9,0-1,0,0,0,0,0,0Z"/>
          <path d="M964.8,562.1l-5.4,3.7c-.2.1-.3.3-.3.4h0c-.2.7-.8.9-1.4.7-.3-.1-.5-.4-.6-.7-1.1-3.7,7.1-7.7,10.1-8.7.8-.3,1.5-.2,2.1.1.8.4,1.1,1.3.8,2.1,0,0,0,.1-.1.2-1.3,1.7-2.4,3.9-3.4,6.6-.2.7-1,1-1.7.8,0,0,0,0,0,0h0c-.7-.2-1.1-1-.8-1.7,0,0,0-.2,0-.2l1.5-2.7c.1-.2,0-.5-.2-.6-.2,0-.3,0-.5,0Z"/>
          <path d="M956.5,579.3c.1.3.5.4.8.3,0,0,.1,0,.2-.1,2-2.2,7.5-5.5,9-1.1,1,2.7-1.3,8.1-2.7,11.1-1.7,3.6-3.8,7.6-6.1,12,0,.1-.1.3-.2.4l-.6,2c0,0,0,.1,0,.2l-2.1,3.3c-.4.6-1.1.9-1.8.7h-.1c-.6-.2-1-.8-.8-1.4,0,0,0-.2,0-.3l.9-1.7c.1-.2,0-.5-.2-.6-5.6-3.8-7.3-13.2-6.9-19.6.2-3.3,1.8-7.3,5.5-7.9,2.4-.4,4.1.6,5.2,2.7ZM955.4,601.4s.1-.2.3-.6c1.5-2.8,3.3-6.3,5.4-10.6,1.6-3.4,3.4-7.5,3-11,0-.2-.2-.4-.4-.4,0,0,0,0,0,0-1.9.6-3.5,1.8-4.9,3.6-.1.2-.2.4-.2.6,0,.6,0,1.1,0,1.5,0,.7-.6,1.3-1.4,1.6-1.4.4-2.1-.9-2.4-2.1-.4-1.6-1-2.8-1.7-3.8-.2-.3-.6-.4-.9-.2-1.8.9-2.6,2-2.8,4.1-.8,6.4.8,12.1,4.9,17.3.3.4.9.5,1.3.1,0,0,0,0,0,0Z"/>
        </g>
      </g>
    </g>
  </g>
</svg>