<?xml version="1.0" encoding="UTF-8"?>
<svg xmlns="http://www.w3.org/2000/svg" version="1.1" viewBox="0 0 1920 1080">
  <defs>
    <style>
      .cls-1 {
        fill: #fff;
      }

      .cls-2 {
        fill: #f96;
      }
    </style>
  </defs>
  <!-- Generator: Adobe Illustrator 28.7.10, SVG Export Plug-In . SVG Version: 1.2.0 Build 236)  -->
  <g>
    <g id="_レイヤー_1" data-name="レイヤー_1">
      <g>
        <g id="_x2A_bg">
          <rect class="cls-2" x="890.8" y="441.4" width="138.4" height="197.3"/>
        </g>
        <g id="specific">
          <g id="sawa_x5F_001">
            <g>
              <path class="cls-1" d="M947.6,520.9c5.8-1.5,11.6-2.6,17.5-3.5s9.7-2.8,8.6-7.9c-1.1-5.1-7.3-5-11.1-4.3-6.1,1.1-12.1,2.8-18,4.6s-4.1,12.9,3,11h0Z"/>
              <path class="cls-1" d="M954.9,506c.5,2.4,1,4.8,1.6,7.1s1.8,4.4,1.5,6.1l6.7-3.8c-4.4-.9-8.8-1.3-12.8,1.2s-5.9,6.6-4.8,10.9c2,7.9,12.9,12.1,19,6.2s1.1-3,0-4.1c-1.6-1.7-3.5-2.9-5.7-3.7-.5,0-.9-.3-1.4-.5-.6-.5-.9-.4-1,.5,1.6.3,3.5,0,5.2.2,3.9.5,7-5.1,4.7-8.2s-3.2-10-4.4-14.3-9.8-3.2-8.6,2.4h0Z"/>
              <path class="cls-1" d="M952.7,537.9c0,7.4-1.2,19.1,5.7,23.9s2.6,0,3-1.2c1.2-3.5.5-7.2.2-10.7s-.6-7.9-.7-11.9-8.1-5.3-8.2,0h0Z"/>
              <path class="cls-1" d="M953.3,551.2c2.9-1.3,7.8-3,11-2l-3.3-3.3v.8c.3-1.2.5-2.5.6-3.7-2.6,5.1-8.5,8.8-12.7,12.4l7.4,5.7c1.6-2.2,6-4.3,8.5-5s1.7-.2,1.8-.3c.7.2.9,0,.4-.7,0-.9-.2-1-.4-.2-1.1.9-.7,3.9-.4,5,.4,2,2.4,3.1,4.3,3.3,4.5.4,7.6-4.2,7.6-8.4s-3.4-7.9-7.6-8.9c-8.4-2-15.7,4.7-21.6,9.5s1.2,10.1,5.7,7.4,7.2-5.6,10.3-8.7,6.1-6.1,5.4-10.7-1.9-2.9-3.3-3.3c-5.8-1.9-13,.8-18,3.6s-.6,9.9,4.4,7.6h-.1Z"/>
              <path class="cls-1" d="M964.6,575.2c7.7,0,7.7-11.9,0-11.9s-7.7,11.9,0,11.9h0Z"/>
              <path class="cls-1" d="M966.1,582.5h0c-.4,0-.8,0-1.2.2h.3-1,1.2c1,0,1.9-.5,2.6-1.1s.3-.4.5-.6.3-.4.5-.7l.5-1.1c.2-.6.2-1.3,0-1.9,0-.6-.2-1.2-.6-1.8l-.7-1-1-.7c-.5-.3-1.1-.5-1.8-.6h-1.9l-1.1.5c-.6.3-1,.7-1.3,1.2-.4.5-.7,1-.9,1.6l-.2,1.3c0,.7,0,1.3.4,1.8,0,.4.3.8.6,1,.3.5.8.9,1.3,1.2l1.1.5c.8.2,1.7.2,2.5,0h0l.2.2h0Z"/>
            </g>
            <g>
              <path d="M946.7,517.7c4.3-1.2,8.6-2.2,12.9-3s7.7-1,11.4-3,.8-2.3-.3-2.6c-7.9-2-17.6,1.8-25.3,4.1-7.7,2.3-1.7,5.4,1.3,4.5h0Z"/>
              <path d="M957.5,505.3c1.2,5,3.1,10.2,3.5,15.4l2.8-2.2c-5.2-.9-14.1-.4-13.7,7.1s8.8,8.7,14.2,7.2,1.1-1.9,0-2.3c-1.8-.6-3.7-1-5.5-1.7-3.1-.5-3.6-2.5-1.7-6.1,1.8-.3,3.6-.3,5.5,0,2,.3,3.3-1.4,2.5-3.3-2-4.7-2.8-10.2-4.2-15.2s-4.1-1.3-3.5,1h.1Z"/>
              <path d="M955.1,537.9c0,7.3-.4,16.2,3.6,22.6.4.7,1.6.4,1.5-.4-.5-7.4-1.8-14.7-1.8-22.2s-3.3-2.2-3.4,0h.1Z"/>
              <path d="M952,549c3.5-1.7,9.1-3.8,13.1-2.5l-1.4-1.4c.2,1.1-4.6,5.2-5.4,6-2.2,2.1-4.6,4.1-7,5.9l2.3,3c2.4-2.7,5.8-4.8,9.1-6.2s3.9-1.5,5.9-.6,1.1,2.9.2,5,1.4,2.8,2.7,2.1c5.7-3.1,3.3-10.8-2.7-11.6s-13.4,4.4-18,8.6.5,4.3,2.3,3c3.5-2.3,6.8-5.3,9.7-8.3s5.2-4.7,4.6-8-.8-1.2-1.4-1.4c-5-1.7-11.5.8-15.9,3.1s-.2,4.1,1.8,3.1h0v.2h.1Z"/>
              <path d="M964.6,571.6c3.2,0,3.2-4.9,0-4.9s-3.2,4.9,0,4.9h0Z"/>
              <path d="M963.8,579.6c.3.2-.2-.2,0,0l.2.2s.2.3,0,0,0,0,0,0c.4.6,1.2,1.1,1.9.6s.9-2.1.7-3.1-2-1.8-3.1-1-.9,2.5.2,3.2h0Z"/>
            </g>
          </g>
          <g id="momi_x5F_001">
            <g>
              <path class="cls-1" d="M946.9,513.3c6.5-2.8,14.1-2.7,20.2-6s1.2-3.7-.6-4.4c-7.4-2.9-16.4,1.5-22.9,4.9s-.4,7,3.2,5.5h0Z"/>
              <path class="cls-1" d="M950,524c2.4-1.5,4.9-2.9,7.5-4.1s2.7-1,3.9-1.7,2.2-1.7,3.4-2.4c2.3-1.3,1.5-5.6-1.4-5.2s-3.1,0-4.5.3-3,1.1-4.4,1.8c-2.9,1.4-5.7,2.9-8.4,4.7-4.1,2.7-.3,9.2,3.8,6.6h.1Z"/>
              <path class="cls-1" d="M950.1,498.2c-1.4,8.5-1.4,17.6,2.1,25.6,3.4,7.7,11.9,5.4,14.9-1.4s-.9-3.7-2.5-2.5-5,4.7-7.3,1.7-1.8-5.5-2.2-7.6c-.9-4.9-.6-9.6.2-14.4s-4.7-4.9-5.3-1.5h0Z"/>
              <path class="cls-1" d="M952.2,535.1c1.4-.9,4-1.6,5,.3s0,2.4,0,3.3c0,1.4,0,2.7-.3,4-.6,3-.8,3.1-.8.2.6-.4,1.2-.8,1.9-1.2,3-1.6,6.3-2.5,9.8-2.5s5.2,1.5,7.7,1.3,3.7-1.6,3.8-3.8v-.6c0-2-1.4-3.6-3.2-4.3-7.4-2.5-17.1,1.3-22.6,6.2s-4,4-2.9,6.8,3.1,5.1,5.6,5.3c7.9.5,8.9-10.3,7-15.7-2.1-5.9-8.8-6.6-13.4-2.6s.5,4.3,2.4,3.1h0v.2Z"/>
              <path class="cls-1" d="M966.3,528.8c0,6-1.8,12.6-.6,18.5.5,2.5,3.6,2.3,4.9.6,3.8-5,3.4-13.2,3-19.1s-7.4-4.7-7.3,0h0Z"/>
              <path class="cls-1" d="M964.9,558.1c.7-.4,1.5-.8,2.3-1,0,0,1-.2,1,0-.4,0-.7-.2-1-.5.2.2.2.3,0,0h0c0,.3.2.6.2.9,0,.6.3,1.2.4,1.8.3,1.8,2.9,2.3,4,1.1,2-2.2,2.3-6.2,0-8.5s-7.2-1-10.2.7-.4,7.3,3.2,5.5h0Z"/>
              <path class="cls-1" d="M961.5,574.5c-1.8-.6-2.8-2.6-3.6-4.3s-1.1-2.1-1-2.5c.8-2.5,1.5.2,1.8.6,1.6,2.7,4.3,2.9,6.4.6s1.2-1.5,1.9-2.2l1.2-1c1.6-1.7,2.1-1.9,1.5-.6,0,1-.6,3.2-1.2,4.1-.8,1.2-2.3,1.7-3.2,2.8s-1.8,2.2-2.8,3.7.8,4,2.6,3.4c3-.9,5.7-1.6,7.8-4.1s2.4-4.9,2.2-7.7-.7-4.4-2.7-5.1-5.9.8-8,2.1-1,.8-1.6,1.1c-1.4.7-.4.7-1.3,0s-1.4-1.5-2.5-1.8c-2.2-.6-4.4,1-5.4,2.9-2.7,5.3.8,12,6.2,13.5s5-4.4,1.5-5.6h.2,0Z"/>
            </g>
            <g>
              <path d="M946.4,512.5c6.5-2.9,13.4-3.2,20-5.6s1.7-2.8,0-3.2c-7.5-1.8-15.6,1.7-22.2,5.1-6.6,3.4-.3,4.9,2.2,3.8h0Z"/>
              <path d="M949.4,522.9c2.4-1.5,4.9-2.9,7.5-4.1s5-2.5,7.5-3.8.5-3.9-1.5-3.5c-3.1.5-5.4,1.1-8.3,2.4s-5.4,2.8-7.9,4.4-.2,6.3,2.6,4.5h.1Z"/>
              <path d="M951,498.5c-1.4,8.2-1.4,17.4,2.1,25.2s10.5,4.3,13.6-1.4-.9-2.5-2-1.5c-1.3,1.3-2.8,2.4-4.4,3.3-2.7-.3-4.2-1.6-4.5-4-.7-2.1-1.2-4.3-1.6-6.4-.8-4.8-.5-9.4.4-14.1s-3.2-3.4-3.6-1h0Z"/>
              <path d="M951.8,534.5c1.9-1.3,5.1-2,6.4.4s.3,3.6.3,4.8,0,2.3-.4,3.4c-2.5,3.4-3.6,3.3-3.1-.5.8-1.4,4.1-2.6,5.6-3.1,4.2-1.7,8.5-1.9,12.8-.8s2.4,1.1,3.7,0,.9-1.5.6-2.3c-2.4-7.1-16-2.2-20.3.3s-6.3,3.8-6.5,6.7,2.1,5.1,3.8,5.9c2.4,1.1,5.2-1,6.5-2.9,1.9-2.7,1.8-6.5,1.1-9.6s-1.3-4.9-3.8-5.8-6.2,0-8.4,1.8.3,2.8,1.5,2h0l.2-.2h0Z"/>
              <path d="M967.6,528.8c0,5.9-1.3,11.9-1,17.8s2.3,2.4,3.1.9c2.9-5.5,2.8-12.6,2.5-18.6s-4.7-3-4.6,0h0Z"/>
              <path d="M964.3,557.1c1-.5,1.9-1,3-1.2s1.2,0,.9,0,0,0,0,.2c0,.7.3,1.3.4,1.9s0,1.4.6,2,.8.4,1.3.3c1.3-.3,1.7-1.9,1.9-3s0-2.7-.8-3.8c-2.2-3.2-6.6-1.1-9.2.3s-.3,4.6,2,3.5h0v-.2h-.1Z"/>
              <path d="M961.2,575.5c-2.3-.7-3.4-2.9-4.2-5s-.8-1.5.5-2.8,1-.9,1.9.3c1.3,2,3.1,2.5,4.9.8s4.5-5.4,6-4,0,2.6,0,3.6c-.8,3.2-4.5,5.1-6.6,7.5s.3,3,1.8,2.3c2.6-1.2,5.2-2,7-4.3s2-4.4,1.8-6.8c-.3-6-6-4.4-9.6-1.8s-1.8,1.8-3.5.5-1.2-1.4-2.3-1.7c-1.9-.4-3.7,1.2-4.3,2.8-2,4.8,1.2,10.8,6,12.2s3.2-2.8,1-3.5h-.4Z"/>
            </g>
          </g>
          <g id="kyu_x5F_001">
            <g>
              <path class="cls-1" d="M947.7,528.8c7.4-1.6,16.2-2.2,22.2-7.3s.4-2.5-.7-2.8c-7.7-2.4-16,.8-23.2,3.6s-2.5,7.4,1.8,6.5h0Z"/>
              <path class="cls-1" d="M950.8,506.5c2.8,7.8,4.2,19.2,10.9,24.8s4.7.6,4.8-2c.2-4.6-1.9-9.6-3.5-13.9s-3.3-8-5.2-11.9-8.6-1.2-7.1,3h0Z"/>
              <path class="cls-1" d="M947.7,536.8c2.2,1.6,5.2,3,7.8,3.6s7,1.5,9.9-.8,1.6-4.8,0-6.2-4.8-1.9-7.2-2.7-2.5-.6-3.7-1-.9-.2-1.4-.4-1.7-.7-.9-.3c-5.3-2.4-9.2,4.3-4.5,7.8h0Z"/>
              <path class="cls-1" d="M954.4,545.9c1.8,3.3,3.6,8,8.3,6.8s6.5-5.2,10.4-3.7l-2.7-4.8c-.2.8,0,.2-.7,1.3-2.2,3.1,0,7.6,3.5,8.6s7.9-1.8,7.4-5.6-2.6-7.8-7.5-6.9l3,.4c-3.3-1.8-7.5-1.5-10.9-.2s-3.9,1.4-5,2.7c-1.4.9-1.1,1.1,1,.6,2,.3,2.4,0,1-.9-.4-.9-1.7-1.7-2.4-2.4-2.7-2.8-7.1.7-5.3,4.1h0Z"/>
              <path class="cls-1" d="M964.9,539.8c-.6,3.5-1,7-.9,10.5s1.5,4.3,3.6,4.7,2.5.2,3.8-.5c2-1,2.7-3.5,2.3-5.6s-1-5.4-1.2-8.2-1.4-3.6-3.4-3.8-3.9.8-4.2,2.8h0Z"/>
              <path class="cls-1" d="M966.9,561.6h2.8c-1.1,0,0,0,.3,0s.2,0-.5-.2c-.2,0-.3-.3-.4-.4-.2-.3,0-.2,0,.2-.4-.9-.5-1.8,0-2.7.2-.4,0-.4,0,0,.4-.6.4-.5,0,0-.6.7-.9,1.6-1.2,2.5-.7,2,.4,4.6,2.3,5.6s4.3.7,6-.8,2.8-4,2.7-6.2-1.8-4.8-4-6-6.6-.4-9.5,1.1-1.7,6.8,1.8,6.6h-.2v.3h0Z"/>
              <path class="cls-1" d="M962.4,574.3c-2.2.3-3.3-3.2-3.7-4.6-.2-.5-.3-1.1-.4-1.7l-1,1.7c0,.6,1.9,2,2.4,2.4,1.4,1.3,2.9,2,4.8,1.5s3.6-2.8,5.9-2.7l-2.4-1,.6.5-1-2.5c0,1.2.7-.2,0,.3-.9.8.9-.4-1,.9s-2.8,1.6-4.1,2.5c-2.7,1.8-4.1,5.1-2.7,8.3s4.7,5.1,7.8,3.8,6.5-3,8.4-6.5,1.6-6.4.2-9.3c-3-6.3-10.5-3.1-14.9-.7l2.8-.4c-1.3-.5-2.7-2.5-3.9-3.2s-3.1-1.5-4.8-1.2c-3.6.6-4.9,4-4.6,7.3.6,7.3,7.2,15,14.3,9.3,2.5-2-.4-5-2.7-4.7h0Z"/>
              <path class="cls-1" d="M941.7,521.1c4.3,1.2,9.6-.6,13.9-1.5s9.2-2.4,13.5-4.8,1.6-4.3-.6-4.9c-4.9-1.2-9.6-1-14.7,0s-10.3,1.8-13.7,5.1c-3.4,3.3-1,5.2,1.6,5.9h0v.2h0Z"/>
            </g>
            <g>
              <path d="M947.3,527c7.3-1.9,15-2.9,21.9-6s.3-1.4-.4-1.5c-7.7-.2-15.1,2.1-22.3,4.5s-1.1,3.5.8,3h0Z"/>
              <path d="M952.8,506c3.1,7.9,4.8,17.1,9.8,24s2.7.5,2.4-1c-1.8-8.3-5.4-16.7-8.9-24.4s-4-.5-3.3,1.4h0Z"/>
              <path d="M948.9,534.7c2.3,1.5,5,2.5,7.7,3.1s5.6,1.6,7.4,0,.7-1.9,0-2.5c-1.5-1.3-4.3-1.3-6.2-1.8s-4.7-1.1-6.8-2.2-4.4,2.1-2.1,3.6h0v-.2h0Z"/>
              <path d="M956,545c1.4,2.1,2.9,6.1,6,5.5s2.8-1.7,4.1-2.4,2.5-1.1,3.8-1.4,3-.7,2.2,1.1c-1.3,3.2,4.7,4.8,5,.7s-3.3-5.8-7.2-5.5-4.4.9-6.3,2-2.1,1.6-2.4,1.6c-.7,0-2.4-2.9-2.9-3.4-1.1-1.3-3.2.4-2.3,1.8h0Z"/>
              <path d="M967,540.8c-.4,3.8-1.4,9.1,1.3,12.1s1.7.5,2.1-.3c.9-1.9.6-3.2.4-5.2s-.4-4.4-.4-6.6-3.2-2.1-3.4,0h0Z"/>
              <path d="M967.3,559.5c1-.2,2.1-.3,3-.2s.5,0,.8.3.4.4.4.3-.2.3-.3.4c-.8,1.2-1.6,2.7-.4,3.9s3.1,0,3.9-1.1c1.7-2.6,1.1-5.6-1.7-7.1s-4.7-.2-6.6.5-1.2,3.4.8,3h0Z"/>
              <path d="M962.8,576.1c-2.8.9-5-1.1-6-3.6s-1.5-3.8-1-4.4c1.7-2.6,5.5,3.3,7.1,3.5s3.8-3.1,6-2.7c4.9.8-3.1,6-4.1,6.5-2.6,1.5-.3,5.3,2.3,4s9.6-7.1,5.8-11.6-3.7-1.6-5.6-1-3.4,2.2-4.1,2.1c-1,0-2.6-2.4-3.5-3-3.9-2.8-7.1-.4-6.4,4.1s4.6,10.9,10.3,7.8.3-2.1-.8-1.8h0Z"/>
              <path d="M942.7,519.3c8.3-.2,17.6-3.1,25.5-5.6s1.1-2.4-.3-2.4c-8.2-.3-18.7,1.1-26,5s-.8,3.1.8,3h0Z"/>
            </g>
          </g>
        </g>
      </g>
    </g>
  </g>
</svg>