<?xml version="1.0" encoding="UTF-8"?>
<svg xmlns="http://www.w3.org/2000/svg" version="1.1" viewBox="0 0 1920 1080">
  <defs>
    <style>
      .cls-1 {
        fill: #fff;
        stroke: #fff;
        stroke-linecap: round;
        stroke-linejoin: round;
        stroke-width: 4px;
      }

      .cls-2 {
        fill: #f96;
      }

      .cls-3 {
        display: none;
      }
    </style>
  </defs>
  <!-- Generator: Adobe Illustrator 28.7.10, SVG Export Plug-In . SVG Version: 1.2.0 Build 236)  -->
  <g>
    <g id="specific">
      <g id="_x2A_bg" class="cls-3">
        <g id="_x2A_bg-2" data-name="_x2A_bg">
          <rect class="cls-2" x="890.8" y="441.4" width="138.4" height="197.3"/>
        </g>
      </g>
      <g id="pan_x5F_001">
        <g>
          <path class="cls-1" d="M980.2,519.1c-.1,0-.2.1-.3.2,0,0,0,.2.1.2,1.1.8,1.4,1.5.9,2.3-.8,1.4-3.7.3-4.9-.2-.1,0-.2,0-.3,0l-11.3-1.8c-.3,0-.5,0-.6.3-2.7,6.2-7.6,8.7-14.4,7.5-2.8-.5-4.7-1.9-5.6-4.3-1.1-2.9.6-6.7,3.5-7.7,3.8-1.4,9.1-1,13.7-.9.3,0,.6-.2.6-.5,0,0,0,0,0,0v-5.3c0-.3-.2-.5-.5-.5h0c-10.5,0-16.8,0-19,0s-3.1,0-4.3-.1c-1.5-.1-2.2-1-2-2.6,0-.6.5-1,1.1-1.1,6-.9,12-.5,23.7-.5.2,0,.4-.2.4-.4.2-1.6-.6-2.9-2.3-4-.3-.2-.4-.5-.2-.8,1.2-2.7,3.5-2.1,4.4.3,1,2.5,1.5,4,1.7,4.6,0,.2.2.4.4.4,1.5.3,2.8.3,3.9,0,.2,0,.4-.2.5-.5,0-.1.2-1,.4-2.6.3-1.9,1.4-3.6.7-5.6,0-.3-.1-.5,0-.8,2-6.7,13.1-7.7,18.5-7,4.3.6,11,3.2,12,8.1,1.4,6.7-3.3,14.9-8.9,18.5-3.5,2.2-7.8,4.9-11.6,4.8ZM973.6,503.4c0,.3.2.5.5.6,0,0,0,0,0,0,1.4,0,4.6,0,5.2,1.7.4.9,0,1.6-.9,2.2-.8.5-1.9.6-3.4.3-.7-.1-1.4.4-1.5,1.1,0,.4,0,.7.3,1l1.6,2c1,1.3,2.6,2,4.2,1.9,6.8-.1,12.8-4.9,15.6-10.9,1.2-2.6,2.6-5.7-.4-7.9-2.3-1.7-4.5-2.7-6.4-2.8-4.7-.3-9.2.7-13.4,3.1-.5.3-.7,1-.4,1.5,0,.1.2.3.3.4l.9.6c.4.3.5.8.2,1.2,0,.1-.2.3-.4.3-.7.3-1.3.4-1.6.3-.2,0-.4,0-.4.2,0,0,0,0,0,0l-.2,3.1ZM973.2,516.5c-.4-.6-1-1.5-2-2.7-1-1.3-1.7-3-2-5.1,0-.3-.3-.5-.5-.5h-2.7c-.2,0-.3.1-.3.3h0v6.2c0,.2.2.4.4.5l7,1.4s0,0,0,0c0,0,0,0,0,0ZM958.9,519.6c-1.2,0-3.4.1-6.8.2-1.3,0-2.3.3-3.2.8-.6.3-.7,1-.4,1.6,0,0,0,0,0,0,.4.6,1.1,1,2,1.2,3.6.6,6.5-.6,8.5-3.5,0,0,0-.2,0-.2,0,0,0,0,0,0Z"/>
          <path class="cls-1" d="M938.7,532.6c.2,1.6-.5,2.5-2.1,2.8-3.2.6-5.4-1.4-7.8-3.9-6.5-6.7-12.1-17.5-8.6-26.9.2-.4.6-.7,1.1-.6h.6c.6.2,1,.7.9,1.3,0,0,0,0,0,.1-1.9,6.2,1.6,13.9,5.4,18.7,2.2,2.8,4.7,5.4,7.3,7.9.3.2.6.3,1,.3l1.6-.4c.4,0,.7.1.8.5,0,0,0,0,0,0Z"/>
          <path class="cls-1" d="M957.1,543.9c0,.3.3.4.5.4,0,0,.2,0,.2,0,2.6-1.8,5.3-3.7,8.1-5.9,2.3-1.8,4.4-1.9,6.3-.5,2.7,2,3.5,8.1,8.1,6.5,3.4-1.1,6.5-2,9.3-2.5.8-.1,1.6.3,1.8,1.1,0,.3,0,.6-.4,1-2.7,2.6-5.6,4.4-8.4,5.5-6.2,2.3-11.2-1.2-13.2-7-.1-.3-.5-.5-.8-.4,0,0-.1,0-.2.1-3.6,3-7.1,5.5-10.5,7.6-2.9,1.7-5.3-.6-5.5-3.5,0-1.8,1.6-5.1,2.2-6.9.5-1.5,1.6-3.6,3.1-6.5.8-1.4,1.3-2.3,1.6-2.7.9-1.1,3-2.6,4.2-1.1.4.5.4,1.3-.1,1.6,0,0-.2.1-.3.2-.1,0-.4.1-.8.3-.3.1-.5.3-.7.6-1.7,3.5-3.2,7.1-4.3,10.8-.1.5-.2.8-.2,1.2Z"/>
          <path class="cls-1" d="M982.6,556.8c-.1-.5.3-1.1.9-1.2,0,0,0,0,0,0,4-.9,12.7-1.2,14.7,3.1.4.8.4,2,0,3.6-1.1,4.8-3.9,8.5-8.5,10.9-.6.3-1.3,0-1.6-.6,0,0,0-.2-.1-.3-.2-.6,0-1.2.3-1.8.8-1.1,2.4-3.3,4.7-6.5.5-.7,1-1.9,1.4-3.7,0-.2,0-.5,0-.7-.3-.7-.9-1.1-2-1.2-2.6-.1-5-.2-7.2-.1-1.4,0-2.3-.2-2.6-1.6Z"/>
        </g>
        <g>
          <path d="M980.2,519.1c-.1,0-.2.1-.3.2,0,0,0,.2.1.2,1.1.8,1.4,1.5.9,2.3-.8,1.4-3.7.3-4.9-.2-.1,0-.2,0-.3,0l-11.3-1.8c-.3,0-.5,0-.6.3-2.7,6.2-7.6,8.7-14.4,7.5-2.8-.5-4.7-1.9-5.6-4.3-1.1-2.9.6-6.7,3.5-7.7,3.8-1.4,9.1-1,13.7-.9.3,0,.6-.2.6-.5,0,0,0,0,0,0v-5.3c0-.3-.2-.5-.5-.5h0c-10.5,0-16.8,0-19,0s-3.1,0-4.3-.1c-1.5-.1-2.2-1-2-2.6,0-.6.5-1,1.1-1.1,6-.9,12-.5,23.7-.5.2,0,.4-.2.4-.4.2-1.6-.6-2.9-2.3-4-.3-.2-.4-.5-.2-.8,1.2-2.7,3.5-2.1,4.4.3,1,2.5,1.5,4,1.7,4.6,0,.2.2.4.4.4,1.5.3,2.8.3,3.9,0,.2,0,.4-.2.5-.5,0-.1.2-1,.4-2.6.3-1.9,1.4-3.6.7-5.6,0-.3-.1-.5,0-.8,2-6.7,13.1-7.7,18.5-7,4.3.6,11,3.2,12,8.1,1.4,6.7-3.3,14.9-8.9,18.5-3.5,2.2-7.8,4.9-11.6,4.8ZM973.6,503.4c0,.3.2.5.5.6,0,0,0,0,0,0,1.4,0,4.6,0,5.2,1.7.4.9,0,1.6-.9,2.2-.8.5-1.9.6-3.4.3-.7-.1-1.4.4-1.5,1.1,0,.4,0,.7.3,1l1.6,2c1,1.3,2.6,2,4.2,1.9,6.8-.1,12.8-4.9,15.6-10.9,1.2-2.6,2.6-5.7-.4-7.9-2.3-1.7-4.5-2.7-6.4-2.8-4.7-.3-9.2.7-13.4,3.1-.5.3-.7,1-.4,1.5,0,.1.2.3.3.4l.9.6c.4.3.5.8.2,1.2,0,.1-.2.3-.4.3-.7.3-1.3.4-1.6.3-.2,0-.4,0-.4.2,0,0,0,0,0,0l-.2,3.1ZM973.2,516.5c-.4-.6-1-1.5-2-2.7-1-1.3-1.7-3-2-5.1,0-.3-.3-.5-.5-.5h-2.7c-.2,0-.3.1-.3.3h0v6.2c0,.2.2.4.4.5l7,1.4s0,0,0,0c0,0,0,0,0,0ZM958.9,519.6c-1.2,0-3.4.1-6.8.2-1.3,0-2.3.3-3.2.8-.6.3-.7,1-.4,1.6,0,0,0,0,0,0,.4.6,1.1,1,2,1.2,3.6.6,6.5-.6,8.5-3.5,0,0,0-.2,0-.2,0,0,0,0,0,0Z"/>
          <path d="M938.7,532.6c.2,1.6-.5,2.5-2.1,2.8-3.2.6-5.4-1.4-7.8-3.9-6.5-6.7-12.1-17.5-8.6-26.9.2-.4.6-.7,1.1-.6h.6c.6.2,1,.7.9,1.3,0,0,0,0,0,.1-1.9,6.2,1.6,13.9,5.4,18.7,2.2,2.8,4.7,5.4,7.3,7.9.3.2.6.3,1,.3l1.6-.4c.4,0,.7.1.8.5,0,0,0,0,0,0Z"/>
          <path d="M957.1,543.9c0,.3.3.4.5.4,0,0,.2,0,.2,0,2.6-1.8,5.3-3.7,8.1-5.9,2.3-1.8,4.4-1.9,6.3-.5,2.7,2,3.5,8.1,8.1,6.5,3.4-1.1,6.5-2,9.3-2.5.8-.1,1.6.3,1.8,1.1,0,.3,0,.6-.4,1-2.7,2.6-5.6,4.4-8.4,5.5-6.2,2.3-11.2-1.2-13.2-7-.1-.3-.5-.5-.8-.4,0,0-.1,0-.2.1-3.6,3-7.1,5.5-10.5,7.6-2.9,1.7-5.3-.6-5.5-3.5,0-1.8,1.6-5.1,2.2-6.9.5-1.5,1.6-3.6,3.1-6.5.8-1.4,1.3-2.3,1.6-2.7.9-1.1,3-2.6,4.2-1.1.4.5.4,1.3-.1,1.6,0,0-.2.1-.3.2-.1,0-.4.1-.8.3-.3.1-.5.3-.7.6-1.7,3.5-3.2,7.1-4.3,10.8-.1.5-.2.8-.2,1.2Z"/>
          <path d="M982.6,556.8c-.1-.5.3-1.1.9-1.2,0,0,0,0,0,0,4-.9,12.7-1.2,14.7,3.1.4.8.4,2,0,3.6-1.1,4.8-3.9,8.5-8.5,10.9-.6.3-1.3,0-1.6-.6,0,0,0-.2-.1-.3-.2-.6,0-1.2.3-1.8.8-1.1,2.4-3.3,4.7-6.5.5-.7,1-1.9,1.4-3.7,0-.2,0-.5,0-.7-.3-.7-.9-1.1-2-1.2-2.6-.1-5-.2-7.2-.1-1.4,0-2.3-.2-2.6-1.6Z"/>
        </g>
      </g>
      <g id="guti_x5F_002">
        <g>
          <path class="cls-1" d="M948.6,512.5c.4-.3.5-.3.5-.3,5.1,0,6.4,0,6.8,0l2.4,4.6c-1.6-.2-2.7,0-3.3.4,0,0-.2.1-.3.1h-2.8c-.3,0-.6.1-.9.3-.1,0-.5.3-1.9.6-1.8.4-3.2,1.4-4.2,3-.1.2-.2.5-.3.8-.8,3.3.3,6,3.4,7.8,3.1,1.8,6.3,2.8,9.4,2.8s1.2,0,1.7,0c.3,0,.6-.1.8-.3,4-2.6,3.6-7.6,2.5-11.3,0,0,0-.1,0-.2,0-.1,0-.2.2-.3,0,0,.2,0,.3,0,1.1.2,2,.3,2.6,0,0,0,.2,0,.3,0,.2.3.5.4.8.4.4,0,.8-.1,1.3-.6.3-.3.4-.7.2-1l-.3-.5c1.1.6,2.5.8,3.9.7,5.8-.7,10.2-4.4,11.8-9.9.7-2.5.9-3.1,1-3.2.1-.3.1-.6,0-.9l-.7-3.2c0,0,0-.2,0-.2-2.1-3.7-4.8-4.4-9-5.5h-.1c-2.1-.6-5.2-1.1-7.9.5-1.1.7-1.6,1.8-1.5,3.2,0,.3.2.6.5.8l2.2,1.5c.3.2.7.2,1,0,.5-.3.6-.8.4-1.3l-.3-.5c.4,0,.7-.1,1.1-.3.2,0,.4-.1.6-.2,2.5,0,4.5.2,5.9.6,2.1.7,3.5,1.7,4.1,3,.7,1.5.5,3.4-.6,5.7-2.2,4.8-5.7,6.7-10.7,6-.6,0-1.2-.4-1.6-.9l-1.8-2.2s0,0,0-.1c0,0,0-.2.2-.2h6c0,0,.1,0,.2,0,.8-.1,1.4-.9,1.3-1.6v-.2c0-.9-.9-1.7-1.8-1.7h-6.8c0,0-.1,0-.1-.2,0-.6,0-1.1-.3-1.6-.1-.2-.2-.4-.2-.7-.1-2.1.2-4.7.9-7.6.2-.7.5-1.2.9-1.5.4-.3.7-.8.6-1.4,0-.1,0-.2,0-.3-.2-.4-.7-.5-1.1-.3-1.9,1-2.4,3.1-3.1,5.5-.1.4-.2.9-.4,1.3,0,.2,0,.4,0,.6v6s0,0,0,0h-4.3c-.1,0-.2,0-.3-.1-.6-.7-1.1-1.3-1.4-2-.4-.9-1.2-1.8-1.8-2.6-.4-.4-.7-.8-.9-1.1-1-1.5-2.3-2-4-1.7-.1,0-.3,0-.4.2-.4.3-.4.8-.1,1.2l5.1,6.2h-7.2c-.3,0-.5,0-.8.2h-.1c-.2.2-.4.2-.6.2-2.3,0-4.5.2-6.4.8,0,0-.2,0-.3,0-.8.4-1.1,1.4-.7,2.3.2.5.6.8,1.1,1,1.3.5,3.2,0,4-.4.1,0,.3-.1.5-.1h4.3c.3,0,.6-.1.8-.3ZM967.7,518.6h0s0,0,0,0c0,0,0,0,0,0ZM963.3,513.5c.7,1.5,1.6,2.8,2.7,3.9-.2-.1-.4-.3-.6-.4-.3-.2-.6-.3-1-.3h-2.6c-.2,0-.3,0-.4-.2l-2.4-4.1c0,0,0-.1.1-.1h3.9c0,0,.1,0,.1.1v.7c0,.2,0,.4.1.6ZM958.8,519.9s0,0,.1,0c.2,0,.4.1.4.3,0,0,.2.8.6,2.4.4,1.6.2,4.2-.9,5.4-.5.6-1.1.9-1.9.9-4-.2-7.2-1.8-8.8-4.3-.3-.6-.2-1.3.2-1.7.8-.7,1.6-1.1,2.4-1.3.6-.2,1.1-.3,1.7-.5,1.3-.4,2.4-.7,3.8-.7s.6,0,.9,0c.3,0,.7,0,1-.2l.4-.3ZM969,500.6h0,0s0,0,0,0ZM966.4,495.7h0s0,0,0,0h0Z"/>
          <path class="cls-1" d="M935.9,525.5c-3.5-7.9-6.2-16-8-24.2,0-.5-.5-.8-.9-.9-.7-.1-1.3.3-1.4,1-.2,1-.2,2.2.1,3.5,1.5,6.8,3.6,14.8,6.8,22.1,2.1,4.6,3.1,7,3.2,7.1,1.2,2.6,2.6,4.5,4,5.7.3.2.6.4,1,.4s0,0,0,0c1.2,0,1.9-.3,2-.8h0c.4-.9.3-1.8-.3-2.5-2.6-3.4-4.8-7.2-6.6-11.2Z"/>
          <path class="cls-1" d="M972.1,543.7c-.1-.3-.3-.5-.6-.7-1.7-1.1-3.4-2.1-5-3.1-.6-.4-1.4-1.1-2.3-2.1l2.4-.7c0,0,.1,0,.2,0h8.4c.3,0,.6-.2.7-.4,0,0,0,0,0,0h0c.1.2.3.3.5.3.2,0,.4,0,.5-.2l1-.8c.2-.2.4-.5.5-.8,0-.3,0-.7-.2-1-.2-.3-.5-.5-.8-.5-1.4-.2-2.6-.2-3.5.1-1.1.4-1.9.4-2.9.4-.4,0-.8,0-1.3,0-.3,0-.5,0-.8.2-.9.3-2.3.5-4.1.5l2.1-6.2c0-.2.2-.5.4-.6l.7-.6c.3-.3.4-.8.1-1.2l-.6-.7h0c-.3-.4-.9-.4-1.2,0-2.7,2.9-3.9,5.9-5,9.7,0,0-.1.1-.2.1-.5,0-1.3-.1-1.8,0-3.3.5-6.6,1-9.7,1.5-1.8.3-3.4.8-4.7,1.6-.5.3-.7.8-.6,1.4.2.6.8,1,1.5.8,3-.8,6.7-1.5,10.7-2.1.5,0,1-.1,1.4-.1,1,0,1.9-.1,2.9-.7,0,.9.2,2.2.8,3.9.1.3.3.6.6.7l5.8,3.3c0,0,.1,0,.2.1,0,.1.1.3.1.4,0,.2,0,.3-.2.4l-4.3,3.5c-.7.5-.9,1.4-.7,2.2v.3c0,0,.1.2.2.3.3.6,1,1,1.6,1s.5,0,.8-.2c1.8-.9,3.6-2.3,5.4-4.2,1.7-1.8,2-3.8,1-5.9ZM960.9,537.6h0s0,0,0,0c0,0,0,0,0,0Z"/>
          <path class="cls-1" d="M994.2,544.2c-.3-.2-.3-.4-.3-.4,0-.4-.2-.8-.6-1-.7-.3-1.3-.6-1.7-.9-.2-.2-.5-.3-.8-.3h-3.6s0,0-.1,0c-.2,0-.2-.3-.2-.4l.6-1.4c.1-.2.1-.5.1-.8-.1-1.1,0-1.5.1-1.6.1-.1.2-.3.2-.4,0-.5-.2-.9-.7-1h-.4c-.7-.2-1.3.2-1.6.8l-1.4,3.8c0,.2-.1.5,0,.8v.9c-.8-.3-1.3,0-1.6.4,0,0-.2.1-.3.1h-2.5s0,0,0,0c0-1.3.1-2.2.5-2.7.3-.4.3-.9.1-1.3-.3-.6-1-.8-1.6-.5-1.3.7-1.9,2-1.8,3.8,0,0,0,.2,0,.3-.3.4-.5.8-.6,1.4,0,.4.1.7.4,1,.2.2.2.3.2.3.3,1.1,1.3,1.9,2.4,1.8,1.5,0,2.8-.4,3.9-.9l-1,6.4c0,.4,0,.8.3,1.2.2.3.6.4,1,.5,0,0,0,0,0,0,.3,0,.7-.1.9-.4.7-.6,1.1-1.7,1.1-3.2,0,0,0,0,0,0l.5-.7c.2-.2.2-.5.1-.8-.3-1.1,0-2.1.6-3.2,0,0,.2-.2.3-.2.6,0,1.2-.1,1.6-.5.1,0,.3,0,.4,0,.4.3,1,.5,1.6.5h0s-2.3,2.7-2.3,2.7c-.1.2-.2.4-.2.6,0,1.5.7,2,1.3,2.1.8.2,1.5,0,2-.4,1.6-1.2,2.8-2.8,3.4-4.8.1-.5,0-.9-.4-1.2Z"/>
          <path class="cls-1" d="M977.7,554.2c-1.5-.6-2.9-.5-4.5-.5-.3,0-.7,0-1,0-.5,0-1,.3-1.2.8-.1.3-.1.7,0,1,.1.3.4.6.7.7.3.1.8,0,1.5-.4.2-.1.4-.2.6-.1,2.1.2,3.9,1.1,5.3,2.7,0,0,.1.2.1.3v1.8c0,.1,0,.2-.2.3-.7.6-1.4,1.4-2,2.6-.2.3-.2.7,0,1,.3.8.9,1.2,1.7,1.2,0,0,0,0,0,0,.3,0,.6-.1.8-.3,1.4-1.1,2.3-2.4,2.8-3.8.4-1.2.3-2.4-.4-3.7-.8-1.6-2.3-2.8-4.3-3.6Z"/>
        </g>
        <g>
          <path d="M948.6,512.5c.4-.3.5-.3.5-.3,5.1,0,6.4,0,6.8,0l2.4,4.6c-1.6-.2-2.7,0-3.3.4,0,0-.2.1-.3.1h-2.8c-.3,0-.6.1-.9.3-.1,0-.5.3-1.9.6-1.8.4-3.2,1.4-4.2,3-.1.2-.2.5-.3.8-.8,3.3.3,6,3.4,7.8,3.1,1.8,6.3,2.8,9.4,2.8s1.2,0,1.7,0c.3,0,.6-.1.8-.3,4-2.6,3.6-7.6,2.5-11.3,0,0,0-.1,0-.2,0-.1,0-.2.2-.3,0,0,.2,0,.3,0,1.1.2,2,.3,2.6,0,0,0,.2,0,.3,0,.2.3.5.4.8.4.4,0,.8-.1,1.3-.6.3-.3.4-.7.2-1l-.3-.5c1.1.6,2.5.8,3.9.7,5.8-.7,10.2-4.4,11.8-9.9.7-2.5.9-3.1,1-3.2.1-.3.1-.6,0-.9l-.7-3.2c0,0,0-.2,0-.2-2.1-3.7-4.8-4.4-9-5.5h-.1c-2.1-.6-5.2-1.1-7.9.5-1.1.7-1.6,1.8-1.5,3.2,0,.3.2.6.5.8l2.2,1.5c.3.2.7.2,1,0,.5-.3.6-.8.4-1.3l-.3-.5c.4,0,.7-.1,1.1-.3.2,0,.4-.1.6-.2,2.5,0,4.5.2,5.9.6,2.1.7,3.5,1.7,4.1,3,.7,1.5.5,3.4-.6,5.7-2.2,4.8-5.7,6.7-10.7,6-.6,0-1.2-.4-1.6-.9l-1.8-2.2s0,0,0-.1c0,0,0-.2.2-.2h6c0,0,.1,0,.2,0,.8-.1,1.4-.9,1.3-1.6v-.2c0-.9-.9-1.7-1.8-1.7h-6.8c0,0-.1,0-.1-.2,0-.6,0-1.1-.3-1.6-.1-.2-.2-.4-.2-.7-.1-2.1.2-4.7.9-7.6.2-.7.5-1.2.9-1.5.4-.3.7-.8.6-1.4,0-.1,0-.2,0-.3-.2-.4-.7-.5-1.1-.3-1.9,1-2.4,3.1-3.1,5.5-.1.4-.2.9-.4,1.3,0,.2,0,.4,0,.6v6s0,0,0,0h-4.3c-.1,0-.2,0-.3-.1-.6-.7-1.1-1.3-1.4-2-.4-.9-1.2-1.8-1.8-2.6-.4-.4-.7-.8-.9-1.1-1-1.5-2.3-2-4-1.7-.1,0-.3,0-.4.2-.4.3-.4.8-.1,1.2l5.1,6.2h-7.2c-.3,0-.5,0-.8.2h-.1c-.2.2-.4.2-.6.2-2.3,0-4.5.2-6.4.8,0,0-.2,0-.3,0-.8.4-1.1,1.4-.7,2.3.2.5.6.8,1.1,1,1.3.5,3.2,0,4-.4.1,0,.3-.1.5-.1h4.3c.3,0,.6-.1.8-.3ZM967.7,518.6h0s0,0,0,0c0,0,0,0,0,0ZM963.3,513.5c.7,1.5,1.6,2.8,2.7,3.9-.2-.1-.4-.3-.6-.4-.3-.2-.6-.3-1-.3h-2.6c-.2,0-.3,0-.4-.2l-2.4-4.1c0,0,0-.1.1-.1h3.9c0,0,.1,0,.1.1v.7c0,.2,0,.4.1.6ZM958.8,519.9s0,0,.1,0c.2,0,.4.1.4.3,0,0,.2.8.6,2.4.4,1.6.2,4.2-.9,5.4-.5.6-1.1.9-1.9.9-4-.2-7.2-1.8-8.8-4.3-.3-.6-.2-1.3.2-1.7.8-.7,1.6-1.1,2.4-1.3.6-.2,1.1-.3,1.7-.5,1.3-.4,2.4-.7,3.8-.7s.6,0,.9,0c.3,0,.7,0,1-.2l.4-.3ZM969,500.6h0,0s0,0,0,0ZM966.4,495.7h0s0,0,0,0h0Z"/>
          <path d="M935.9,525.5c-3.5-7.9-6.2-16-8-24.2,0-.5-.5-.8-.9-.9-.7-.1-1.3.3-1.4,1-.2,1-.2,2.2.1,3.5,1.5,6.8,3.6,14.8,6.8,22.1,2.1,4.6,3.1,7,3.2,7.1,1.2,2.6,2.6,4.5,4,5.7.3.2.6.4,1,.4s0,0,0,0c1.2,0,1.9-.3,2-.8h0c.4-.9.3-1.8-.3-2.5-2.6-3.4-4.8-7.2-6.6-11.2Z"/>
          <path d="M972.1,543.7c-.1-.3-.3-.5-.6-.7-1.7-1.1-3.4-2.1-5-3.1-.6-.4-1.4-1.1-2.3-2.1l2.4-.7c0,0,.1,0,.2,0h8.4c.3,0,.6-.2.7-.4,0,0,0,0,0,0h0c.1.2.3.3.5.3.2,0,.4,0,.5-.2l1-.8c.2-.2.4-.5.5-.8,0-.3,0-.7-.2-1-.2-.3-.5-.5-.8-.5-1.4-.2-2.6-.2-3.5.1-1.1.4-1.9.4-2.9.4-.4,0-.8,0-1.3,0-.3,0-.5,0-.8.2-.9.3-2.3.5-4.1.5l2.1-6.2c0-.2.2-.5.4-.6l.7-.6c.3-.3.4-.8.1-1.2l-.6-.7h0c-.3-.4-.9-.4-1.2,0-2.7,2.9-3.9,5.9-5,9.7,0,0-.1.1-.2.1-.5,0-1.3-.1-1.8,0-3.3.5-6.6,1-9.7,1.5-1.8.3-3.4.8-4.7,1.6-.5.3-.7.8-.6,1.4.2.6.8,1,1.5.8,3-.8,6.7-1.5,10.7-2.1.5,0,1-.1,1.4-.1,1,0,1.9-.1,2.9-.7,0,.9.2,2.2.8,3.9.1.3.3.6.6.7l5.8,3.3c0,0,.1,0,.2.1,0,.1.1.3.1.4,0,.2,0,.3-.2.4l-4.3,3.5c-.7.5-.9,1.4-.7,2.2v.3c0,0,.1.2.2.3.3.6,1,1,1.6,1s.5,0,.8-.2c1.8-.9,3.6-2.3,5.4-4.2,1.7-1.8,2-3.8,1-5.9ZM960.9,537.6h0s0,0,0,0c0,0,0,0,0,0Z"/>
          <path d="M994.2,544.2c-.3-.2-.3-.4-.3-.4,0-.4-.2-.8-.6-1-.7-.3-1.3-.6-1.7-.9-.2-.2-.5-.3-.8-.3h-3.6s0,0-.1,0c-.2,0-.2-.3-.2-.4l.6-1.4c.1-.2.1-.5.1-.8-.1-1.1,0-1.5.1-1.6.1-.1.2-.3.2-.4,0-.5-.2-.9-.7-1h-.4c-.7-.2-1.3.2-1.6.8l-1.4,3.8c0,.2-.1.5,0,.8v.9c-.8-.3-1.3,0-1.6.4,0,0-.2.1-.3.1h-2.5s0,0,0,0c0-1.3.1-2.2.5-2.7.3-.4.3-.9.1-1.3-.3-.6-1-.8-1.6-.5-1.3.7-1.9,2-1.8,3.8,0,0,0,.2,0,.3-.3.4-.5.8-.6,1.4,0,.4.1.7.4,1,.2.2.2.3.2.3.3,1.1,1.3,1.9,2.4,1.8,1.5,0,2.8-.4,3.9-.9l-1,6.4c0,.4,0,.8.3,1.2.2.3.6.4,1,.5,0,0,0,0,0,0,.3,0,.7-.1.9-.4.7-.6,1.1-1.7,1.1-3.2,0,0,0,0,0,0l.5-.7c.2-.2.2-.5.1-.8-.3-1.1,0-2.1.6-3.2,0,0,.2-.2.3-.2.6,0,1.2-.1,1.6-.5.1,0,.3,0,.4,0,.4.3,1,.5,1.6.5h0s-2.3,2.7-2.3,2.7c-.1.2-.2.4-.2.6,0,1.5.7,2,1.3,2.1.8.2,1.5,0,2-.4,1.6-1.2,2.8-2.8,3.4-4.8.1-.5,0-.9-.4-1.2Z"/>
          <path d="M977.7,554.2c-1.5-.6-2.9-.5-4.5-.5-.3,0-.7,0-1,0-.5,0-1,.3-1.2.8-.1.3-.1.7,0,1,.1.3.4.6.7.7.3.1.8,0,1.5-.4.2-.1.4-.2.6-.1,2.1.2,3.9,1.1,5.3,2.7,0,0,.1.2.1.3v1.8c0,.1,0,.2-.2.3-.7.6-1.4,1.4-2,2.6-.2.3-.2.7,0,1,.3.8.9,1.2,1.7,1.2,0,0,0,0,0,0,.3,0,.6-.1.8-.3,1.4-1.1,2.3-2.4,2.8-3.8.4-1.2.3-2.4-.4-3.7-.8-1.6-2.3-2.8-4.3-3.6Z"/>
        </g>
      </g>
      <g id="guti_x5F_001">
        <g>
          <path class="cls-1" d="M969.2,512c.1,0,.3.1.4.1s.2,0,.3,0c.2,0,.4-.2.6-.5.4-.8.7-1.9.9-3.1.5-4,.7-9.2.9-15.3h0c0-.9-.7-1.6-1.6-1.5-.9,0-1.6.7-1.7,1.6-.5,3.9-.8,7.8-.9,11.6,0,2.3.2,4.5.8,6.6,0,.2.2.5.5.6Z"/>
          <path class="cls-1" d="M944,533.7c.8,0,1.4.1,2,.3.7.2,1.5.4,2.5.3.3,0,1.1,0,3.3.5.7.2,2.7.3,6.1.3s1.7,0,2.6,0h0c.4,0,.7-.3.8-.7.3-1.1.3-2.1,0-3.2,0-.3-.3-.5-.6-.6l-2.1-.6c-.2,0-.5,0-.7,0-.8.3-1.7.4-2.7.1-1.4-.3-2.3-.5-2.9-.5-1.8,0-2.9,0-3.3,0-.1,0-.3,0-.4-.1-.2-.1-.8-.3-3.3-.6-1.9-.2-3.5-.7-4.6-1.5-.5-.3-.7-1-.5-1.5,2.2-5.8,6.8-10.5,11.8-15.1,2-1.8,4.1-3.2,6.4-4.1,0,0,.1,0,.1.1v.7c.2,3,.3,4.8,2.9,7.2.3.3.7.4,1,.3,1.1-.1,1.5-.8,1.6-1.4,0-.4,0-.7-.4-1-.2-.1-.4-.2-.7-.3-.1,0-.2-.1-.2-.3,0-.9-.2-1.6-.3-2.4-.3-2.5-.5-4.5-.6-7.6,0-1.9,0-3.9-.2-6.1,0-.6-.5-1-1.1-1.1h-.3c-.7,0-1.3.5-1.3,1.2l-.4,7.1h0c0,0,0,.1-.2.1-4.6,0-9.6,5.2-12.9,8.6l-.7.7c-1.1,1.1-2.3,2.6-3.7,4.4-1.8,2.3-2.9,3.8-3.4,4.6-1.7,2.7-3.4,5.8-.9,8.7,1.3,1.5,4.5,3.5,7.1,3.4Z"/>
          <path class="cls-1" d="M969.3,548.5c-.2-.2-.5-.5-.7-.7-.7-.5-2-1.3-3.8-2.4,0,0-.3-.2-.8-1.6,0,0,0,0,0,0,0,0,0,0,0-.1,0,0,0,0,.1,0l10.7,1.7c.3,0,.6,0,.9-.2.3-.2.4-.5.5-.8v-.4c.2-.8-.4-1.6-1.2-1.8l-8.4-1.4c0,0-.2,0-.3,0h-.7c0,0,0,0,0,0,0,0-.1,0-.2,0-.2,0-.2-.3-.1-.4l3.2-5.6c.4-.7.2-1.6-.5-2.1-.7-.5-1.7-.3-2.2.4l-4.6,6.6c-.3.4-.8.6-1.3.5l-2.8-.7c-.3,0-.7-.1-1,0-3.2.1-6.4,0-9.7-.5-1.9-.3-3.7-.1-5.2.4-.1,0-.3.1-.4.2-.7.5-.8,1.5-.3,2.3.4.6,1,.9,1.9.9.5,0,3.6,0,9.4,0,.3,0,.5,0,.8.1,2.2.6,4.7.7,7.5.4l-.4.7c-.2.3-.2.7,0,1.1,1.6,3.8,3.7,5,7.1,6.9h.1c0,0-2.9,3.7-2.9,3.7,0,0-.1.2-.2.3-.4.9-.7,1.4-.8,1.7,0,.1-.1.3-.1.4-.3,1.1.5,2.3,1.8,2.7.1,0,.2,0,.4,0,.2,0,.3,0,.5-.1.2-.1.4-.4.5-.8,0,0,0-.2.2-.3,2.2-1.6,3.8-3.5,4.9-5.8.9-2.1-.3-3.9-1.6-5.3Z"/>
          <path class="cls-1" d="M979.6,558.5c-3.6-.7-6.6-1.1-8.9-1.2-.8,0-1.4.5-1.6,1.2h0c0,.1,0,.1,0,.1,0,.1,0,.2,0,.3,0,.3.1.6.4.8.2.2.5.3.8.3,3.1-.2,6.3,0,9.3.8,1,.2,1.8.9,2,1.6.1.5,0,1-.6,1.5-.9.8-1.8,1.8-2.6,2.7-.2.2-.3.4-.3.7-.1.4,0,.8.2,1.1.2.3.5.5.8.6.2,0,.3,0,.5,0,2.2,0,4.4-3.1,4.9-4.8,0-.3.1-.6,0-.9-.2-2.6-1.8-4.3-4.8-4.9Z"/>
        </g>
        <g>
          <path d="M969.2,512c.1,0,.3.1.4.1s.2,0,.3,0c.2,0,.4-.2.6-.5.4-.8.7-1.9.9-3.1.5-4,.7-9.2.9-15.3h0c0-.9-.7-1.6-1.6-1.5-.9,0-1.6.7-1.7,1.6-.5,3.9-.8,7.8-.9,11.6,0,2.3.2,4.5.8,6.6,0,.2.2.5.5.6Z"/>
          <path d="M944,533.7c.8,0,1.4.1,2,.3.7.2,1.5.4,2.5.3.3,0,1.1,0,3.3.5.7.2,2.7.3,6.1.3s1.7,0,2.6,0h0c.4,0,.7-.3.8-.7.3-1.1.3-2.1,0-3.2,0-.3-.3-.5-.6-.6l-2.1-.6c-.2,0-.5,0-.7,0-.8.3-1.7.4-2.7.1-1.4-.3-2.3-.5-2.9-.5-1.8,0-2.9,0-3.3,0-.1,0-.3,0-.4-.1-.2-.1-.8-.3-3.3-.6-1.9-.2-3.5-.7-4.6-1.5-.5-.3-.7-1-.5-1.5,2.2-5.8,6.8-10.5,11.8-15.1,2-1.8,4.1-3.2,6.4-4.1,0,0,.1,0,.1.1v.7c.2,3,.3,4.8,2.9,7.2.3.3.7.4,1,.3,1.1-.1,1.5-.8,1.6-1.4,0-.4,0-.7-.4-1-.2-.1-.4-.2-.7-.3-.1,0-.2-.1-.2-.3,0-.9-.2-1.6-.3-2.4-.3-2.5-.5-4.5-.6-7.6,0-1.9,0-3.9-.2-6.1,0-.6-.5-1-1.1-1.1h-.3c-.7,0-1.3.5-1.3,1.2l-.4,7.1h0c0,0,0,.1-.2.1-4.6,0-9.6,5.2-12.9,8.6l-.7.7c-1.1,1.1-2.3,2.6-3.7,4.4-1.8,2.3-2.9,3.8-3.4,4.6-1.7,2.7-3.4,5.8-.9,8.7,1.3,1.5,4.5,3.5,7.1,3.4Z"/>
          <path d="M969.3,548.5c-.2-.2-.5-.5-.7-.7-.7-.5-2-1.3-3.8-2.4,0,0-.3-.2-.8-1.6,0,0,0,0,0,0,0,0,0,0,0-.1,0,0,0,0,.1,0l10.7,1.7c.3,0,.6,0,.9-.2.3-.2.4-.5.5-.8v-.4c.2-.8-.4-1.6-1.2-1.8l-8.4-1.4c0,0-.2,0-.3,0h-.7c0,0,0,0,0,0,0,0-.1,0-.2,0-.2,0-.2-.3-.1-.4l3.2-5.6c.4-.7.2-1.6-.5-2.1-.7-.5-1.7-.3-2.2.4l-4.6,6.6c-.3.4-.8.6-1.3.5l-2.8-.7c-.3,0-.7-.1-1,0-3.2.1-6.4,0-9.7-.5-1.9-.3-3.7-.1-5.2.4-.1,0-.3.1-.4.2-.7.5-.8,1.5-.3,2.3.4.6,1,.9,1.9.9.5,0,3.6,0,9.4,0,.3,0,.5,0,.8.1,2.2.6,4.7.7,7.5.4l-.4.7c-.2.3-.2.7,0,1.1,1.6,3.8,3.7,5,7.1,6.9h.1c0,0-2.9,3.7-2.9,3.7,0,0-.1.2-.2.3-.4.9-.7,1.4-.8,1.7,0,.1-.1.3-.1.4-.3,1.1.5,2.3,1.8,2.7.1,0,.2,0,.4,0,.2,0,.3,0,.5-.1.2-.1.4-.4.5-.8,0,0,0-.2.2-.3,2.2-1.6,3.8-3.5,4.9-5.8.9-2.1-.3-3.9-1.6-5.3Z"/>
          <path d="M979.6,558.5c-3.6-.7-6.6-1.1-8.9-1.2-.8,0-1.4.5-1.6,1.2h0c0,.1,0,.1,0,.1,0,.1,0,.2,0,.3,0,.3.1.6.4.8.2.2.5.3.8.3,3.1-.2,6.3,0,9.3.8,1,.2,1.8.9,2,1.6.1.5,0,1-.6,1.5-.9.8-1.8,1.8-2.6,2.7-.2.2-.3.4-.3.7-.1.4,0,.8.2,1.1.2.3.5.5.8.6.2,0,.3,0,.5,0,2.2,0,4.4-3.1,4.9-4.8,0-.3.1-.6,0-.9-.2-2.6-1.8-4.3-4.8-4.9Z"/>
        </g>
      </g>
    </g>
  </g>
</svg>