<?xml version="1.0" encoding="UTF-8"?>
<svg xmlns="http://www.w3.org/2000/svg" version="1.1" viewBox="0 0 1920 1080">
  <defs>
    <style>
      .cls-1 {
        fill: #fff;
      }

      .cls-2 {
        stroke: #fff;
        stroke-linecap: round;
        stroke-linejoin: round;
        stroke-width: 3px;
      }
    </style>
  </defs>
  <!-- Generator: Adobe Illustrator 28.7.10, SVG Export Plug-In . SVG Version: 1.2.0 Build 236)  -->
  <g>
    <g id="_レイヤー_1" data-name="レイヤー_1">
      <g id="specific">
        <g id="kyu_x5F_001">
          <g>
            <g>
              <path class="cls-1" d="M948.2,522.1c2.8-1.4,5.9-2.4,8.8-3.6s5.4-1.8,7.5-3.6.3-4.6-1.8-4.3c-6.1.6-12.1,5.1-16.5,9s.4,3.2,1.9,2.5h0Z"/>
              <path class="cls-1" d="M952.5,528.9c2-1.6,4.2-3,6.5-4s4.9-1.5,6.7-3.4.4-4.2-1.8-4.3c-5.6-.3-11.4,4.3-15.3,7.8s1.2,6,3.9,3.9h0Z"/>
              <path class="cls-1" d="M953.2,512.1c1.7,2,2.8,6,3.8,8.4s1.7,5.4,3.2,7.8l1.7-4.1c-4.7,1.2-13,5-9.7,11.5s9.2,4.4,13.4,3.3,2.8-6.7-.8-6.2-3.7.6-5.3.1-1.7.2-1.3-1.2,4.1-1.8,5.2-2.1c1.7-.5,2.6-2.6,1.7-4.1-1.8-2.9-2.8-6.3-4.3-9.4s-2.1-5.7-4.2-7.3-5.3,1-3.3,3.3h0Z"/>
              <path class="cls-1" d="M961.1,542.8c.9,1.6,2,3.5,4,3.7s3-1.5,4.2-2.9.6-.6.9-.9.9-.5.9-.5c0,0-.9-.8-.9-.8-.3-.2.2-.5-.1,0s-1.1,2-1.6,3c-1.2,2.3,1.4,5.7,3.9,3.9s4.2-7.8.7-9.9-4.3-.1-5.9,1.2-1.4,1.5-2,2.3c-.1.2-.3.4-.5.5.7,0,.9,0,.5-.4,0-.3-.7-.9-.9-1.2-1.4-2-4.5-.3-3.3,1.9h0Z"/>
              <path class="cls-1" d="M965.3,538.4c.2,2,.4,4.1.4,6.1s0,3.6.8,5.3,1.4,1,2.1.5c3.9-2.5,2.4-8.1,2-11.9s-5.5-3.4-5.2,0h0Z"/>
              <path class="cls-1" d="M966.7,567.9c-2.6-1.2-5-3-6.2-5.7s-.5-3.5-.7-3.8c-.5,1-1.1,1.4-1.9,1.2-.3,0-.2,0,.3.2.3.3.8.5,1.1.7,1.5.9,3.2,2,5,1.5s3.4-5.5,5.8-5.2l-1.8-1c.9,1.4-4.5,7.6-5.5,8.7-2.9,3.4.8,9,5,6.5s4.1-5.1,5.3-8.3,1.5-5.8-.1-8.3-4.6-2.2-7-1.3-2.8,1.3-3.4,2.5.7.2.7.6c0,0-1-.6-1.1-.6-1.6-.9-3.6-2-5.5-1.4s-3,3.8-2.7,6.2c.8,5.9,5.4,11.7,11.9,11s2.8-2.7.9-3.5h0Z"/>
            </g>
            <g>
              <path d="M947.7,521.3c5-2.9,10.6-4.4,15.6-7.3s.4-2.4-.9-2.1c-5.5,1.5-10.9,4.6-15.4,8.1s0,1.7.7,1.2h0Z"/>
              <path d="M951.4,527.8c2-1.6,4-3.1,6.3-4.2s4.7-1.6,6.8-2.9.4-2.3-.9-2c-5.3,1-9.9,4-14,7.4s.5,2.7,1.7,1.7h0Z"/>
              <path d="M954.1,511.2c1.8,2,3.2,6.4,4.2,8.8s1.8,5.2,3.2,7.6l.7-1.8c-3.6.9-11.3,3.7-8.6,9.1s8.1,3.2,11.4,2.5,1-3-.7-2.7-4.4.7-6,0-2.3-2.2-1.3-4,4-1.9,5.9-2.5,1.2-1.1.7-1.8c-1.8-2.9-2.7-6.4-4.2-9.4s-2-5.5-3.9-7.1-2.4.5-1.5,1.5h0Z"/>
              <path d="M962,542.3c.7,1.3,1.7,3.1,3.4,3s2.3-1.9,3.3-2.8,2.2-2,2.7-1.4,0,1.1-.1,1.5c-.4,1.1-1.6,2.3-1.6,3.5s.5,1.1,1.1,1.1c2.7,0,3.8-5.9,2-7.5s-3.4-.2-4.6.7-1.4,1.4-2,2.2c-1.2,1.4-2-.1-2.7-1.2s-2,0-1.5.9h0Z"/>
              <path d="M966.7,538.4c.4,3.6.3,7.1.4,10.6s.9.9,1.2.3c2-3.2,1.1-7.4.7-11s-2.5-1.5-2.3,0h0Z"/>
              <path d="M966,568.8c-4.1-1.2-8-5-7.9-9.5s-.3-.9.5-1,1.3.8,1.7,1c.7.4,1.5,1,2.4,1.2s1.5,0,2.1-.6c1.2-1.1,2.2-4.6,4.4-4.2s-3.9,9.7-4.8,10.5c-1.5,1.4.5,4.1,2.2,2.9,2.4-1.7,3.4-4.5,4.6-7.2s1.8-5,.3-7-3-1.3-4.6-.6-2.3,1.3-3.1,2.4-.3,1.1-1,1.2-1-.6-1.3-.7c-1.2-.7-2.8-1.9-4.3-1.4s-1.8,2.8-1.7,4.3c.6,5.4,4.7,10.1,10.3,10.4s1.1-1.4.2-1.6h0Z"/>
            </g>
          </g>
        </g>
        <g id="suri_x5F_001">
          <g>
            <g>
              <path class="cls-2" d="M949.3,527.2c6.8-4.1,13.4-7.5,21.2-9.5s1.3-3-.4-3.1c-3.6-.3-7.3,1.5-10.5,3.1s-8,4.3-11.8,6.9-.2,3.7,1.6,2.7h0Z"/>
              <path class="cls-2" d="M959.1,544.4c.4,1.6,1.2,3.6,2.9,4.2s3.4-1.3,3.6-3-.8-.9-1.2-.5-1.1,1.5-1.8,1.1-1.2-1.6-1.5-2.3c-.5-1.2-2.3-.7-1.9.5h0Z"/>
              <path class="cls-2" d="M968.6,539.3c0,2.9.7,6,0,8.8s-3,4.1-4.7,6.1,0,2.2,1,1.8c2.7-1,5-2.6,6.2-5.3s.7-7.6.4-11.4-2.9-1.8-2.8,0h0Z"/>
              <path class="cls-2" d="M967.8,565.8c-2.2-.9-4.3-2-4.7-4.7s.8-.7,1.6,0,1.2,1,1.9,1.4,1.1.2,1.6-.2c.7-.6,1.2-1.3,1.8-2s.8-.7,1-1c0,0,.8-.7,0-.2s-.3.2-.4,1c-.3,3.3-2.6,5.4-4.5,7.9s.2,1.7.9,1.6c2.7-.3,4.1-2.3,5.1-4.7s1.5-4.6.8-6.8c-1.5-4.1-5,1.1-6.4,2.3l1.6-.2c-1.4-.8-2.4-2.3-4-2.7s-2.9.6-3.3,2.1.5,4.1,1.7,5.6,3,2.3,4.9,3,2.2-1.9.7-2.5h0Z"/>
              <path class="cls-2" d="M965.9,527.1c.6-5.2-2.5-11.5-3.5-16-.2-1.2-2-.7-1.8.5.7,4,2.3,7.8,2.8,11.8,0,.3.1.6.1,1,0,0,0,0,0,0-4-2.8-7.5,2.1-6.4,6.1,1.1,4.1,5,3.7,7.2.7,0,0,0,0,0,0,0,.5-.2,1-.4,1.7-.4,1.6-1.1,3-2.3,4.2-1.5,1.8,1.2,3.9,2.6,2,2.2-3.1,3.5-8.2,1.6-11.9ZM962.3,528.4c-.2,1.9-1.7,2.7-2.5,1s1-3.1,1-3.1c.7,0,1.7.2,1.5,2.2Z"/>
            </g>
            <g>
              <path d="M949.3,527.2c6.8-4.1,13.4-7.5,21.2-9.5s1.3-3-.4-3.1c-3.6-.3-7.3,1.5-10.5,3.1s-8,4.3-11.8,6.9-.2,3.7,1.6,2.7h0Z"/>
              <path d="M959.1,544.4c.4,1.6,1.2,3.6,2.9,4.2s3.4-1.3,3.6-3-.8-.9-1.2-.5-1.1,1.5-1.8,1.1-1.2-1.6-1.5-2.3c-.5-1.2-2.3-.7-1.9.5h0Z"/>
              <path d="M968.6,539.3c0,2.9.7,6,0,8.8s-3,4.1-4.7,6.1,0,2.2,1,1.8c2.7-1,5-2.6,6.2-5.3s.7-7.6.4-11.4-2.9-1.8-2.8,0h0Z"/>
              <path d="M967.8,565.8c-2.2-.9-4.3-2-4.7-4.7s.8-.7,1.6,0,1.2,1,1.9,1.4,1.1.2,1.6-.2c.7-.6,1.2-1.3,1.8-2s.8-.7,1-1c0,0,.8-.7,0-.2s-.3.2-.4,1c-.3,3.3-2.6,5.4-4.5,7.9s.2,1.7.9,1.6c2.7-.3,4.1-2.3,5.1-4.7s1.5-4.6.8-6.8c-1.5-4.1-5,1.1-6.4,2.3l1.6-.2c-1.4-.8-2.4-2.3-4-2.7s-2.9.6-3.3,2.1.5,4.1,1.7,5.6,3,2.3,4.9,3,2.2-1.9.7-2.5h0Z"/>
              <path d="M965.9,527.1c.6-5.2-2.5-11.5-3.5-16-.2-1.2-2-.7-1.8.5.7,4,2.3,7.8,2.8,11.8,0,.3.1.6.1,1,0,0,0,0,0,0-4-2.8-7.5,2.1-6.4,6.1,1.1,4.1,5,3.7,7.2.7,0,0,0,0,0,0,0,.5-.2,1-.4,1.7-.4,1.6-1.1,3-2.3,4.2-1.5,1.8,1.2,3.9,2.6,2,2.2-3.1,3.5-8.2,1.6-11.9ZM962.3,528.4c-.2,1.9-1.7,2.7-2.5,1s1-3.1,1-3.1c.7,0,1.7.2,1.5,2.2Z"/>
            </g>
          </g>
        </g>
      </g>
    </g>
  </g>
</svg>