<?xml version="1.0" encoding="UTF-8"?>
<svg xmlns="http://www.w3.org/2000/svg" version="1.1" viewBox="0 0 1920 1080">
  <defs>
    <style>
      .cls-1 {
        stroke: #fff;
        stroke-linecap: round;
        stroke-linejoin: round;
        stroke-width: 4px;
      }

      .cls-1, .cls-2 {
        fill: #fff;
      }

      .cls-3 {
        fill: #f96;
      }

      .cls-4 {
        display: none;
      }
    </style>
  </defs>
  <!-- Generator: Adobe Illustrator 28.7.10, SVG Export Plug-In . SVG Version: 1.2.0 Build 236)  -->
  <g>
    <g id="_レイヤー_1" data-name="レイヤー_1">
      <g id="_レイヤー_1-2" data-name="_レイヤー_1">
        <g id="specific">
          <g id="_x2A_bg" class="cls-4">
            <g id="_x2A_bg-2">
              <rect class="cls-3" x="890.8" y="441.4" width="138.4" height="197.3"/>
            </g>
          </g>
          <g id="_x2A_omake">
            <g id="diochu_x5F_001">
              <g>
                <path class="cls-1" d="M964.6,495.2c0-.2-.2-.3-.4-.3,0,0-.2,0-.2.1-4.6,4.7-8.2,9.9-10.6,15.7,0,.1,0,.3.2.4h.2l8.5-4c1-.4,2.1-.1,2.6.8v.2c.4.6.2,1.4-.5,1.8h-.3c-4.1,1-8.2,2.9-12.5,5.6-.3.2-.6.3-.7.4-.5,0-1.1-.2-1.2-.8v-.3c0-1.3,0-2.2-.3-3v-.8l2.7-5.5v-.3c-2.5-2.1-4.3-4.6-5.3-7.6-1.7-4.6-2.9-7.8-3.6-9.7-.2-.6-.4-1.4-.6-2.4,0-.6,0-1.3.6-1.7l2.7-2.2c.3-.2.7-.2.9,0v.3c1.5,6.8,3.7,13.4,6.6,19.7,0,.3.5.5.9.3,0,0,.2-.1.3-.3,2.7-4.4,5.8-8.2,9.4-11.3.2-.2.3-.4.3-.7,0-5.7,0-10.8,1.2-16.4.3-1,1.3-1.7,2.4-1.4h0l.7.2c1,.3,1.6,1.3,1.6,2.3-.9,10.1-1.4,15.7-1.5,17.1-.2,3.7,0,6.9.4,9.8,0,.3,0,.6-.3.8-1.3,1.1-2.4.9-3.3-.7,0-.2-.2-.4-.2-.6l-.8-5.7v.2h0Z"/>
                <path class="cls-1" d="M971.4,502.4c-.3,0-.5-.3-.5-.6h0c1.2-13.2,2.4-23.8,2.8-23.7h1.7c.4.1-.3,10.7-1.4,23.8h0c0,.5-.3.7-.6.7l-1.9-.2h0Z"/>
                <path class="cls-1" d="M960.1,532.9c0-.2,0-.4-.2-.4h-.3l-5.9,4.8c-.4.3-.7.8-.8,1.3-.2,1.1-.3,1.7-.4,1.9-.3.9-1.2,1.4-2.2,1.1h-.2c-.9-.4-1.3-1.2-1-2.6.5-3.6,1-6.2,1.4-7.9,0-.2,0-.5-.4-.6h-.3l-4.9,2.8c-.7.4-1.6.3-2.3-.2h0c-.6-.9-.5-1.9.3-2.5,0,0,.2,0,.2-.2l8-4.4s.2-.2.3-.4c.8-3.1,1.3-5,1.5-5.7.5-1.6,1.4-2,2.9-1.3.4.2.7.6.7,1.1,0,1.4-.4,2.7-1,4v.4h.2c.7-.3,2.9-1.3,6.6-3,1.3-.6,3-.7,3.6,1,.3.8,0,1.5-.9,2.2-.2,0-.4.2-.6.2-1.1.2-1.8.3-2.1.4-2.1.8-4.6,1.8-7.5,3.1-.2,0-.4.3-.5.6l-.9,4.4c0,.2,0,.3.2.3h.3c1.6-1.3,9.6-8,9.6-1.8s0,.4,0,.6c-2.6,4.5-4.9,9.4-7,14.8-.3.7-1,1-1.7.7h-.2c-.7-.4-.9-1.3-.6-2l6.2-12.8h0Z"/>
                <path class="cls-1" d="M966.2,543.7c0,.2,0,.4.2.4h.3c1.3-.8,2.4-1.8,3.2-2.8v-.3l.7-9.6c0-.6.5-1,1.1-1.1h0c.6,0,1.1.5,1.1,1.1h0l-.8,7.1c0,.2,0,.3.2.3h.2c1.4-1,2.4-1.6,3.1-2,.7-.4,1.5-.2,1.8.3v.2c.3.9.3,1.6-.4,2.4-1.4,1.8-2.5,3.8-3.4,6,0,.2-.3.4-.6.4h-.9c-.2,0-.4.2-.4.4v5.5c0,.5-.4.9-.9.9h-.2c-.4,0-.8-.3-.9-.7-.3-1.8-.4-3.3-.3-4.3.2-1.3.3-2.2.4-2.6,0-.2,0-.4-.3-.4h-.3l-3,3c-.2.2-.3.6-.2.9.4.9,0,1.6-1,2.2-.7.4-1.6.3-2-.3s-.7-1.2-.9-1.9v-.6c.4-2.3.6-4.9.6-7.7s.5-1.6,1.3-1.9c.9-.4,2.1,0,2.4,1.1.3,1.2.2,2.5-.3,4h.2ZM972.9,541.6c-.2,0-.6,0-.8.5s-.3.9,0,1h0c.2,0,.6,0,.8-.5s.3-.9,0-1h0Z"/>
                <path class="cls-1" d="M964.8,562.1l-5.4,3.7c-.2,0-.3.3-.3.4h0c-.2.7-.8.9-1.4.7-.3,0-.5-.4-.6-.7-1.1-3.7,7.1-7.7,10.1-8.7.8-.3,1.5-.2,2.1,0,.8.4,1.1,1.3.8,2.1v.2c-1.3,1.7-2.4,3.9-3.4,6.6-.2.7-1,1-1.7.8h0c-.7-.2-1.1-1-.8-1.7v-.2l1.5-2.7c0-.2,0-.5-.2-.6h-.7Z"/>
                <path class="cls-1" d="M956.5,579.3c0,.3.5.4.8.3h.2c2-2.2,7.5-5.5,9-1.1,1,2.7-1.3,8.1-2.7,11.1-1.7,3.6-3.8,7.6-6.1,12,0,0,0,.3-.2.4l-.6,2v.2l-2.1,3.3c-.4.6-1.1.9-1.8.7h0c-.6-.2-1-.8-.8-1.4v-.3l.9-1.7c0-.2,0-.5-.2-.6-5.6-3.8-7.3-13.2-6.9-19.6.2-3.3,1.8-7.3,5.5-7.9,2.4-.4,4.1.6,5.2,2.7h-.2ZM955.4,601.4s0-.2.3-.6c1.5-2.8,3.3-6.3,5.4-10.6,1.6-3.4,3.4-7.5,3-11,0-.2-.2-.4-.4-.4h0c-1.9.6-3.5,1.8-4.9,3.6,0,.2-.2.4-.2.6v1.5c0,.7-.6,1.3-1.4,1.6-1.4.4-2.1-.9-2.4-2.1-.4-1.6-1-2.8-1.7-3.8-.2-.3-.6-.4-.9-.2-1.8.9-2.6,2-2.8,4.1-.8,6.4.8,12.1,4.9,17.3.3.4.9.5,1.3,0h-.2,0Z"/>
              </g>
              <g>
                <path d="M964.6,495.2c0-.2-.2-.3-.4-.3,0,0-.2,0-.2.1-4.6,4.7-8.2,9.9-10.6,15.7,0,.1,0,.3.2.4h.2l8.5-4c1-.4,2.1-.1,2.6.8v.2c.4.6.2,1.4-.5,1.8h-.3c-4.1,1-8.2,2.9-12.5,5.6-.3.2-.6.3-.7.4-.5,0-1.1-.2-1.2-.8v-.3c0-1.3,0-2.2-.3-3v-.8l2.7-5.5v-.3c-2.5-2.1-4.3-4.6-5.3-7.6-1.7-4.6-2.9-7.8-3.6-9.7-.2-.6-.4-1.4-.6-2.4,0-.6,0-1.3.6-1.7l2.7-2.2c.3-.2.7-.2.9,0v.3c1.5,6.8,3.7,13.4,6.6,19.7,0,.3.5.5.9.3,0,0,.2-.1.3-.3,2.7-4.4,5.8-8.2,9.4-11.3.2-.2.3-.4.3-.7,0-5.7,0-10.8,1.2-16.4.3-1,1.3-1.7,2.4-1.4h0l.7.2c1,.3,1.6,1.3,1.6,2.3-.9,10.1-1.4,15.7-1.5,17.1-.2,3.7,0,6.9.4,9.8,0,.3,0,.6-.3.8-1.3,1.1-2.4.9-3.3-.7,0-.2-.2-.4-.2-.6l-.8-5.7v.2h0Z"/>
                <path d="M971.4,502.4c-.3,0-.5-.3-.5-.6h0c1.2-13.2,2.4-23.8,2.8-23.7h1.7c.4.1-.3,10.7-1.4,23.8h0c0,.5-.3.7-.6.7l-1.9-.2h0Z"/>
                <path d="M960.1,532.9c0-.2,0-.4-.2-.4h-.3l-5.9,4.8c-.4.3-.7.8-.8,1.3-.2,1.1-.3,1.7-.4,1.9-.3.9-1.2,1.4-2.2,1.1h-.2c-.9-.4-1.3-1.2-1-2.6.5-3.6,1-6.2,1.4-7.9,0-.2,0-.5-.4-.6h-.3l-4.9,2.8c-.7.4-1.6.3-2.3-.2h0c-.6-.9-.5-1.9.3-2.5,0,0,.2,0,.2-.2l8-4.4s.2-.2.3-.4c.8-3.1,1.3-5,1.5-5.7.5-1.6,1.4-2,2.9-1.3.4.2.7.6.7,1.1,0,1.4-.4,2.7-1,4v.4h.2c.7-.3,2.9-1.3,6.6-3,1.3-.6,3-.7,3.6,1,.3.8,0,1.5-.9,2.2-.2,0-.4.2-.6.2-1.1.2-1.8.3-2.1.4-2.1.8-4.6,1.8-7.5,3.1-.2,0-.4.3-.5.6l-.9,4.4c0,.2,0,.3.2.3h.3c1.6-1.3,9.6-8,9.6-1.8s0,.4,0,.6c-2.6,4.5-4.9,9.4-7,14.8-.3.7-1,1-1.7.7h-.2c-.7-.4-.9-1.3-.6-2l6.2-12.8h0Z"/>
                <path d="M966.2,543.7c0,.2,0,.4.2.4h.3c1.3-.8,2.4-1.8,3.2-2.8v-.3l.7-9.6c0-.6.5-1,1.1-1.1h0c.6,0,1.1.5,1.1,1.1h0l-.8,7.1c0,.2,0,.3.2.3h.2c1.4-1,2.4-1.6,3.1-2,.7-.4,1.5-.2,1.8.3v.2c.3.9.3,1.6-.4,2.4-1.4,1.8-2.5,3.8-3.4,6,0,.2-.3.4-.6.4h-.9c-.2,0-.4.2-.4.4v5.5c0,.5-.4.9-.9.9h-.2c-.4,0-.8-.3-.9-.7-.3-1.8-.4-3.3-.3-4.3.2-1.3.3-2.2.4-2.6,0-.2,0-.4-.3-.4h-.3l-3,3c-.2.2-.3.6-.2.9.4.9,0,1.6-1,2.2-.7.4-1.6.3-2-.3s-.7-1.2-.9-1.9v-.6c.4-2.3.6-4.9.6-7.7s.5-1.6,1.3-1.9c.9-.4,2.1,0,2.4,1.1.3,1.2.2,2.5-.3,4h.2ZM972.9,541.6c-.2,0-.6,0-.8.5s-.3.9,0,1h0c.2,0,.6,0,.8-.5s.3-.9,0-1h0Z"/>
                <path d="M964.8,562.1l-5.4,3.7c-.2,0-.3.3-.3.4h0c-.2.7-.8.9-1.4.7-.3,0-.5-.4-.6-.7-1.1-3.7,7.1-7.7,10.1-8.7.8-.3,1.5-.2,2.1,0,.8.4,1.1,1.3.8,2.1v.2c-1.3,1.7-2.4,3.9-3.4,6.6-.2.7-1,1-1.7.8h0c-.7-.2-1.1-1-.8-1.7v-.2l1.5-2.7c0-.2,0-.5-.2-.6h-.7Z"/>
                <path d="M956.5,579.3c0,.3.5.4.8.3h.2c2-2.2,7.5-5.5,9-1.1,1,2.7-1.3,8.1-2.7,11.1-1.7,3.6-3.8,7.6-6.1,12,0,0,0,.3-.2.4l-.6,2v.2l-2.1,3.3c-.4.6-1.1.9-1.8.7h0c-.6-.2-1-.8-.8-1.4v-.3l.9-1.7c0-.2,0-.5-.2-.6-5.6-3.8-7.3-13.2-6.9-19.6.2-3.3,1.8-7.3,5.5-7.9,2.4-.4,4.1.6,5.2,2.7h-.2ZM955.4,601.4s0-.2.3-.6c1.5-2.8,3.3-6.3,5.4-10.6,1.6-3.4,3.4-7.5,3-11,0-.2-.2-.4-.4-.4h0c-1.9.6-3.5,1.8-4.9,3.6,0,.2-.2.4-.2.6v1.5c0,.7-.6,1.3-1.4,1.6-1.4.4-2.1-.9-2.4-2.1-.4-1.6-1-2.8-1.7-3.8-.2-.3-.6-.4-.9-.2-1.8.9-2.6,2-2.8,4.1-.8,6.4.8,12.1,4.9,17.3.3.4.9.5,1.3,0h-.2,0Z"/>
              </g>
            </g>
          </g>
          <g id="teman_x5F_lv3_x5F_002">
            <g>
              <path class="cls-2" d="M931.2,504.1c-5,6.4-6.2,13.6-8.1,21.3s.8,5.9,3.6,6.3c4,.5,7.9-.7,11.8-1.3s8.1-.7,11.1-3.4,1.2-4.8-.8-5.9c-3.1-1.8-6.2-.9-9.6-.5s-3.5.4-5.2.6-3.4.8-4.7.7l3.7,4.9c0-6.6.9-13.5,3.4-19.5s-3.4-5.6-5.3-3.1h0Z"/>
              <path class="cls-2" d="M930.2,502.1c1.6,2.4,3.3,4.7,5,7.1s3.3,5.7,6,6.1,3.3-.4,3.9-2.2c.9-3.2-1.8-5.3-3.5-7.6s-3.6-4.5-5.2-6.9c-2.5-3.8-8.6-.3-6.2,3.6h0Z"/>
              <path class="cls-2" d="M936.5,498.3c1.1,1.5,2.3,3,3.4,4.5s2.3,3.4,4,4.7c3.4,2.7,7.9.2,7.1-4.2s-3.9-6.9-6.2-9.9-4.2-3.2-6.6-1.7-3.3,4.5-1.7,6.6h0Z"/>
              <path class="cls-2" d="M941.9,530.5v-.2.2h0Z"/>
              <path class="cls-2" d="M941.6,546.8c.8-3.3,3.1-5.9,5.3-8.4s4.6-3.9,4.7-7-1.3-2.6-2.6-2.6c-3.6,0-6,4.2-8,6.9s-3.9,6.6-4.2,10.5,4,3.2,4.7.6h0Z"/>
              <path class="cls-2" d="M938.3,534.1c1.4,3.6,3.1,7,4.9,10.5s1.8,5,3.8,6.7,4.9,1.2,5.6-1.5.3-1.6.4-2.4,1.1-2.5,1-2.7h-1.1c0,.3.2.5.2.8v1.6c0,1.3-.2,2.4-.6,3.7-1.9,6.7,8.8,8.7,9.8,1.3s-2.7-12.3-8.1-13.3-6.3,4.9-7.9,8.4l5.2-.7c-1.6-1.3-2.4-3.9-3.5-5.7-1.7-2.9-3.4-5.8-4.9-8.8s-6.1-.8-5,2.1h.2Z"/>
              <path class="cls-2" d="M958.5,544.7c1.8,1.9,3.9,4.2,6.7,4.3s4.7-3.2,5.5-6.1,1.5-3.3,1.6-3.1c-.2.2-.5.3-.9.3-1.2.4-2.4,0-3.4-1.3-.1-.4-.1-.5,0-.2q.1.3,0,0v2.8c0,.9,0-.8,0,.5s-.2,2.7.6,3.9c1.7,2.5,4.9,3,7.2.9s1.6-5.9,1.1-8.5-1.3-4.5-3.3-5.6c-3-1.7-6.1.2-7.9,2.7s-1.7,3-2.2,4.6-.2,1.1-.4,1.6c0,.3,0,.7-.2,1-.3,1,0,.7.9-.8l2-.5c-.7,0,0,0,0,0-.3-.3-.8-.4-1.1-.6-.6-.4-1.2-.8-1.8-1.2-3.2-2.1-6.6,2.6-4,5.2h-.4Z"/>
              <path class="cls-2" d="M960.5,539.2c1.7,2.7,3.5,5.4,5,8.2s1.3,3,2.6,4,3.6,1.3,5.1.2c3.3-2.6,1-6.5-.8-9.2s-3.9-5.3-6-7.9-8.3,1-6,4.6h.1Z"/>
              <path class="cls-2" d="M968.4,561.2c.6-1,1.3-1.8,2.3-2.4s2-.7,2.8-1.2c.2,0,.4,0,.6-.2-1.3,0-2-.5-2.1-1.6v.3q0-.3,0,0v2.9c0,4.8,7.7,4.6,7.3,0s-.3-3.3-1.3-4.8-2.6-2.7-4.6-2.3-3.4,2-4.7,3.3-2.6,2.9-3.3,4.7,2.1,2.9,3,1.3h0Z"/>
              <path class="cls-2" d="M982.4,580.5c-4.2,1.1-8.4,0-11.2-3.4s-2.1-2.2-.8-2.8,3.4,1,4.6,1.5c1.9.8,3.7.5,4.9-1.3s1.2-3.5,1.4-5.6c.3-3.2,2-1,2,1.2,0,4.4-3.4,8.3-2.2,12.7s3.7,3.6,6.1,2.5c4.2-2,5.5-8.7,5.1-12.9s-3-8.7-6.6-11c-8.1-5-16.2,5.8-12,13.2l4.1-5.3c-3.7-1.1-6.9-2.4-10.6-.4s-4.4,5.2-3.4,8.7c2.7,8.8,13.6,11.9,20.6,6.5,1.8-1.4-.2-4-2.1-3.5h.1Z"/>
            </g>
            <g>
              <path d="M932.3,505.7c-4.1,6.2-5.1,13.3-6.3,20.5s.2,2.3,1.4,2.5c2.9.4,5.8-.5,8.7-.9s7.7-.7,11.2-2,1.3-2.7-.4-2.9c-2.8-.4-5.8.4-8.6.7s-6.8,1.6-9.7,1.2l1.5,2c.4-6.7,1.4-13.7,4.5-19.8s-1.3-2.7-2.2-1.3h-.1Z"/>
              <path d="M932.1,501c1.4,2.2,3,4.3,4.6,6.4s2.8,4.2,4.6,5.7c1.8,1.5,2.4,0,2.1-1.2-.6-2.3-2.7-4.2-4.1-6s-3.2-4.1-4.7-6.3-3.5-.1-2.5,1.4h0Z"/>
              <path d="M939,496.8c1.3,1.7,2.6,3.3,3.8,5.1s2.1,3.4,3.7,4.4,2.1-.1,2.1-1.2c0-1.9-1.3-3.6-2.4-5.1s-2.6-3.4-3.8-5.1-4.8,0-3.3,1.9h0Z"/>
              <path d="M941.9,530.5h0Z"/>
              <path d="M940.3,546.4c.7-3.6,3-6.6,5.4-9.3s3.9-3.6,4.7-6.1-.3-.8-.7-.7c-3.1.6-5.1,4-6.9,6.3s-3.9,5.9-4.3,9.5,1.7,1.3,1.9.3h-.1Z"/>
              <path d="M940,533.9c1.5,3.5,3.4,6.9,5.1,10.3s1.6,4.2,3.3,5.6,1.9.4,2.2-.6.6-4.5,1.8-5.5c3.5-2.8,3.5,6.2,3.1,7.8-.6,2.5,3.4,3.5,3.8,1.1.7-3.8-.6-11.5-5.5-12.1s-4.8,5.3-5.8,8l2.2-.6c-1.7-1.4-2.6-4.2-3.7-6.2-1.7-2.9-3.3-5.9-4.7-8.9s-2.4-.2-1.9,1.1h.1Z"/>
              <path d="M959.9,543.3c1.4,1.2,3.2,3.3,5.3,3.4s2.7-2.4,3.1-4.1.8-2.7,1.6-3.7c1.6-2.1,0,0,.3-1.2,0,.2.2.5.2.8,0,1.8-.2,3.9,0,5.6s2.9,1.4,3.5,0c1-2.5.2-10.5-3.9-9.4s-4,4.1-4.7,6.3-.3,1.2-.4,1.8-.4,1.3,0,.9,0,0-.4-.3c-1.1-.7-2.1-1.3-3.1-2.1s-2.7,1.1-1.6,2.1h.1Z"/>
              <path d="M962.4,538c1.4,2,2.8,4,4,6s2,4.3,3.6,5.8,2.5.3,2.4-1c-.2-2.3-1.7-4.3-2.9-6.1s-3-4.2-4.5-6.2-3.7,0-2.6,1.5h0Z"/>
              <path d="M967.5,560.7c1.1-2.2,3.3-3.7,5.5-4.6s.9-.4,1,.7,0,1.5,0,2.3.4,1.3,1.1,1.4.5,0,.8,0c.6-.2,1.1-.7,1.1-1.4,0-1.9-.4-5.7-3.1-5.5s-2.9,1.4-4,2.2-2.8,2.5-3.5,4.2.8,1.4,1.1.7h0Z"/>
              <path d="M982.7,581.7c-4.7,1.9-9.7.7-13-3.2-.5-.6-1.9-2.3-1.8-3.2.2-1.7,2-2.9,3.4-3.1s3.5,1.2,5.1,1.8,1.6-.3,1.8-1c.5-1.8.2-3.9.8-5.6s3.5-2.7,5.4-.8,1.5,3,1.5,4.6c0,4.3-2.4,8-2.4,12.3s.6.9,1,.6c6.1-4.2,7-15.3,1.2-20.3s-11.2,3.2-10.2,9.2l1.8-1.8c-3.1-1.1-5.8-2.5-9.1-.8s-3.3,3.5-2.5,6.1c2.1,7.5,11.4,10.5,17.8,6.7s.3-1.9-.7-1.5h0Z"/>
            </g>
          </g>
          <g id="teman_x5F_lv3_x5F_001">
            <g>
              <path class="cls-2" d="M928.2,533.8c3.8-8.7,10.7-15.1,17.5-21.5s1.7-2.9,1.1-4.3-1-1.9-2.1-2.7-3.4-.9-4.5,0c-8.3,6.4-15.7,15.7-18.7,25.8s4.9,6.6,6.6,2.8h.1Z"/>
              <path class="cls-2" d="M926.2,507.6c5.4,4.5,11.5,9.6,13.1,16.8.2.7.3,1.3.3,2-.4,1.5.2,1.8,1.9.9-.6-1-1.5-1.3-2.7-.9.4.4.8.7,1.2,1.1.6,1.2,2.2,2.1,3,3.2s1.3,2.8,1.7,4.6c1.3,5.7,9.1,3.8,9.6-1.3s-9.3-14.9-15.4-15.5c-9.9-1.1-7.2,12.7-1.9,16.5s7.2,1.9,9.6-1.2,2.1-7.4,1.3-10.9c-2.1-9.2-9.5-16.2-17.7-20.4s-7,2.6-4,5.2h0Z"/>
              <path class="cls-2" d="M934.7,507.4c3.6,2.2,7,4.7,11,6s4.8-.9,5.4-3.1-.9-4.5-3.1-5.4c-3.2-1.3-6-3.3-9-5-4.8-2.9-9.2,4.6-4.4,7.5h0Z"/>
              <path class="cls-2" d="M939.3,503.2c1.7.9,3.3,1.9,5,2.8s2.1,1.3,3.3,1.4,2.3-.2,3.5-.4c2.5-.5,3.3-3.6,2.2-5.5s-.7-1.7-1.5-2.5-1.8-1.2-2.9-1.6c-1.6-.8-3.3-1.5-4.9-2.2s-5-.7-6.3,1.7-.5,5.1,1.7,6.3h0Z"/>
              <path class="cls-2" d="M949.2,552c1.9-3,4.2-5.5,6.7-8s5.1-4.3,5.4-7.6-1.5-2.5-2.8-2.2c-3.2.9-5.7,4.6-7.8,7s-4.5,5.7-5.3,9.2,2.6,3.6,3.9,1.6h-.1Z"/>
              <path class="cls-2" d="M946.5,539.6c2,4.9,5.1,17.2,12.7,11.9s1.4-1.1,1.8-1.7c.9-1.2,2-.6-.2-1.5s-1.3,0-1.7,1.6c-.5,2.4-1.1,4.7-1.8,7s.5,4.3,2.3,5.6,2.6.8,3.9.5c2.3-.6,3.4-2.7,3.7-4.8.5-4.3.7-9.3-1.1-13.3s-2.6-3.3-4.8-3.3-4.4,3.1-7,3.5l3,.4c-.9-.4-1.5-2.6-2-3.4-1-1.7-2.1-3.3-3.1-5-1.7-3-7.1-.9-5.7,2.4h0Z"/>
              <path class="cls-2" d="M962.2,541.8c1,1.3,2.7,2.5,3.5,3.8s3.2,2.3,4.8,1.3,3.2-4.8,3.4-7.2.3,0-.7.2c-1.1.2-1.8,0-2.1-.8.2.4.3.6.2.3.2,1.3.4,1.6.5,2.9.5,4.4,6.7,5.8,8.1,1.1s-2.5-12.1-7.9-11.3-4.6,2.5-5.3,5.1-.4,2.2-.5,3.3,0,1-.4,1.5l4-1.6c-1.3-.2-2.6-1.7-3.6-2.5-2.7-2.4-6.1,1.2-3.9,3.9h0Z"/>
              <path class="cls-2" d="M964.6,539.3c1.3,1.7,2.6,3.5,3.8,5.3s1.2,1.8,1.9,2.7.8,1.1,1.3,1.6-.5-.6.2.2c1.3,1.8,3.6,2.7,5.6,1.5s2.6-3.7,1.5-5.6c-2.1-3.8-5.2-7.2-8-10.5s-9,1.2-6.3,4.8h0Z"/>
              <path class="cls-2" d="M979.8,555c.4-.6.8-1.2,1.2-1.8s.4-.5,0-.2c0-.2.3-.3.4-.5s.3-.3.4-.5c.3-.3.5-.3,0,0,.5-.2-.3,0-.4,0-.4,0-.9,0-1.3-.3s-.5-.6-.8-.9c-.5-.5.2.2,0,.3,0-.5,0-.6,0-.3v2.5c0,4.3,6.6,5.3,7.6,1s.4-4.4-.7-6.3-3.6-3.2-5.9-2.5-4.3,4.7-5.5,7.5.4,2.6,1.5,3,2.5,0,3.2-1.1h0v.2h.3Z"/>
              <path class="cls-2" d="M987.2,576c-3.7,1.7-9.1.6-12.2-1.9s-2.4-1.8-1.7-2.7,1.3-.4,1.8-.5c.9,0,1.5.6,1.1,0,1.6,3.5,8,1.9,7.5-2s-1.7-7.7-.6-7.9,1.8,3.5,1.9,3.8c.9,3.2,1,7.2-.7,10.1-3.3,5.7,5.5,10.8,8.8,5.2,4.3-7.2,2.7-18.1-4.4-23-3.2-2.2-6-2.3-8.9.2s-5,7.7-3.9,12.9l5-5c-4-.8-6.9-1.9-10.8.3s-5.3,5.8-3.9,9.8c3.3,9,17,12.1,24.4,6.7s.5-7.4-3.3-5.7h0v-.2h0Z"/>
            </g>
            <g>
              <path d="M926.5,532.3c2.1-5.3,5.4-9.8,9.3-14s7-6,9-9.6-.3-2.1-1.4-1.8c-4.7,1.3-8.6,7-11.7,10.6s-6.3,8.7-8.1,13.9,2.1,2.5,2.8.8h.1Z"/>
              <path d="M927.8,506.4c6,4.4,12.2,9.8,13.9,17.3s1.6,5.9-2.3,5.4l-1.2-1.4c.2-3.7,1.2-4.4,2.9-2.2,2.7,1.8,5.7,5.4,6.1,8.6s3.9,2.6,3.9,0c0-5-7.6-13-12.7-13.3s-3.7,9.6-.2,12c6.4,4.4,8-4.7,7-9.2-1.9-8.7-8.8-15-16.2-19.4s-2.7,1.3-1.3,2.3h0Z"/>
              <path d="M936,505.2c2,1.2,4,2.6,6.1,3.7s3.7,2.2,5.8,1.9,1.4-1.7.6-2.4c-1.4-1.3-3.6-1.9-5.3-2.8s-3.7-2.2-5.5-3.3-3.7,1.8-1.8,3h.1Z"/>
              <path d="M940.7,500.8c2.1,1.1,4.1,2.3,6.2,3.3s3.7,1.6,4.5,0-1.3-2.8-2.2-3.4c-2-1.3-4.5-2.3-6.7-3.3s-4,2.1-1.9,3.2h0v.2h.1Z"/>
              <path d="M948.1,551.4c1.5-3,3.6-5.5,6-8s4.5-3.9,5.7-6.5-.4-1.8-1.2-1.2c-2.6,2-4.9,4.7-7,7.1s-3.9,4.9-5,8,1.1,1.5,1.5.7h0Z"/>
              <path d="M948.4,539.4c1.1,2.4,2.4,4.7,3.4,7.2s.8,2.4,1.8,3.2c2.8,2.1,4.3-.9,6.5-2.2s1.6.4,1.5,2.1-.4,2.8-.6,4.2c-.4,2.2-1.3,4.2,0,6.2s1.3.7,2,.3c-.6.5.7-.4.8-.7.3-.5.4-.9.5-1.4.4-1.4.5-3.1.6-4.6.2-2.3.4-5.9-.8-8s-2.7-2.1-4.4-1.3-3.2,4.1-5.1,1-2.6-4.9-3.9-7.3-2.8-.2-2.2,1.3h0Z"/>
              <path d="M963.4,540.6c1.4,1.5,2.9,2.8,4.4,4.2s1.4.5,2,0c1.7-1.4,1.4-4.1,2-6,1.2-3.5,2.5,2.1,2.5,3.5s2.9,2.3,3.2.4c.5-2.9-1.2-8.7-5-8.4s-2.9,1.5-3.5,3-.2,4.1-1.3,5.4l1.7-.2c-1.7-.8-3.2-2.2-4.5-3.6s-2.5.5-1.6,1.6h0Z"/>
              <path d="M967,538.5c1.6,2,3.1,4.1,4.5,6.1s2.2,4,3.9,4.2,1.3-.5,1.5-1.1c.6-1.6-2.1-4.2-2.9-5.4-1.5-2.1-3.1-4.1-4.8-6.1s-3.5.7-2.3,2.3h0Z"/>
              <path d="M978.4,554.2c.8-1.3,1.5-3.1,2.8-4s.4-.3.6.3c.3.8.2,1.9,0,2.8-.2,1.7,2.7,2.1,3,.4s-.3-7.2-3.8-6.3-3.5,3.8-4.5,5.8,1.1,2.2,1.8,1h.1Z"/>
              <path d="M988.2,577.7c-4.6,2.4-10.7,1.4-14.6-1.8s-4.2-4.2-1.6-6.2,5.1-1.5,6.6.2,2.9,0,2.7-1.6-1.6-12.4,4.1-8.1,2.5,4.2,2.9,6.1c1,4.5-.4,8-1.8,12.1s.9,1.8,1.8,1.4c7.2-3.2,4.7-15.5.4-20.3s-4.4-3.7-7-2.1c-4.1,2.6-4.1,7.5-3.3,11.7l2.4-1.8c-3-1.6-6.3-2.1-9.5-.4s-3.9,4-2.9,6.9c2.8,7.9,15,10.2,21.4,6.1s.2-3.1-1.3-2.3h-.3Z"/>
            </g>
          </g>
          <g id="teman_x5F_lv1_x5F_002">
            <g>
              <path class="cls-2" d="M941.7,510.1c0,2.9.4,5.9.5,8.8s0,3.7,0,5.6-.8,3.2-.7,4.6c0-1.8-.9,3.1.2.3.9-.2,1.1-.8.4-1.7l.4-2c.7-2.4,2.4-4.8,5.1-5.2s4.4,1.3,5.4,2.6c.4-.4.2-.4-.3,0-1.3.7-.6,1.1,2.1,1.2.3,0,2,0,2.7.2,6.3,3.3,10.4-7.1,3.7-8.8s-12.8,1.6-14.4,7.5,3.5,11.6,9.8,8.2,6.2-10.1,1.6-15.1-12.2-5.4-17.6-2c-5.4,3.4-8.7,11.8-6.8,18.1s10.1,8.7,14.7,3.2,3-10.2,2.6-15.2-.6-10.6-4.5-13.3-4.8.5-4.9,2.8h0v.2h0Z"/>
              <path class="cls-2" d="M951.2,526.3c-2.8-1.8-5.9-3-8.7-5s-4.3-3.2-6.2-5.2c-2.7-2.9-8.7-.8-8.3,3.4s4.4,7.2,8,9.6,8.4,5.1,13,5.3,5.7-5.9,2.2-8.1h0Z"/>
              <path class="cls-2" d="M950.8,541.9c1-.8,2.5-.9,3.7-1.1s2.9-.9,3.8-.6l-1.8-6.7c-2.1,2.2-2.8,5.6-4,8.4s2.6,6.5,5.7,5.7,1.6-.5,2.4-1c1.2-.8,1.2-.9,0-.4,1.8,0,1.2-1-1.7-3.3-.3,0-1.3,1.5-1.6,1.7s-1.4,1.3-1.3,1.3c-4.6,3.4-.6,10.9,4.6,7.9s7.8-6.8,6.4-11.7-7.3-4.6-11.3-3.3l5.7,5.7c1-3,2.4-5.9,1.7-9.1s-1.5-2.5-2.8-2.8c-4.2-.8-11,1.9-13.7,5.3s1.2,6.6,4.1,4.1h0Z"/>
              <path class="cls-2" d="M951.9,545.7c-1.3,2.5-2,4.8-1.4,7.6s3.4,3.9,5.6,3.2,4.1-3.2,3.2-5.6-.2-.6-.3-.9-.4-1.3-.2-.7,0-.4,0-.6v-1.1c0-3.6-5.2-5.2-6.9-1.9h0Z"/>
              <path class="cls-2" d="M963.7,542.7c1.7.6,3.3,1.2,5,1.8s4.4-.8,4.9-2.8-.6-4.3-2.8-4.9-4.1-.7-6.2-1-3.2,1.5-3.4,3,.8,3.2,2.5,3.8h0Z"/>
              <path class="cls-2" d="M968.8,533.4s-.6-.2-1-.6-.8-1.1-1.1-1.6-1.2-2.5-.9-3.2,1-.4,1.2,0c-.2-.3,0,0-.2.3s-.2.5-.3.6c-.5,1-1.1,1.9-1.8,2.7-1.4,1.9-.5,4.9,1.2,6.2s4.5,1.3,6.3-.4c4.1-3.7,4.5-10.7-.4-14s-8.2-2.1-10.9.9-2.7,7.7-.7,11,3.3,3.7,5.6,3.8,4-1.3,4.4-3.6-.5-2.1-1.7-2.2h.3Z"/>
              <path class="cls-2" d="M970.7,548.5c1.1,0,2.1-.4,3.1-.6s1-.2,1.5-.3c1.4-.2.3,0-.6-1.1l-.4-2.7v.7q0,.5,0,0c0,.3-.2.6-.3.9-.4,2.8,1.2,5.6,4.3,5.6s4.7-2.8,4.3-5.6-1.4-3-2.6-3.7-1.4-.7-.5-.3c-.4-.2-.7-.4-1.1-.5-.9-.3-1.9-.3-2.8,0-1.4.4-2.6,1.3-3.7,2.3s-2.1,1.8-2.6,3.2.6,2.1,1.6,2.1h-.2Z"/>
              <path class="cls-2" d="M981.1,564.5l-.5.4,1.8-.8c-3.3-.3-6.1,1.7-9.5,1.1s-3.4-.6-4-2.1,2.1-.2,3,0c3.8,1.3,6.3-3.8,3.7-6.4.4.4,0,1.1,1.3.2h.7c-.5-.5-.7-.5-.6,0,0,.3.2.7,0,1-.7,2.8-1.3,6.3-.6,9.1s3.9,3.8,6.2,2.5c3.7-2.1,4.5-7.2,4.4-11.2s-3.1-8.4-7.6-9c-6.5-.8-13.8,5.5-9.9,12.1l5.3-5.3c-3.7-2.3-9.2-2-11.9,1.7s-2.1,8.4.8,11.5,7.5,4.4,11.5,4.2,4.4-.8,6.2-1.9,2.4-2.8,3.2-3.8c2.1-2.5-1.1-5.7-3.6-3.6h0v.2h0Z"/>
            </g>
            <g>
              <path d="M943.8,510.4c1,3.3,1.1,6.8,1.2,10.2s.7,8.5-1.5,10.6-3.2.9-4-1.4,0-4.1.7-5.9c1.5-3.6,4.7-6.3,8.9-6s7.9,3.5,6,7-3.3,1.3-3-.4c.4-2.6,5-3.1,6.8-2.4s3.9-2.5,1.4-3.3c-4.1-1.4-10.2.7-11.1,5.3s1.8,7,6,5,4.4-6.8,1.5-10.4-9.1-4.8-13.6-2.5-8,9.4-6.7,14.7,4.8,7.1,8.5,4.4,3.7-8.2,3.6-12.3,0-10-2.4-13.4-2.6-.5-2.2.9h-.1Z"/>
              <path d="M949.8,528.7c-3-1.3-5.8-2.5-8.4-4.3s-5.5-3.3-7-5.7-4-.6-3.3,1.4,4.2,4.8,6.5,6.4,7,4.5,11,5.2,3.1-2.2,1.3-3h0Z"/>
              <path d="M949.5,540.6c1.3-1.2,3-1.6,4.6-2s3.4-1.2,4.8-.8l-.9-2.2c-1.1,2.3-1.8,4.8-2.7,7.1s.9,2.5,2.1,2.1,3.5-2,3.9-.7-3.1,3.7-3.9,4.2c-1.8,1.2-.2,4.1,1.7,2.9s6.4-5,5.2-8.5-5.4-2-7.9-1.3l2.1,2.1c.8-2.4,1.9-4.8,2.1-7.3s-.5-1.3-1.1-1.4c-2.1-.5-4.3.5-6.3,1.1s-4,1.5-5.5,3,.5,2.5,1.5,1.5h0l.3.2h0Z"/>
              <path d="M953.7,547.2c-.4,1.1-.7,2.3-.7,3.4s0,1.2.2,1.7c.2.8.6,1,1.3,1.4s1.9-.2,2-1.1q0,.3,0,0v-.9c0-.4-.2-.8-.3-1.2v-2.5c.3-1.7-2.1-2.5-2.7-.7h.2Z"/>
              <path d="M964.2,540.6c1,.3,2.1.6,3.1.9s2,.8,3,.5,1.2-1.1.7-1.8c-.7-1-1.7-1.2-2.8-1.4s-2.3-.4-3.4-.7c-1.6-.3-2.3,2-.7,2.5h.1Z"/>
              <path d="M968.4,534.6c-3.2,1.4-5.6-4.9-4.4-7.3s4-1.9,5.1,0-.2,4.1-1.4,5.6.9,4.2,2.6,2.6c2.7-2.7,3.7-7.3.5-10.1s-6.2-2-8.3.3-1.6,5.8-.3,8.3,4.8,4.7,7.1,1.6-.4-1.1-.9-.9h0Z"/>
              <path d="M971,547.4c1.5-.7,3-1.5,4.7-1.9s1-.3.9.4,0,1.2.3,1.8,1.6,1,2.3.3c1.5-1.7,0-4.6-2-5.1s-2.3.3-3.3.8-2.7,1.5-3.7,2.7,0,1.3.7,1h0Z"/>
              <path d="M982.2,565.6c-2.7,2.5-7.6,2.8-10.9,2-1.8-.4-3.6-1.4-4.5-3.1s0-4.5,3.1-4.4,1.9.6,2.7.9c1.5.6,2.2-1.4,1.4-2.4-2-2.4,5.5-6.9,6.3-1s-.7,5.6-1.1,8,1.8,2.7,2.9,1.2c1.7-2.3,2.3-6.6,2-9.4-.4-2.7-2.2-5-5-5.4-4.5-.7-10.5,3.8-7.3,8.5l2-2c-2.8-1.5-6.5-1.9-8.7.8s-1.6,5.9.4,8.2c4.7,5.6,13.7,4.4,18.3-.5s-.5-2.2-1.3-1.3h-.3Z"/>
            </g>
          </g>
          <g id="teman_x5F_lv1_x5F_001">
            <g>
              <g>
                <path class="cls-2" d="M952.3,540c1.3-.7,2.8-1,4.2-1.3s1.3-.2,2-.3h.9c-.7-.2-.7,0,0,0,1.4.7,1-.3-1.2-2.8,0,.2-.2.3-.3.5-.4.3-.7,1.1-1,1.5-.9,1.4-1.9,2.6-2.5,4.2-1.3,3.2,3.2,6.6,6,4.6s2.8-1,3.2-1.4c-.4.5-2.2-3.4-2.5-3.4s-.6.6-.8.7c-.8.4-1.4,1-2.4,1-4.5.3-6.2,7.5-1.1,8.5s6.7-.8,9.3-3.3,3.9-5.4,2.4-8.4c-2.4-4.7-8.5-3-12-.7l6,4.6c1.4-3.4,5.3-9.4.3-11.7s-4.2,0-6,.4-4.8,1.3-6.9,2.5c-3,1.8-.4,6.2,2.7,4.7h-.3Z"/>
                <path class="cls-2" d="M952.8,545.2c-1,2.5-.6,5.6,0,8.2s3.5,4,5.8,3.3,4.2-3.3,3.3-5.8-1.1-3.8-1.6-5.7-2-2.8-3.7-2.8-3.1,1.2-3.7,2.8h0Z"/>
                <path class="cls-2" d="M965.9,541.8c.6.2,1.3.3,1.9.5s.5,0,.8.2c0,0,.9.3.7.2,1.3.6,3.1.7,4.2-.5s.9-1.4,1-2.4-1.2-3-2.5-3.3-3.4-.5-5.2-.6c-3.5-.3-4.1,5.1-.8,6h-.1Z"/>
                <path class="cls-2" d="M963.7,532c0-1,.5-1.7,1.3-2,1.1-.5,2-.3,3,0-.6-.2.5.3,0,0l.2.2q.2.2,0,0v-.3q0,.3,0,0c0,.6.2,0,0,.8s-1.2.9-1.8,0c-1.3-1.8-3.6-2.7-5.6-1.5s-2.7,3.7-1.5,5.6c3.2,5.1,10.4,7.1,14.4,1.6s2.7-8.8-1-11.6c-5.5-4.1-14.5.4-13.1,7.5s4.2,1.8,4.2-.6h0v.2h-.1Z"/>
                <path class="cls-2" d="M973.8,548.5c.9-.9,1.9-1.9,3.2-2.4-.4.2.5-.2.5,0,0,.4-1.3-.3-1.4-.4s-.2-.4,0-.4c-.3,0,.6,2.4.8,2.7,1.4,2,5,2.6,6.2,0s.5-4.9-1.2-6.8-3.6-2.5-5.7-1.9-4.9,3.7-6.3,6.2,1.9,5.1,4,3.1h0Z"/>
                <path class="cls-2" d="M976,566.8c-2.1.4-4.5-.5-6.3-1.6s-1.7-1.2-2.4-2.1c-.3-.7-.5-.6-.4.3.7,0,1.4.2,2.1.5,2.7,1,5.9-2.2,4.9-4.9-.3.3-.3.4,0,0l.6-.6c.3-.2,1.6-1.2,2-1.1,1.1.4.3,3.2,0,3.9-.7,2.1-2.7,4.7-3.6,7.1s1.7,6.3,4.6,6.1c9.1-.7,10-16.4,5.3-22.1-6-7.2-21.3,1.1-16.2,9.7,1.5-1.9,3-3.9,4.5-5.8-3.4-1.2-7.9-1.2-10.5,1.7s-2,6.4-.2,9.3c3.7,5.9,11.7,8.9,17.7,4.7s1-5.8-2.2-5.1h.1Z"/>
              </g>
              <g>
                <path class="cls-2" d="M960.6,519.3c1.1,1.6,2,3.5,3.8,4.4,2.9,1.5,5.1-.8,5.9-3.4s.3-1,.8-1.8l.4-.4h0c-1,.2-1.7,0-2.3-.8,0-.3-.2-.3,0,0,0,.3,0,.2,0,0v2c0-1.1,0,1.5,0,1.9.2.8.7,1.7,1.3,2.2,1,.9,2.4,1.4,3.6,1,5.5-1.9,3.4-10.2-.8-12.5s-5-.2-6.8,1.7-1.7,2.2-2.1,3.5-.3,1.1-.3,1.7,0,.4,0,.2c-.2.8,0,.6.7-.5l1.6-.4s.6.3.6,0-.6-.6-.8-.8c-.4-.4-.7-.8-1-1.2-2.1-2.4-6.2.7-4.4,3.4h0v-.3h-.2Z"/>
                <path class="cls-2" d="M963.4,515.4c1.3,1.8,2.3,3.8,3.2,5.8s1.3,4.6,3.7,5.2,2.2-.2,2.8-1.1c1.4-2.3-.4-4.8-1.6-6.9s-2.5-4.2-4-6.1-5.8.7-4.1,3.2h0Z"/>
              </g>
              <g>
                <path class="cls-2" d="M945.6,528.3c-2.6-3.2-4.7-6.6-5.9-10.6s-1.9-8.5-6.5-6.9-3.2,2.3-3.3,4.4c-.5,7.9,4.4,15.3,10.5,19.8s8-3.2,5.2-6.7h0Z"/>
                <path class="cls-2" d="M945.2,517.6c1.4-1.2,2.7-2.5,4.3-3.4s1-.5,1.6-.6.5,0,.8-.2c.9-.3.9.3-.5-.2l-1.7-1h0c-.3-.4-.7-1-1-1.6v.2c.4,2.1,2.9,3.2,4.8,2.7s3.1-2.7,2.7-4.8c-.8-4.3-5.6-3.4-8.3-2.1s-5.9,4-7.6,7.2c-1.7,3.2,2.2,6,4.8,3.7h.1Z"/>
                <path class="cls-2" d="M950.1,530.3c3.7-1.9,8-3.1,11.1-5.9s-2-10.2-6.3-6.3-2.5,1.6-3.7,2.5c-1.9,1.3-3.7,2.7-5.4,4.1s-1.3,3.5-.3,4.7,3,1.8,4.7.9h0Z"/>
              </g>
            </g>
            <g>
              <g>
                <path d="M951.5,538.6c1.4-.8,3-1.2,4.6-1.5s3.4-1,4.3-.3v-.4c-.2.5-.4.9-.7,1.3-.3.5-.6,1-.9,1.5-.7,1.2-1.4,2.3-1.9,3.5s1.2,2.4,2.2,1.7,2.7-1.9,3.8-1.7-.2,1-.8,1.6c-1.2,1.1-2.7,1.9-4.3,1.9s-2,3,0,3.2c3.3.4,10.4-4,8.3-8.1s-6.4-1-8.5.4l2.2,1.7c.8-1.9,5.2-7.5,1.9-9s-3.3,0-4.7.2c-2.3.4-4.5,1.1-6.5,2.2s0,2.4,1,1.8h0Z"/>
                <path d="M955.1,545.9c-.4,2.3,0,4.6.4,6.8s.6,1.1,1.2,1.2,1.2,0,1.7-.5.6-1.1.5-1.7c-.6-1.8-.9-3.6-1-5.4s-2.5-2.1-2.8-.4h0Z"/>
                <path d="M966.4,540c1.1.2,2.2.4,3.3.7s2,.6,2.9.2.5-.4.4-.7c-.6-2.3-4.3-2.3-6.2-2.5s-1.6,2-.3,2.2h-.1Z"/>
                <path d="M962.4,532c-.2-3.3,3.8-5.2,6.6-3.7s1.7,2.8.8,4.3-2.1,1.9-3.6,1.4-2-1.8-3.1-2.6-2,.2-1.9,1.1c.2,4.3,6.5,6.2,9.6,3.6s3.4-6.4,1-8.9c-3.7-3.9-11.7-.8-11,4.8s1.7,1.1,1.6,0h0Z"/>
                <path d="M972.6,547.4c.9-1.1,1.9-2.2,3.1-2.9s1.2-.7,1.7-.5c.9.4.8,1.8,1,2.5s.5.9.9.9h.7c.6,0,.9-.7,1-1.3.3-2.7-2.1-5.5-4.8-4.7s-3.9,3-5.2,4.8.8,2,1.5,1.2h0Z"/>
                <path d="M976.5,568.5c-2.8.9-5.5.4-8-1.1s-2.1-1.5-2.9-2.5c-1.6-1.6-1.2-2.9,1.4-4,1,0,1.9.2,2.8.6,1.3.5,2.2-1.1,1.7-2.2-.7-1.6,2.1-3.3,3.3-3.9,4-1.8,5.2,2.5,4.8,5.5s-1.4,5.5-3.1,7.5.3,3.7,2.2,2.8c5.2-2.4,5.8-14.3,1.9-17.9s-14.7,1.7-11.6,7.4l1.7-2.2c-5.2-1.9-11.8,1.5-7.9,7.4s9.5,7.1,14.7,4.4.3-2.3-.8-1.9h-.2Z"/>
              </g>
              <g>
                <path d="M962.1,518.4c.9,1.2,1.7,2.9,3.1,3.5s2.5-.3,3-1.6.3-1.6.7-2.4,1.4-2.2,2-1.9c1.2.4.6,3.8.7,4.7.2,1.3,1.9,2,2.6.7,1.4-2.5-.2-8.6-3.9-8s-3.4,2.3-4.1,4-.5,2.1-.5,2.1c-.5,0-1.7-2-2.1-2.5-.7-.9-2.4.3-1.7,1.3h.2Z"/>
                <path d="M964.9,514.5c1.2,1.6,2.2,3.4,3.1,5.2s1.3,3.6,2.5,5,1.6,0,1.6-.6c-.2-1.8-1.2-3.5-2.1-5.1s-2.1-3.7-3.4-5.4-2.4,0-1.7,1h0Z"/>
              </g>
              <g>
                <path d="M944.1,529.8c-2.3-2.4-4.2-5-5.5-8.1s-1.4-5.7-2.6-8.4-2.5-1.1-3.1,0c-1.8,3,0,7.3,1.2,10.3s4,6.7,7,9.2,4.9-1,3-3h0Z"/>
                <path d="M944.1,516.6c1.3-1.4,2.8-2.9,4.5-3.9s1.3-.6,2-.9.5-.1.7-.3h.4c.9-.2.5-.6-1-1.1.4,2.5,4.2,1.4,3.8-1s-3.8-1.8-5.5-1c-3.1,1.4-5.4,3.5-7.2,6.3s1.2,3.1,2.4,1.8h-.1Z"/>
                <path d="M949.2,528.7c3.4-1.9,7.5-3.3,10.4-6s.8-1.5.6-2.2v-.2c-.3-.9-1-1.3-1.9-1.4-1.5-.2-3.3,1.6-4.5,2.4-2.2,1.4-4.3,2.7-6.4,4.3s-.2,4.3,1.8,3.1h0Z"/>
              </g>
            </g>
          </g>
        </g>
      </g>
    </g>
  </g>
</svg>